<?xml version="1.0" encoding="UTF-8" standalone="no"?>
<!DOCTYPE svg PUBLIC "-//W3C//DTD SVG 1.1//EN"
 "http://www.w3.org/Graphics/SVG/1.1/DTD/svg11.dtd">
<!-- Generated by graphviz version 2.43.0 (0)
 -->
<!-- Title: _114 Pages: 1 -->
<svg width="1777pt" height="621pt"
 viewBox="0.00 0.00 1777.00 621.00" xmlns="http://www.w3.org/2000/svg" xmlns:xlink="http://www.w3.org/1999/xlink">
<g id="graph0" class="graph" transform="scale(1 1) rotate(0) translate(4 617)">
<title>_114</title>
<polygon fill="white" stroke="transparent" points="-4,4 -4,-617 1773,-617 1773,4 -4,4"/>
<g id="clust1" class="cluster">
<title>cluster114diagram</title>
<polygon fill="none" stroke="black" points="8,-8 8,-605 1761,-605 1761,-8 8,-8"/>
<text text-anchor="start" x="850.5" y="-586.3" font-family="Times,serif" font-weight="bold" font-size="14.00">Diagram</text>
</g>
<g id="clust2" class="cluster">
<title>cluster114subsystems</title>
<polygon fill="none" stroke="white" points="16,-16 16,-566 1753,-566 1753,-16 16,-16"/>
</g>
<!-- s2 -->
<g id="node1" class="node">
<title>s2</title>
<polygon fill="none" stroke="black" points="32.5,-520 32.5,-554 663.5,-554 663.5,-520 32.5,-520"/>
<text text-anchor="start" x="286.5" y="-540.8" font-family="Times,serif" font-weight="bold" font-size="14.00">MultibodyPlant</text>
<text text-anchor="start" x="304" y="-526.8" font-family="Times,serif" font-size="14.00">name=plant</text>
<polygon fill="none" stroke="black" points="32.5,-499 32.5,-520 299.5,-520 299.5,-499 32.5,-499"/>
<text text-anchor="start" x="107.5" y="-505.8" font-family="Times,serif" font-size="14.00">geometry_query</text>
<polygon fill="none" stroke="black" points="299.5,-499 299.5,-520 663.5,-520 663.5,-499 299.5,-499"/>
<text text-anchor="start" x="427" y="-505.8" font-family="Times,serif" font-size="14.00">geometry_pose</text>
<polygon fill="none" stroke="black" points="32.5,-478 32.5,-499 299.5,-499 299.5,-478 32.5,-478"/>
<text text-anchor="start" x="55.5" y="-484.8" font-family="Times,serif" font-size="14.00" fill="grey">WorldModelInstance_actuation</text>
<polygon fill="none" stroke="black" points="299.5,-478 299.5,-499 663.5,-499 663.5,-478 299.5,-478"/>
<text text-anchor="start" x="463" y="-484.8" font-family="Times,serif" font-size="14.00">state</text>
<polygon fill="none" stroke="black" points="32.5,-457 32.5,-478 299.5,-478 299.5,-457 32.5,-457"/>
<text text-anchor="start" x="50" y="-463.8" font-family="Times,serif" font-size="14.00" fill="grey">DefaultModelInstance_actuation</text>
<polygon fill="none" stroke="black" points="299.5,-457 299.5,-478 663.5,-478 663.5,-457 299.5,-457"/>
<text text-anchor="start" x="440.5" y="-463.8" font-family="Times,serif" font-size="14.00">body_poses</text>
<polygon fill="none" stroke="black" points="32.5,-436 32.5,-457 299.5,-457 299.5,-436 32.5,-436"/>
<text text-anchor="start" x="59" y="-442.8" font-family="Times,serif" font-size="14.00">KneedCompassGait_actuation</text>
<polygon fill="none" stroke="black" points="299.5,-436 299.5,-457 663.5,-457 663.5,-436 299.5,-436"/>
<text text-anchor="start" x="420" y="-442.8" font-family="Times,serif" font-size="14.00">spatial_velocities</text>
<polygon fill="none" stroke="black" points="32.5,-415 32.5,-436 299.5,-436 299.5,-415 32.5,-415"/>
<text text-anchor="start" x="132.5" y="-421.8" font-family="Times,serif" font-size="14.00">actuation</text>
<polygon fill="none" stroke="black" points="299.5,-415 299.5,-436 663.5,-436 663.5,-415 299.5,-415"/>
<text text-anchor="start" x="406.5" y="-421.8" font-family="Times,serif" font-size="14.00">spatial_accelerations</text>
<polygon fill="none" stroke="black" points="32.5,-394 32.5,-415 299.5,-415 299.5,-394 32.5,-394"/>
<text text-anchor="start" x="41" y="-400.8" font-family="Times,serif" font-size="14.00" fill="grey">WorldModelInstance_desired_state</text>
<polygon fill="none" stroke="black" points="299.5,-394 299.5,-415 663.5,-415 663.5,-394 299.5,-394"/>
<text text-anchor="start" x="392.5" y="-400.8" font-family="Times,serif" font-size="14.00">generalized_acceleration</text>
<polygon fill="none" stroke="black" points="32.5,-373 32.5,-394 299.5,-394 299.5,-373 32.5,-373"/>
<text text-anchor="start" x="35.5" y="-379.8" font-family="Times,serif" font-size="14.00" fill="grey">DefaultModelInstance_desired_state</text>
<polygon fill="none" stroke="black" points="299.5,-373 299.5,-394 663.5,-394 663.5,-373 299.5,-373"/>
<text text-anchor="start" x="386.5" y="-379.8" font-family="Times,serif" font-size="14.00" fill="grey">WorldModelInstance_state</text>
<polygon fill="none" stroke="black" points="32.5,-352 32.5,-373 299.5,-373 299.5,-352 32.5,-352"/>
<text text-anchor="start" x="44.5" y="-358.8" font-family="Times,serif" font-size="14.00" fill="grey">KneedCompassGait_desired_state</text>
<polygon fill="none" stroke="black" points="299.5,-352 299.5,-373 663.5,-373 663.5,-352 299.5,-352"/>
<text text-anchor="start" x="316" y="-358.8" font-family="Times,serif" font-size="14.00" fill="grey">WorldModelInstance_generalized_acceleration</text>
<polygon fill="none" stroke="black" points="32.5,-331 32.5,-352 299.5,-352 299.5,-331 32.5,-331"/>
<text text-anchor="start" x="73" y="-337.8" font-family="Times,serif" font-size="14.00">applied_generalized_force</text>
<polygon fill="none" stroke="black" points="299.5,-331 299.5,-352 663.5,-352 663.5,-331 299.5,-331"/>
<text text-anchor="start" x="381" y="-337.8" font-family="Times,serif" font-size="14.00" fill="grey">DefaultModelInstance_state</text>
<polygon fill="none" stroke="black" points="32.5,-310 32.5,-331 299.5,-331 299.5,-310 32.5,-310"/>
<text text-anchor="start" x="90.5" y="-316.8" font-family="Times,serif" font-size="14.00">applied_spatial_force</text>
<polygon fill="none" stroke="black" points="299.5,-310 299.5,-331 663.5,-331 663.5,-310 299.5,-310"/>
<text text-anchor="start" x="310.5" y="-316.8" font-family="Times,serif" font-size="14.00" fill="grey">DefaultModelInstance_generalized_acceleration</text>
<polyline fill="none" stroke="grey" points="32.5,-310 32.5,-163 299.5,-163 "/>
<polygon fill="none" stroke="black" points="299.5,-289 299.5,-310 663.5,-310 663.5,-289 299.5,-289"/>
<text text-anchor="start" x="390" y="-295.8" font-family="Times,serif" font-size="14.00">KneedCompassGait_state</text>
<polygon fill="none" stroke="black" points="299.5,-268 299.5,-289 663.5,-289 663.5,-268 299.5,-268"/>
<text text-anchor="start" x="319.5" y="-274.8" font-family="Times,serif" font-size="14.00">KneedCompassGait_generalized_acceleration</text>
<polygon fill="none" stroke="black" points="299.5,-247 299.5,-268 663.5,-268 663.5,-247 299.5,-247"/>
<text text-anchor="start" x="308" y="-253.8" font-family="Times,serif" font-size="14.00" fill="grey">WorldModelInstance_generalized_contact_forces</text>
<polygon fill="none" stroke="black" points="299.5,-226 299.5,-247 663.5,-247 663.5,-226 299.5,-226"/>
<text text-anchor="start" x="302.5" y="-232.8" font-family="Times,serif" font-size="14.00" fill="grey">DefaultModelInstance_generalized_contact_forces</text>
<polygon fill="none" stroke="black" points="299.5,-205 299.5,-226 663.5,-226 663.5,-205 299.5,-205"/>
<text text-anchor="start" x="311.5" y="-211.8" font-family="Times,serif" font-size="14.00">KneedCompassGait_generalized_contact_forces</text>
<polygon fill="none" stroke="black" points="299.5,-184 299.5,-205 663.5,-205 663.5,-184 299.5,-184"/>
<text text-anchor="start" x="427" y="-190.8" font-family="Times,serif" font-size="14.00">reaction_forces</text>
<polygon fill="none" stroke="black" points="299.5,-163 299.5,-184 663.5,-184 663.5,-163 299.5,-163"/>
<text text-anchor="start" x="427" y="-169.8" font-family="Times,serif" font-size="14.00">contact_results</text>
</g>
<!-- s3 -->
<g id="node2" class="node">
<title>s3</title>
<polygon fill="none" stroke="black" points="715.5,-517 715.5,-551 908.5,-551 908.5,-517 715.5,-517"/>
<text text-anchor="start" x="764" y="-537.8" font-family="Times,serif" font-weight="bold" font-size="14.00">SceneGraph</text>
<text text-anchor="start" x="741.5" y="-523.8" font-family="Times,serif" font-size="14.00">name=scene_graph</text>
<polygon fill="none" stroke="black" points="715.5,-496 715.5,-517 860.5,-517 860.5,-496 715.5,-496"/>
<text text-anchor="start" x="749.5" y="-502.8" font-family="Times,serif" font-size="14.00">plant_pose</text>
<polygon fill="none" stroke="black" points="860.5,-475 860.5,-517 908.5,-517 908.5,-475 860.5,-475"/>
<text text-anchor="start" x="863.5" y="-492.3" font-family="Times,serif" font-size="14.00">query</text>
<polygon fill="none" stroke="black" points="715.5,-475 715.5,-496 860.5,-496 860.5,-475 715.5,-475"/>
<text text-anchor="start" x="718.5" y="-481.8" font-family="Times,serif" font-size="14.00">plant_configuration</text>
</g>
<!-- s2&#45;&gt;s3 -->
<g id="edge5" class="edge">
<title>s2:e&#45;&gt;s3:w</title>
<path fill="none" stroke="black" d="M664.5,-510C682.96,-510 689.85,-507.26 704.33,-506.31"/>
<polygon fill="black" stroke="black" points="704.61,-509.81 714.5,-506 704.4,-502.81 704.61,-509.81"/>
</g>
<!-- s88 -->
<g id="node5" class="node">
<title>s88</title>
<polygon fill="none" stroke="black" points="743.5,-192 743.5,-213 879.5,-213 879.5,-192 743.5,-192"/>
<text text-anchor="start" x="749" y="-199.8" font-family="Times,serif" font-weight="bold" font-size="14.00">landing.landing</text>
<polygon fill="none" stroke="black" points="743.5,-171 743.5,-192 818.5,-192 818.5,-171 743.5,-171"/>
<text text-anchor="start" x="776.5" y="-177.8" font-family="Times,serif" font-size="14.00">x</text>
<polygon fill="none" stroke="black" points="818.5,-129 818.5,-192 879.5,-192 879.5,-129 818.5,-129"/>
<text text-anchor="start" x="821.5" y="-156.8" font-family="Times,serif" font-size="14.00">comtraj</text>
<polygon fill="none" stroke="black" points="743.5,-150 743.5,-171 818.5,-171 818.5,-150 743.5,-150"/>
<text text-anchor="start" x="750.5" y="-156.8" font-family="Times,serif" font-size="14.00">com_des</text>
<polygon fill="none" stroke="black" points="743.5,-129 743.5,-150 818.5,-150 818.5,-129 743.5,-129"/>
<text text-anchor="start" x="746.5" y="-135.8" font-family="Times,serif" font-size="14.00">torso_des</text>
</g>
<!-- s2&#45;&gt;s88 -->
<g id="edge2" class="edge">
<title>s2:e&#45;&gt;s88:w</title>
<path fill="none" stroke="black" d="M664.5,-489C731.18,-489 678.36,-213.53 732.44,-184.47"/>
<polygon fill="black" stroke="black" points="733.62,-187.78 742.5,-182 731.95,-180.99 733.62,-187.78"/>
</g>
<!-- s90 -->
<g id="node6" class="node">
<title>s90</title>
<polygon fill="none" stroke="black" points="1065,-247 1065,-268 1460,-268 1460,-247 1065,-247"/>
<text text-anchor="start" x="1068" y="-254.8" font-family="Times,serif" font-weight="bold" font-size="14.00">osc_modified.OperationalSpaceWalkingController</text>
<polygon fill="none" stroke="black" points="1065,-226 1065,-247 1287,-247 1287,-226 1065,-226"/>
<text text-anchor="start" x="1171.5" y="-232.8" font-family="Times,serif" font-size="14.00">x</text>
<polygon fill="none" stroke="black" points="1287,-226 1287,-247 1460,-247 1460,-226 1287,-226"/>
<text text-anchor="start" x="1368.5" y="-232.8" font-family="Times,serif" font-size="14.00">u</text>
<polygon fill="none" stroke="black" points="1065,-205 1065,-226 1287,-226 1287,-205 1065,-205"/>
<text text-anchor="start" x="1145" y="-211.8" font-family="Times,serif" font-size="14.00">com_traj</text>
<polygon fill="none" stroke="black" points="1287,-205 1287,-226 1460,-226 1460,-205 1287,-205"/>
<text text-anchor="start" x="1346" y="-211.8" font-family="Times,serif" font-size="14.00">metrics</text>
<polygon fill="none" stroke="black" points="1065,-184 1065,-205 1287,-205 1287,-184 1065,-184"/>
<text text-anchor="start" x="1123.5" y="-190.8" font-family="Times,serif" font-size="14.00">base_joint_traj</text>
<polyline fill="none" stroke="grey" points="1287,-184 1460,-184 1460,-205 "/>
</g>
<!-- s2&#45;&gt;s90 -->
<g id="edge9" class="edge">
<title>s2:e&#45;&gt;s90:w</title>
<path fill="none" stroke="black" d="M664.5,-489C686.88,-489 686.53,-471.05 707,-462 795.07,-423.08 834.29,-455.93 916,-405 997.48,-354.21 966.87,-245.03 1054,-237.42"/>
<polygon fill="black" stroke="black" points="1054.16,-240.92 1064,-237 1053.86,-233.92 1054.16,-240.92"/>
</g>
<!-- s3&#45;&gt;s2 -->
<g id="edge7" class="edge">
<title>s3:e&#45;&gt;s2:w</title>
<path fill="none" stroke="black" d="M909.5,-496C920.62,-496 916.52,-478.7 908.5,-471 892.36,-455.49 725.6,-458.54 707,-471 672.06,-494.4 705.94,-535.1 671,-558.5 612.06,-597.98 83.18,-608.15 32.5,-558.5 20.11,-546.36 13.05,-522.35 22,-513.44"/>
<polygon fill="black" stroke="black" points="23.29,-516.69 31.5,-510 20.91,-510.11 23.29,-516.69"/>
</g>
<!-- s93 -->
<g id="node8" class="node">
<title>s93</title>
<polygon fill="none" stroke="black" points="1126,-505 1126,-553 1399,-553 1399,-505 1126,-505"/>
<text text-anchor="start" x="1189" y="-539.8" font-family="Times,serif" font-weight="bold" font-size="14.00">MeshcatVisualizer</text>
<text text-anchor="start" x="1129" y="-525.8" font-family="Times,serif" font-size="14.00">name=meshcat_visualizer(visualizer)</text>
<text text-anchor="start" x="1181" y="-511.8" font-family="Times,serif" font-size="14.00">path=/drake/visualizer</text>
<polygon fill="none" stroke="black" points="1126,-484 1126,-505 1308,-505 1308,-484 1126,-484"/>
<text text-anchor="start" x="1171" y="-490.8" font-family="Times,serif" font-size="14.00">query_object</text>
<polyline fill="none" stroke="grey" points="1308,-484 1399,-484 1399,-505 "/>
</g>
<!-- s3&#45;&gt;s93 -->
<g id="edge13" class="edge">
<title>s3:e&#45;&gt;s93:w</title>
<path fill="none" stroke="black" d="M909.5,-496C1001.82,-496 1027.39,-494.14 1114.89,-494.01"/>
<polygon fill="black" stroke="black" points="1115,-497.51 1125,-494 1115,-490.51 1115,-497.51"/>
</g>
<!-- s94 -->
<g id="node10" class="node">
<title>s94</title>
<polygon fill="none" stroke="black" points="960,-424 960,-458 1564,-458 1564,-424 960,-424"/>
<text text-anchor="start" x="963" y="-444.8" font-family="Times,serif" font-weight="bold" font-size="14.00">pydrake.systems.planar_scenegraph_visualizer.PlanarSceneGraphVisualizer</text>
<text text-anchor="start" x="1131" y="-430.8" font-family="Times,serif" font-size="14.00">name=planar_scenegraph_visualizer</text>
<polygon fill="none" stroke="black" points="960,-403 960,-424 1320,-424 1320,-403 960,-403"/>
<text text-anchor="start" x="1081.5" y="-409.8" font-family="Times,serif" font-size="14.00">geometry_query</text>
<polyline fill="none" stroke="grey" points="1320,-403 1564,-403 1564,-424 "/>
</g>
<!-- s3&#45;&gt;s94 -->
<g id="edge12" class="edge">
<title>s3:e&#45;&gt;s94:w</title>
<path fill="none" stroke="black" d="M909.5,-496C948.42,-496 922.18,-427.83 948.88,-415.05"/>
<polygon fill="black" stroke="black" points="949.9,-418.42 959,-413 948.5,-411.56 949.9,-418.42"/>
</g>
<!-- s86 -->
<g id="node3" class="node">
<title>s86</title>
<polygon fill="none" stroke="black" points="256.5,-49 256.5,-70 439.5,-70 439.5,-49 256.5,-49"/>
<text text-anchor="start" x="259.5" y="-56.8" font-family="Times,serif" font-weight="bold" font-size="14.00">ConstantVectorSource</text>
<polyline fill="none" stroke="grey" points="256.5,-49 256.5,-28 338.5,-28 "/>
<polygon fill="none" stroke="black" points="338.5,-28 338.5,-49 439.5,-49 439.5,-28 338.5,-28"/>
<text text-anchor="start" x="380" y="-34.8" font-family="Times,serif" font-size="14.00">y0</text>
</g>
<!-- s86&#45;&gt;s88 -->
<g id="edge4" class="edge">
<title>s86:e&#45;&gt;s88:w</title>
<path fill="none" stroke="black" d="M440.5,-38C544.88,-38 576.06,-39.62 671,-83 704.27,-98.2 702.81,-131.84 732.29,-138.02"/>
<polygon fill="black" stroke="black" points="732.21,-141.53 742.5,-139 732.88,-134.56 732.21,-141.53"/>
</g>
<!-- s86&#45;&gt;s90 -->
<g id="edge11" class="edge">
<title>s86:e&#45;&gt;s90:w</title>
<path fill="none" stroke="black" d="M440.5,-38C654.66,-38 712.97,-47.86 916,-116 983.19,-138.55 989.2,-188.97 1054,-193.65"/>
<polygon fill="black" stroke="black" points="1053.88,-197.15 1064,-194 1054.13,-190.15 1053.88,-197.15"/>
</g>
<!-- s87 -->
<g id="node4" class="node">
<title>s87</title>
<polygon fill="none" stroke="black" points="256.5,-117 256.5,-138 439.5,-138 439.5,-117 256.5,-117"/>
<text text-anchor="start" x="259.5" y="-124.8" font-family="Times,serif" font-weight="bold" font-size="14.00">ConstantVectorSource</text>
<polyline fill="none" stroke="grey" points="256.5,-117 256.5,-96 338.5,-96 "/>
<polygon fill="none" stroke="black" points="338.5,-96 338.5,-117 439.5,-117 439.5,-96 338.5,-96"/>
<text text-anchor="start" x="380" y="-102.8" font-family="Times,serif" font-size="14.00">y0</text>
</g>
<!-- s87&#45;&gt;s88 -->
<g id="edge3" class="edge">
<title>s87:e&#45;&gt;s88:w</title>
<path fill="none" stroke="black" d="M440.5,-106C505.48,-106 659.01,-155.06 732.29,-159.66"/>
<polygon fill="black" stroke="black" points="732.39,-163.16 742.5,-160 732.62,-156.16 732.39,-163.16"/>
</g>
<!-- s88&#45;&gt;s90 -->
<g id="edge10" class="edge">
<title>s88:e&#45;&gt;s90:w</title>
<path fill="none" stroke="black" d="M880.5,-160C962.15,-160 977.65,-210.58 1053.88,-214.73"/>
<polygon fill="black" stroke="black" points="1053.91,-218.23 1064,-215 1054.1,-211.23 1053.91,-218.23"/>
</g>
<!-- s90&#45;&gt;s2 -->
<g id="edge8" class="edge">
<title>s90:e&#45;&gt;s2:w</title>
<path fill="none" stroke="black" d="M1461,-237C1476.56,-237 1469.87,-259.97 1460,-272 1242.28,-537.54 959.48,-212.26 707,-445 668.09,-480.87 713.7,-527.24 671,-558.5 613.75,-600.4 82.85,-608.48 32.5,-558.5 14.13,-540.27 4.53,-451.73 22.47,-430.56"/>
<polygon fill="black" stroke="black" points="24.15,-433.63 31.5,-426 21,-427.38 24.15,-433.63"/>
</g>
<!-- s92 -->
<g id="node7" class="node">
<title>s92</title>
<polygon fill="none" stroke="black" points="1616.5,-226 1616.5,-247 1737.5,-247 1737.5,-226 1616.5,-226"/>
<text text-anchor="start" x="1619.5" y="-233.8" font-family="Times,serif" font-weight="bold" font-size="14.00">VectorLogSink</text>
<polygon fill="none" stroke="black" points="1616.5,-205 1616.5,-226 1692.5,-226 1692.5,-205 1616.5,-205"/>
<text text-anchor="start" x="1638.5" y="-211.8" font-family="Times,serif" font-size="14.00">data</text>
<polyline fill="none" stroke="grey" points="1692.5,-205 1737.5,-205 1737.5,-226 "/>
</g>
<!-- s90&#45;&gt;s92 -->
<g id="edge6" class="edge">
<title>s90:e&#45;&gt;s92:w</title>
<path fill="none" stroke="black" d="M1461,-215C1526.18,-215 1544.96,-215 1605.42,-215"/>
<polygon fill="black" stroke="black" points="1605.5,-218.5 1615.5,-215 1605.5,-211.5 1605.5,-218.5"/>
</g>
<!-- meshcat_in -->
<g id="node9" class="node">
<title>meshcat_in</title>
<ellipse fill="none" stroke="magenta" cx="1676.5" cy="-519" rx="50.09" ry="18"/>
<text text-anchor="middle" x="1676.5" y="-515.3" font-family="Times,serif" font-size="14.00">Meshcat</text>
</g>
<!-- s93&#45;&gt;meshcat_in -->
<g id="edge1" class="edge">
<title>s93:e&#45;&gt;meshcat_in</title>
<path fill="none" stroke="magenta" stroke-dasharray="5,2" d="M1408,-519C1479.55,-519 1561.87,-519 1616.08,-519"/>
<polygon fill="magenta" stroke="magenta" points="1616.2,-522.5 1626.2,-519 1616.2,-515.5 1616.2,-522.5"/>
</g>
</g>
</svg>
