<?xml version="1.0" encoding="UTF-8" standalone="no"?>
<!DOCTYPE svg PUBLIC "-//W3C//DTD SVG 1.1//EN"
 "http://www.w3.org/Graphics/SVG/1.1/DTD/svg11.dtd">
<!-- Generated by graphviz version 2.43.0 (0)
 -->
<!-- Title: _113 Pages: 1 -->
<svg width="1409pt" height="617pt"
 viewBox="0.00 0.00 1409.09 617.00" xmlns="http://www.w3.org/2000/svg" xmlns:xlink="http://www.w3.org/1999/xlink">
<g id="graph0" class="graph" transform="scale(1 1) rotate(0) translate(4 613)">
<title>_113</title>
<polygon fill="white" stroke="transparent" points="-4,4 -4,-613 1405.09,-613 1405.09,4 -4,4"/>
<g id="clust1" class="cluster">
<title>cluster113diagram</title>
<polygon fill="none" stroke="black" points="8,-8 8,-601 1393.09,-601 1393.09,-8 8,-8"/>
<text text-anchor="start" x="666.55" y="-582.3" font-family="Times,serif" font-weight="bold" font-size="14.00">Diagram</text>
</g>
<g id="clust2" class="cluster">
<title>cluster113subsystems</title>
<polygon fill="none" stroke="white" points="16,-16 16,-562 1385.09,-562 1385.09,-16 16,-16"/>
</g>
<!-- s2 -->
<g id="node1" class="node">
<title>s2</title>
<polygon fill="none" stroke="black" points="32.5,-516 32.5,-550 663.5,-550 663.5,-516 32.5,-516"/>
<text text-anchor="start" x="286.5" y="-536.8" font-family="Times,serif" font-weight="bold" font-size="14.00">MultibodyPlant</text>
<text text-anchor="start" x="304" y="-522.8" font-family="Times,serif" font-size="14.00">name=plant</text>
<polygon fill="none" stroke="black" points="32.5,-495 32.5,-516 299.5,-516 299.5,-495 32.5,-495"/>
<text text-anchor="start" x="107.5" y="-501.8" font-family="Times,serif" font-size="14.00">geometry_query</text>
<polygon fill="none" stroke="black" points="299.5,-495 299.5,-516 663.5,-516 663.5,-495 299.5,-495"/>
<text text-anchor="start" x="427" y="-501.8" font-family="Times,serif" font-size="14.00">geometry_pose</text>
<polygon fill="none" stroke="black" points="32.5,-474 32.5,-495 299.5,-495 299.5,-474 32.5,-474"/>
<text text-anchor="start" x="55.5" y="-480.8" font-family="Times,serif" font-size="14.00" fill="grey">WorldModelInstance_actuation</text>
<polygon fill="none" stroke="black" points="299.5,-474 299.5,-495 663.5,-495 663.5,-474 299.5,-474"/>
<text text-anchor="start" x="463" y="-480.8" font-family="Times,serif" font-size="14.00">state</text>
<polygon fill="none" stroke="black" points="32.5,-453 32.5,-474 299.5,-474 299.5,-453 32.5,-453"/>
<text text-anchor="start" x="50" y="-459.8" font-family="Times,serif" font-size="14.00" fill="grey">DefaultModelInstance_actuation</text>
<polygon fill="none" stroke="black" points="299.5,-453 299.5,-474 663.5,-474 663.5,-453 299.5,-453"/>
<text text-anchor="start" x="440.5" y="-459.8" font-family="Times,serif" font-size="14.00">body_poses</text>
<polygon fill="none" stroke="black" points="32.5,-432 32.5,-453 299.5,-453 299.5,-432 32.5,-432"/>
<text text-anchor="start" x="59" y="-438.8" font-family="Times,serif" font-size="14.00">KneedCompassGait_actuation</text>
<polygon fill="none" stroke="black" points="299.5,-432 299.5,-453 663.5,-453 663.5,-432 299.5,-432"/>
<text text-anchor="start" x="420" y="-438.8" font-family="Times,serif" font-size="14.00">spatial_velocities</text>
<polygon fill="none" stroke="black" points="32.5,-411 32.5,-432 299.5,-432 299.5,-411 32.5,-411"/>
<text text-anchor="start" x="132.5" y="-417.8" font-family="Times,serif" font-size="14.00">actuation</text>
<polygon fill="none" stroke="black" points="299.5,-411 299.5,-432 663.5,-432 663.5,-411 299.5,-411"/>
<text text-anchor="start" x="406.5" y="-417.8" font-family="Times,serif" font-size="14.00">spatial_accelerations</text>
<polygon fill="none" stroke="black" points="32.5,-390 32.5,-411 299.5,-411 299.5,-390 32.5,-390"/>
<text text-anchor="start" x="41" y="-396.8" font-family="Times,serif" font-size="14.00" fill="grey">WorldModelInstance_desired_state</text>
<polygon fill="none" stroke="black" points="299.5,-390 299.5,-411 663.5,-411 663.5,-390 299.5,-390"/>
<text text-anchor="start" x="392.5" y="-396.8" font-family="Times,serif" font-size="14.00">generalized_acceleration</text>
<polygon fill="none" stroke="black" points="32.5,-369 32.5,-390 299.5,-390 299.5,-369 32.5,-369"/>
<text text-anchor="start" x="35.5" y="-375.8" font-family="Times,serif" font-size="14.00" fill="grey">DefaultModelInstance_desired_state</text>
<polygon fill="none" stroke="black" points="299.5,-369 299.5,-390 663.5,-390 663.5,-369 299.5,-369"/>
<text text-anchor="start" x="386.5" y="-375.8" font-family="Times,serif" font-size="14.00" fill="grey">WorldModelInstance_state</text>
<polygon fill="none" stroke="black" points="32.5,-348 32.5,-369 299.5,-369 299.5,-348 32.5,-348"/>
<text text-anchor="start" x="44.5" y="-354.8" font-family="Times,serif" font-size="14.00" fill="grey">KneedCompassGait_desired_state</text>
<polygon fill="none" stroke="black" points="299.5,-348 299.5,-369 663.5,-369 663.5,-348 299.5,-348"/>
<text text-anchor="start" x="316" y="-354.8" font-family="Times,serif" font-size="14.00" fill="grey">WorldModelInstance_generalized_acceleration</text>
<polygon fill="none" stroke="black" points="32.5,-327 32.5,-348 299.5,-348 299.5,-327 32.5,-327"/>
<text text-anchor="start" x="73" y="-333.8" font-family="Times,serif" font-size="14.00">applied_generalized_force</text>
<polygon fill="none" stroke="black" points="299.5,-327 299.5,-348 663.5,-348 663.5,-327 299.5,-327"/>
<text text-anchor="start" x="381" y="-333.8" font-family="Times,serif" font-size="14.00" fill="grey">DefaultModelInstance_state</text>
<polygon fill="none" stroke="black" points="32.5,-306 32.5,-327 299.5,-327 299.5,-306 32.5,-306"/>
<text text-anchor="start" x="90.5" y="-312.8" font-family="Times,serif" font-size="14.00">applied_spatial_force</text>
<polygon fill="none" stroke="black" points="299.5,-306 299.5,-327 663.5,-327 663.5,-306 299.5,-306"/>
<text text-anchor="start" x="310.5" y="-312.8" font-family="Times,serif" font-size="14.00" fill="grey">DefaultModelInstance_generalized_acceleration</text>
<polyline fill="none" stroke="grey" points="32.5,-306 32.5,-159 299.5,-159 "/>
<polygon fill="none" stroke="black" points="299.5,-285 299.5,-306 663.5,-306 663.5,-285 299.5,-285"/>
<text text-anchor="start" x="390" y="-291.8" font-family="Times,serif" font-size="14.00">KneedCompassGait_state</text>
<polygon fill="none" stroke="black" points="299.5,-264 299.5,-285 663.5,-285 663.5,-264 299.5,-264"/>
<text text-anchor="start" x="319.5" y="-270.8" font-family="Times,serif" font-size="14.00">KneedCompassGait_generalized_acceleration</text>
<polygon fill="none" stroke="black" points="299.5,-243 299.5,-264 663.5,-264 663.5,-243 299.5,-243"/>
<text text-anchor="start" x="308" y="-249.8" font-family="Times,serif" font-size="14.00" fill="grey">WorldModelInstance_generalized_contact_forces</text>
<polygon fill="none" stroke="black" points="299.5,-222 299.5,-243 663.5,-243 663.5,-222 299.5,-222"/>
<text text-anchor="start" x="302.5" y="-228.8" font-family="Times,serif" font-size="14.00" fill="grey">DefaultModelInstance_generalized_contact_forces</text>
<polygon fill="none" stroke="black" points="299.5,-201 299.5,-222 663.5,-222 663.5,-201 299.5,-201"/>
<text text-anchor="start" x="311.5" y="-207.8" font-family="Times,serif" font-size="14.00">KneedCompassGait_generalized_contact_forces</text>
<polygon fill="none" stroke="black" points="299.5,-180 299.5,-201 663.5,-201 663.5,-180 299.5,-180"/>
<text text-anchor="start" x="427" y="-186.8" font-family="Times,serif" font-size="14.00">reaction_forces</text>
<polygon fill="none" stroke="black" points="299.5,-159 299.5,-180 663.5,-180 663.5,-159 299.5,-159"/>
<text text-anchor="start" x="427" y="-165.8" font-family="Times,serif" font-size="14.00">contact_results</text>
</g>
<!-- s3 -->
<g id="node2" class="node">
<title>s3</title>
<polygon fill="none" stroke="black" points="715.5,-516 715.5,-550 908.5,-550 908.5,-516 715.5,-516"/>
<text text-anchor="start" x="764" y="-536.8" font-family="Times,serif" font-weight="bold" font-size="14.00">SceneGraph</text>
<text text-anchor="start" x="741.5" y="-522.8" font-family="Times,serif" font-size="14.00">name=scene_graph</text>
<polygon fill="none" stroke="black" points="715.5,-495 715.5,-516 860.5,-516 860.5,-495 715.5,-495"/>
<text text-anchor="start" x="749.5" y="-501.8" font-family="Times,serif" font-size="14.00">plant_pose</text>
<polygon fill="none" stroke="black" points="860.5,-474 860.5,-516 908.5,-516 908.5,-474 860.5,-474"/>
<text text-anchor="start" x="863.5" y="-491.3" font-family="Times,serif" font-size="14.00">query</text>
<polygon fill="none" stroke="black" points="715.5,-474 715.5,-495 860.5,-495 860.5,-474 715.5,-474"/>
<text text-anchor="start" x="718.5" y="-480.8" font-family="Times,serif" font-size="14.00">plant_configuration</text>
</g>
<!-- s2&#45;&gt;s3 -->
<g id="edge2" class="edge">
<title>s2:e&#45;&gt;s3:w</title>
<path fill="none" stroke="black" d="M664.5,-506C682.91,-506 689.87,-505.31 704.35,-505.08"/>
<polygon fill="black" stroke="black" points="704.53,-508.58 714.5,-505 704.47,-501.58 704.53,-508.58"/>
</g>
<!-- s90 -->
<g id="node4" class="node">
<title>s90</title>
<polygon fill="none" stroke="black" points="759.5,-133 759.5,-154 863.5,-154 863.5,-133 759.5,-133"/>
<text text-anchor="start" x="779.5" y="-140.8" font-family="Times,serif" font-weight="bold" font-size="14.00">osc.OSC</text>
<polygon fill="none" stroke="black" points="759.5,-112 759.5,-133 827.5,-133 827.5,-112 759.5,-112"/>
<text text-anchor="start" x="789" y="-118.8" font-family="Times,serif" font-size="14.00">x</text>
<polygon fill="none" stroke="black" points="827.5,-112 827.5,-133 863.5,-133 863.5,-112 827.5,-112"/>
<text text-anchor="start" x="840.5" y="-118.8" font-family="Times,serif" font-size="14.00">u</text>
<polygon fill="none" stroke="black" points="759.5,-91 759.5,-112 827.5,-112 827.5,-91 759.5,-91"/>
<text text-anchor="start" x="762.5" y="-97.8" font-family="Times,serif" font-size="14.00">preflight</text>
<polygon fill="none" stroke="black" points="827.5,-91 827.5,-112 863.5,-112 863.5,-91 827.5,-91"/>
<text text-anchor="start" x="830.5" y="-97.8" font-family="Times,serif" font-size="14.00">logs</text>
<polygon fill="none" stroke="black" points="759.5,-70 759.5,-91 827.5,-91 827.5,-70 759.5,-70"/>
<text text-anchor="start" x="774.5" y="-76.8" font-family="Times,serif" font-size="14.00">flight</text>
<polyline fill="none" stroke="grey" points="827.5,-28 863.5,-28 863.5,-91 "/>
<polygon fill="none" stroke="black" points="759.5,-49 759.5,-70 827.5,-70 827.5,-49 759.5,-49"/>
<text text-anchor="start" x="766.5" y="-55.8" font-family="Times,serif" font-size="14.00">landing</text>
<polygon fill="none" stroke="black" points="759.5,-28 759.5,-49 827.5,-49 827.5,-28 759.5,-28"/>
<text text-anchor="start" x="772" y="-34.8" font-family="Times,serif" font-size="14.00">phase</text>
</g>
<!-- s2&#45;&gt;s90 -->
<g id="edge7" class="edge">
<title>s2:e&#45;&gt;s90:w</title>
<path fill="none" stroke="black" d="M664.5,-485C744.04,-485 681.31,-153.44 748.62,-124.95"/>
<polygon fill="black" stroke="black" points="749.37,-128.37 758.5,-123 748.01,-121.5 749.37,-128.37"/>
</g>
<!-- s3&#45;&gt;s2 -->
<g id="edge4" class="edge">
<title>s3:e&#45;&gt;s2:w</title>
<path fill="none" stroke="black" d="M909.5,-495C929,-495 894.07,-346.36 707,-470 672.94,-492.51 705.06,-531.99 671,-554.5 611.81,-593.62 83.18,-604.15 32.5,-554.5 20.11,-542.36 13.05,-518.35 22,-509.44"/>
<polygon fill="black" stroke="black" points="23.29,-512.69 31.5,-506 20.91,-506.11 23.29,-512.69"/>
</g>
<!-- s93 -->
<g id="node6" class="node">
<title>s93</title>
<polygon fill="none" stroke="black" points="960.5,-501 960.5,-549 1233.5,-549 1233.5,-501 960.5,-501"/>
<text text-anchor="start" x="1023.5" y="-535.8" font-family="Times,serif" font-weight="bold" font-size="14.00">MeshcatVisualizer</text>
<text text-anchor="start" x="963.5" y="-521.8" font-family="Times,serif" font-size="14.00">name=meshcat_visualizer(visualizer)</text>
<text text-anchor="start" x="1015.5" y="-507.8" font-family="Times,serif" font-size="14.00">path=/drake/visualizer</text>
<polygon fill="none" stroke="black" points="960.5,-480 960.5,-501 1142.5,-501 1142.5,-480 960.5,-480"/>
<text text-anchor="start" x="1005.5" y="-486.8" font-family="Times,serif" font-size="14.00">query_object</text>
<polyline fill="none" stroke="grey" points="1142.5,-480 1233.5,-480 1233.5,-501 "/>
</g>
<!-- s3&#45;&gt;s93 -->
<g id="edge6" class="edge">
<title>s3:e&#45;&gt;s93:w</title>
<path fill="none" stroke="black" d="M909.5,-495C927.99,-495 934.83,-491.57 949.32,-490.39"/>
<polygon fill="black" stroke="black" points="949.64,-493.88 959.5,-490 949.37,-486.89 949.64,-493.88"/>
</g>
<!-- s88 -->
<g id="node3" class="node">
<title>s88</title>
<polygon fill="none" stroke="black" points="240.5,-112 240.5,-133 455.5,-133 455.5,-112 240.5,-112"/>
<text text-anchor="start" x="243.5" y="-119.8" font-family="Times,serif" font-weight="bold" font-size="14.00">phase_switch.PhaseSwitch</text>
<polyline fill="none" stroke="grey" points="240.5,-112 240.5,-28 260.5,-28 "/>
<polygon fill="none" stroke="black" points="260.5,-91 260.5,-112 455.5,-112 455.5,-91 260.5,-91"/>
<text text-anchor="start" x="270.5" y="-97.8" font-family="Times,serif" font-size="14.00">OSCPreflight_Trajectory</text>
<polygon fill="none" stroke="black" points="260.5,-70 260.5,-91 455.5,-91 455.5,-70 260.5,-70"/>
<text text-anchor="start" x="278" y="-76.8" font-family="Times,serif" font-size="14.00">OSCLFight_Trajectory</text>
<polygon fill="none" stroke="black" points="260.5,-49 260.5,-70 455.5,-70 455.5,-49 260.5,-49"/>
<text text-anchor="start" x="273" y="-55.8" font-family="Times,serif" font-size="14.00">OSCLanding_Trajectory</text>
<polygon fill="none" stroke="black" points="260.5,-28 260.5,-49 455.5,-49 455.5,-28 260.5,-28"/>
<text text-anchor="start" x="336.5" y="-34.8" font-family="Times,serif" font-size="14.00">Phase</text>
</g>
<!-- s88&#45;&gt;s90 -->
<g id="edge8" class="edge">
<title>s88:e&#45;&gt;s90:w</title>
<path fill="none" stroke="black" d="M456.5,-102C587.31,-102 622.51,-102 748.47,-102"/>
<polygon fill="black" stroke="black" points="748.5,-105.5 758.5,-102 748.5,-98.5 748.5,-105.5"/>
</g>
<!-- s88&#45;&gt;s90 -->
<g id="edge9" class="edge">
<title>s88:e&#45;&gt;s90:w</title>
<path fill="none" stroke="black" d="M456.5,-80C587.31,-80 622.51,-80 748.47,-80"/>
<polygon fill="black" stroke="black" points="748.5,-83.5 758.5,-80 748.5,-76.5 748.5,-83.5"/>
</g>
<!-- s88&#45;&gt;s90 -->
<g id="edge10" class="edge">
<title>s88:e&#45;&gt;s90:w</title>
<path fill="none" stroke="black" d="M456.5,-59C587.31,-59 622.51,-59 748.47,-59"/>
<polygon fill="black" stroke="black" points="748.5,-62.5 758.5,-59 748.5,-55.5 748.5,-62.5"/>
</g>
<!-- s88&#45;&gt;s90 -->
<g id="edge11" class="edge">
<title>s88:e&#45;&gt;s90:w</title>
<path fill="none" stroke="black" d="M456.5,-38C587.31,-38 622.51,-38 748.47,-38"/>
<polygon fill="black" stroke="black" points="748.5,-41.5 758.5,-38 748.5,-34.5 748.5,-41.5"/>
</g>
<!-- s90&#45;&gt;s2 -->
<g id="edge5" class="edge">
<title>s90:e&#45;&gt;s2:w</title>
<path fill="none" stroke="black" d="M864.5,-123C947.37,-123 740.95,-385.41 707,-461 688.76,-501.62 707.71,-529.3 671,-554.5 612.51,-594.65 82.85,-604.48 32.5,-554.5 14.13,-536.27 4.53,-447.73 22.47,-426.56"/>
<polygon fill="black" stroke="black" points="24.15,-429.63 31.5,-422 21,-423.38 24.15,-429.63"/>
</g>
<!-- s92 -->
<g id="node5" class="node">
<title>s92</title>
<polygon fill="none" stroke="black" points="1036.5,-113 1036.5,-134 1157.5,-134 1157.5,-113 1036.5,-113"/>
<text text-anchor="start" x="1039.5" y="-120.8" font-family="Times,serif" font-weight="bold" font-size="14.00">VectorLogSink</text>
<polygon fill="none" stroke="black" points="1036.5,-92 1036.5,-113 1112.5,-113 1112.5,-92 1036.5,-92"/>
<text text-anchor="start" x="1058.5" y="-98.8" font-family="Times,serif" font-size="14.00">data</text>
<polyline fill="none" stroke="grey" points="1112.5,-92 1157.5,-92 1157.5,-113 "/>
</g>
<!-- s90&#45;&gt;s92 -->
<g id="edge3" class="edge">
<title>s90:e&#45;&gt;s92:w</title>
<path fill="none" stroke="black" d="M864.5,-102C936.94,-102 957.59,-102 1025.18,-102"/>
<polygon fill="black" stroke="black" points="1025.5,-105.5 1035.5,-102 1025.5,-98.5 1025.5,-105.5"/>
</g>
<!-- meshcat_in -->
<g id="node7" class="node">
<title>meshcat_in</title>
<ellipse fill="none" stroke="magenta" cx="1327.05" cy="-515" rx="50.09" ry="18"/>
<text text-anchor="middle" x="1327.05" y="-511.3" font-family="Times,serif" font-size="14.00">Meshcat</text>
</g>
<!-- s93&#45;&gt;meshcat_in -->
<g id="edge1" class="edge">
<title>s93:e&#45;&gt;meshcat_in</title>
<path fill="none" stroke="magenta" stroke-dasharray="5,2" d="M1241,-515C1249.19,-515 1257.82,-515 1266.32,-515"/>
<polygon fill="magenta" stroke="magenta" points="1266.58,-518.5 1276.58,-515 1266.58,-511.5 1266.58,-518.5"/>
</g>
</g>
</svg>
