<?xml version="1.0" encoding="UTF-8" standalone="no"?>
<!DOCTYPE svg PUBLIC "-//W3C//DTD SVG 1.1//EN"
 "http://www.w3.org/Graphics/SVG/1.1/DTD/svg11.dtd">
<!-- Generated by graphviz version 2.43.0 (0)
 -->
<!-- Title: _122 Pages: 1 -->
<svg width="1893pt" height="840pt"
 viewBox="0.00 0.00 1893.00 839.86" xmlns="http://www.w3.org/2000/svg" xmlns:xlink="http://www.w3.org/1999/xlink">
<g id="graph0" class="graph" transform="scale(1 1) rotate(0) translate(4 835.86)">
<title>_122</title>
<polygon fill="white" stroke="transparent" points="-4,4 -4,-835.86 1889,-835.86 1889,4 -4,4"/>
<g id="clust1" class="cluster">
<title>cluster122diagram</title>
<polygon fill="none" stroke="black" points="8,-8 8,-809 1877,-809 1877,-8 8,-8"/>
<text text-anchor="start" x="908.5" y="-790.3" font-family="Times,serif" font-weight="bold" font-size="14.00">Diagram</text>
</g>
<g id="clust2" class="cluster">
<title>cluster122subsystems</title>
<polygon fill="none" stroke="white" points="16,-16 16,-770 1869,-770 1869,-16 16,-16"/>
</g>
<!-- s2 -->
<g id="node1" class="node">
<title>s2</title>
<polygon fill="none" stroke="black" points="32.5,-724 32.5,-758 663.5,-758 663.5,-724 32.5,-724"/>
<text text-anchor="start" x="286.5" y="-744.8" font-family="Times,serif" font-weight="bold" font-size="14.00">MultibodyPlant</text>
<text text-anchor="start" x="304" y="-730.8" font-family="Times,serif" font-size="14.00">name=plant</text>
<polygon fill="none" stroke="black" points="32.5,-703 32.5,-724 299.5,-724 299.5,-703 32.5,-703"/>
<text text-anchor="start" x="107.5" y="-709.8" font-family="Times,serif" font-size="14.00">geometry_query</text>
<polygon fill="none" stroke="black" points="299.5,-703 299.5,-724 663.5,-724 663.5,-703 299.5,-703"/>
<text text-anchor="start" x="427" y="-709.8" font-family="Times,serif" font-size="14.00">geometry_pose</text>
<polygon fill="none" stroke="black" points="32.5,-682 32.5,-703 299.5,-703 299.5,-682 32.5,-682"/>
<text text-anchor="start" x="55.5" y="-688.8" font-family="Times,serif" font-size="14.00" fill="grey">WorldModelInstance_actuation</text>
<polygon fill="none" stroke="black" points="299.5,-682 299.5,-703 663.5,-703 663.5,-682 299.5,-682"/>
<text text-anchor="start" x="463" y="-688.8" font-family="Times,serif" font-size="14.00">state</text>
<polygon fill="none" stroke="black" points="32.5,-661 32.5,-682 299.5,-682 299.5,-661 32.5,-661"/>
<text text-anchor="start" x="50" y="-667.8" font-family="Times,serif" font-size="14.00" fill="grey">DefaultModelInstance_actuation</text>
<polygon fill="none" stroke="black" points="299.5,-661 299.5,-682 663.5,-682 663.5,-661 299.5,-661"/>
<text text-anchor="start" x="440.5" y="-667.8" font-family="Times,serif" font-size="14.00">body_poses</text>
<polygon fill="none" stroke="black" points="32.5,-640 32.5,-661 299.5,-661 299.5,-640 32.5,-640"/>
<text text-anchor="start" x="59" y="-646.8" font-family="Times,serif" font-size="14.00">KneedCompassGait_actuation</text>
<polygon fill="none" stroke="black" points="299.5,-640 299.5,-661 663.5,-661 663.5,-640 299.5,-640"/>
<text text-anchor="start" x="420" y="-646.8" font-family="Times,serif" font-size="14.00">spatial_velocities</text>
<polygon fill="none" stroke="black" points="32.5,-619 32.5,-640 299.5,-640 299.5,-619 32.5,-619"/>
<text text-anchor="start" x="132.5" y="-625.8" font-family="Times,serif" font-size="14.00">actuation</text>
<polygon fill="none" stroke="black" points="299.5,-619 299.5,-640 663.5,-640 663.5,-619 299.5,-619"/>
<text text-anchor="start" x="406.5" y="-625.8" font-family="Times,serif" font-size="14.00">spatial_accelerations</text>
<polygon fill="none" stroke="black" points="32.5,-598 32.5,-619 299.5,-619 299.5,-598 32.5,-598"/>
<text text-anchor="start" x="41" y="-604.8" font-family="Times,serif" font-size="14.00" fill="grey">WorldModelInstance_desired_state</text>
<polygon fill="none" stroke="black" points="299.5,-598 299.5,-619 663.5,-619 663.5,-598 299.5,-598"/>
<text text-anchor="start" x="392.5" y="-604.8" font-family="Times,serif" font-size="14.00">generalized_acceleration</text>
<polygon fill="none" stroke="black" points="32.5,-577 32.5,-598 299.5,-598 299.5,-577 32.5,-577"/>
<text text-anchor="start" x="35.5" y="-583.8" font-family="Times,serif" font-size="14.00" fill="grey">DefaultModelInstance_desired_state</text>
<polygon fill="none" stroke="black" points="299.5,-577 299.5,-598 663.5,-598 663.5,-577 299.5,-577"/>
<text text-anchor="start" x="386.5" y="-583.8" font-family="Times,serif" font-size="14.00" fill="grey">WorldModelInstance_state</text>
<polygon fill="none" stroke="black" points="32.5,-556 32.5,-577 299.5,-577 299.5,-556 32.5,-556"/>
<text text-anchor="start" x="44.5" y="-562.8" font-family="Times,serif" font-size="14.00" fill="grey">KneedCompassGait_desired_state</text>
<polygon fill="none" stroke="black" points="299.5,-556 299.5,-577 663.5,-577 663.5,-556 299.5,-556"/>
<text text-anchor="start" x="316" y="-562.8" font-family="Times,serif" font-size="14.00" fill="grey">WorldModelInstance_generalized_acceleration</text>
<polygon fill="none" stroke="black" points="32.5,-535 32.5,-556 299.5,-556 299.5,-535 32.5,-535"/>
<text text-anchor="start" x="73" y="-541.8" font-family="Times,serif" font-size="14.00">applied_generalized_force</text>
<polygon fill="none" stroke="black" points="299.5,-535 299.5,-556 663.5,-556 663.5,-535 299.5,-535"/>
<text text-anchor="start" x="381" y="-541.8" font-family="Times,serif" font-size="14.00" fill="grey">DefaultModelInstance_state</text>
<polygon fill="none" stroke="black" points="32.5,-514 32.5,-535 299.5,-535 299.5,-514 32.5,-514"/>
<text text-anchor="start" x="90.5" y="-520.8" font-family="Times,serif" font-size="14.00">applied_spatial_force</text>
<polygon fill="none" stroke="black" points="299.5,-514 299.5,-535 663.5,-535 663.5,-514 299.5,-514"/>
<text text-anchor="start" x="310.5" y="-520.8" font-family="Times,serif" font-size="14.00" fill="grey">DefaultModelInstance_generalized_acceleration</text>
<polyline fill="none" stroke="grey" points="32.5,-514 32.5,-367 299.5,-367 "/>
<polygon fill="none" stroke="black" points="299.5,-493 299.5,-514 663.5,-514 663.5,-493 299.5,-493"/>
<text text-anchor="start" x="390" y="-499.8" font-family="Times,serif" font-size="14.00">KneedCompassGait_state</text>
<polygon fill="none" stroke="black" points="299.5,-472 299.5,-493 663.5,-493 663.5,-472 299.5,-472"/>
<text text-anchor="start" x="319.5" y="-478.8" font-family="Times,serif" font-size="14.00">KneedCompassGait_generalized_acceleration</text>
<polygon fill="none" stroke="black" points="299.5,-451 299.5,-472 663.5,-472 663.5,-451 299.5,-451"/>
<text text-anchor="start" x="308" y="-457.8" font-family="Times,serif" font-size="14.00" fill="grey">WorldModelInstance_generalized_contact_forces</text>
<polygon fill="none" stroke="black" points="299.5,-430 299.5,-451 663.5,-451 663.5,-430 299.5,-430"/>
<text text-anchor="start" x="302.5" y="-436.8" font-family="Times,serif" font-size="14.00" fill="grey">DefaultModelInstance_generalized_contact_forces</text>
<polygon fill="none" stroke="black" points="299.5,-409 299.5,-430 663.5,-430 663.5,-409 299.5,-409"/>
<text text-anchor="start" x="311.5" y="-415.8" font-family="Times,serif" font-size="14.00">KneedCompassGait_generalized_contact_forces</text>
<polygon fill="none" stroke="black" points="299.5,-388 299.5,-409 663.5,-409 663.5,-388 299.5,-388"/>
<text text-anchor="start" x="427" y="-394.8" font-family="Times,serif" font-size="14.00">reaction_forces</text>
<polygon fill="none" stroke="black" points="299.5,-367 299.5,-388 663.5,-388 663.5,-367 299.5,-367"/>
<text text-anchor="start" x="427" y="-373.8" font-family="Times,serif" font-size="14.00">contact_results</text>
</g>
<!-- s3 -->
<g id="node2" class="node">
<title>s3</title>
<polygon fill="none" stroke="black" points="715.5,-724 715.5,-758 908.5,-758 908.5,-724 715.5,-724"/>
<text text-anchor="start" x="764" y="-744.8" font-family="Times,serif" font-weight="bold" font-size="14.00">SceneGraph</text>
<text text-anchor="start" x="741.5" y="-730.8" font-family="Times,serif" font-size="14.00">name=scene_graph</text>
<polygon fill="none" stroke="black" points="715.5,-703 715.5,-724 860.5,-724 860.5,-703 715.5,-703"/>
<text text-anchor="start" x="749.5" y="-709.8" font-family="Times,serif" font-size="14.00">plant_pose</text>
<polygon fill="none" stroke="black" points="860.5,-682 860.5,-724 908.5,-724 908.5,-682 860.5,-682"/>
<text text-anchor="start" x="863.5" y="-699.3" font-family="Times,serif" font-size="14.00">query</text>
<polygon fill="none" stroke="black" points="715.5,-682 715.5,-703 860.5,-703 860.5,-682 715.5,-682"/>
<text text-anchor="start" x="718.5" y="-688.8" font-family="Times,serif" font-size="14.00">plant_configuration</text>
</g>
<!-- s2&#45;&gt;s3 -->
<g id="edge5" class="edge">
<title>s2:e&#45;&gt;s3:w</title>
<path fill="none" stroke="black" d="M664.5,-714C682.91,-714 689.87,-713.31 704.35,-713.08"/>
<polygon fill="black" stroke="black" points="704.53,-716.58 714.5,-713 704.47,-709.58 704.53,-716.58"/>
</g>
<!-- s91 -->
<g id="node8" class="node">
<title>s91</title>
<polygon fill="none" stroke="black" points="746.5,-342 746.5,-363 877.5,-363 877.5,-342 746.5,-342"/>
<text text-anchor="start" x="752.5" y="-349.8" font-family="Times,serif" font-weight="bold" font-size="14.00">preflight.dircol</text>
<polygon fill="none" stroke="black" points="746.5,-321 746.5,-342 816.5,-342 816.5,-321 746.5,-321"/>
<text text-anchor="start" x="777" y="-327.8" font-family="Times,serif" font-size="14.00">x</text>
<polygon fill="none" stroke="black" points="816.5,-279 816.5,-342 877.5,-342 877.5,-279 816.5,-279"/>
<text text-anchor="start" x="819.5" y="-306.8" font-family="Times,serif" font-size="14.00">comtraj</text>
<polygon fill="none" stroke="black" points="746.5,-300 746.5,-321 816.5,-321 816.5,-300 746.5,-300"/>
<text text-anchor="start" x="751" y="-306.8" font-family="Times,serif" font-size="14.00">com_des</text>
<polygon fill="none" stroke="black" points="746.5,-279 746.5,-300 816.5,-300 816.5,-279 746.5,-279"/>
<text text-anchor="start" x="749.5" y="-285.8" font-family="Times,serif" font-size="14.00">time_des</text>
</g>
<!-- s2&#45;&gt;s91 -->
<g id="edge6" class="edge">
<title>s2:e&#45;&gt;s91:w</title>
<path fill="none" stroke="black" d="M664.5,-693C743.02,-693 670.44,-363.71 735.39,-334.12"/>
<polygon fill="black" stroke="black" points="736.43,-337.48 745.5,-332 734.99,-330.63 736.43,-337.48"/>
</g>
<!-- s93 -->
<g id="node9" class="node">
<title>s93</title>
<polygon fill="none" stroke="black" points="744.5,-231 744.5,-252 879.5,-252 879.5,-231 744.5,-231"/>
<text text-anchor="start" x="766.5" y="-238.8" font-family="Times,serif" font-weight="bold" font-size="14.00">flight.flight</text>
<polygon fill="none" stroke="black" points="744.5,-210 744.5,-231 847.5,-231 847.5,-210 744.5,-210"/>
<text text-anchor="start" x="791.5" y="-216.8" font-family="Times,serif" font-size="14.00">x</text>
<polygon fill="none" stroke="black" points="847.5,-189 847.5,-231 879.5,-231 879.5,-189 847.5,-189"/>
<text text-anchor="start" x="850.5" y="-206.3" font-family="Times,serif" font-size="14.00">traj</text>
<polygon fill="none" stroke="black" points="744.5,-189 744.5,-210 847.5,-210 847.5,-189 744.5,-189"/>
<text text-anchor="start" x="747.5" y="-195.8" font-family="Times,serif" font-size="14.00">footclearance</text>
</g>
<!-- s2&#45;&gt;s93 -->
<g id="edge9" class="edge">
<title>s2:e&#45;&gt;s93:w</title>
<path fill="none" stroke="black" d="M664.5,-693C712.18,-693 689.09,-310.19 707,-266 715.35,-245.4 717.02,-226.53 733.45,-221.38"/>
<polygon fill="black" stroke="black" points="734.07,-224.83 743.5,-220 733.12,-217.89 734.07,-224.83"/>
</g>
<!-- s95 -->
<g id="node10" class="node">
<title>s95</title>
<polygon fill="none" stroke="black" points="743.5,-140 743.5,-161 879.5,-161 879.5,-140 743.5,-140"/>
<text text-anchor="start" x="749" y="-147.8" font-family="Times,serif" font-weight="bold" font-size="14.00">landing.landing</text>
<polygon fill="none" stroke="black" points="743.5,-119 743.5,-140 818.5,-140 818.5,-119 743.5,-119"/>
<text text-anchor="start" x="776.5" y="-125.8" font-family="Times,serif" font-size="14.00">x</text>
<polygon fill="none" stroke="black" points="818.5,-77 818.5,-140 879.5,-140 879.5,-77 818.5,-77"/>
<text text-anchor="start" x="821.5" y="-104.8" font-family="Times,serif" font-size="14.00">comtraj</text>
<polygon fill="none" stroke="black" points="743.5,-98 743.5,-119 818.5,-119 818.5,-98 743.5,-98"/>
<text text-anchor="start" x="750.5" y="-104.8" font-family="Times,serif" font-size="14.00">com_des</text>
<polygon fill="none" stroke="black" points="743.5,-77 743.5,-98 818.5,-98 818.5,-77 743.5,-77"/>
<text text-anchor="start" x="746.5" y="-83.8" font-family="Times,serif" font-size="14.00">torso_des</text>
</g>
<!-- s2&#45;&gt;s95 -->
<g id="edge11" class="edge">
<title>s2:e&#45;&gt;s95:w</title>
<path fill="none" stroke="black" d="M664.5,-693C722.03,-693 686.49,-230.75 707,-177 714.95,-156.17 716.12,-136.73 732.46,-131.42"/>
<polygon fill="black" stroke="black" points="733.09,-134.87 742.5,-130 732.11,-127.94 733.09,-134.87"/>
</g>
<!-- s99 -->
<g id="node12" class="node">
<title>s99</title>
<polygon fill="none" stroke="black" points="1285.5,-640 1285.5,-661 1680.5,-661 1680.5,-640 1285.5,-640"/>
<text text-anchor="start" x="1288.5" y="-647.8" font-family="Times,serif" font-weight="bold" font-size="14.00">osc_modified.OperationalSpaceWalkingController</text>
<polygon fill="none" stroke="black" points="1285.5,-619 1285.5,-640 1507.5,-640 1507.5,-619 1285.5,-619"/>
<text text-anchor="start" x="1392" y="-625.8" font-family="Times,serif" font-size="14.00">x</text>
<polygon fill="none" stroke="black" points="1507.5,-619 1507.5,-640 1680.5,-640 1680.5,-619 1507.5,-619"/>
<text text-anchor="start" x="1589" y="-625.8" font-family="Times,serif" font-size="14.00">u</text>
<polygon fill="none" stroke="black" points="1285.5,-598 1285.5,-619 1507.5,-619 1507.5,-598 1285.5,-598"/>
<text text-anchor="start" x="1365.5" y="-604.8" font-family="Times,serif" font-size="14.00">com_traj</text>
<polygon fill="none" stroke="black" points="1507.5,-598 1507.5,-619 1680.5,-619 1680.5,-598 1507.5,-598"/>
<text text-anchor="start" x="1566.5" y="-604.8" font-family="Times,serif" font-size="14.00">metrics</text>
<polygon fill="none" stroke="black" points="1285.5,-577 1285.5,-598 1507.5,-598 1507.5,-577 1285.5,-577"/>
<text text-anchor="start" x="1344" y="-583.8" font-family="Times,serif" font-size="14.00">base_joint_traj</text>
<polyline fill="none" stroke="grey" points="1507.5,-577 1680.5,-577 1680.5,-598 "/>
</g>
<!-- s2&#45;&gt;s99 -->
<g id="edge17" class="edge">
<title>s2:e&#45;&gt;s99:w</title>
<path fill="none" stroke="black" d="M664.5,-693C686.19,-693 686.22,-675.22 707,-669 950.21,-596.23 1025.27,-629.1 1274.42,-629.98"/>
<polygon fill="black" stroke="black" points="1274.49,-633.48 1284.5,-630 1274.51,-626.48 1274.49,-633.48"/>
</g>
<!-- s3&#45;&gt;s2 -->
<g id="edge2" class="edge">
<title>s3:e&#45;&gt;s2:w</title>
<path fill="none" stroke="black" d="M909.5,-703C920.62,-703 916.52,-685.7 908.5,-678 892.36,-662.49 725.68,-665.66 707,-678 672.94,-700.51 705.06,-739.99 671,-762.5 552.63,-840.74 133.86,-861.79 32.5,-762.5 20.11,-750.36 13.05,-726.35 22,-717.44"/>
<polygon fill="black" stroke="black" points="23.29,-720.69 31.5,-714 20.91,-714.11 23.29,-720.69"/>
</g>
<!-- s102 -->
<g id="node14" class="node">
<title>s102</title>
<polygon fill="none" stroke="black" points="960.5,-709 960.5,-757 1233.5,-757 1233.5,-709 960.5,-709"/>
<text text-anchor="start" x="1023.5" y="-743.8" font-family="Times,serif" font-weight="bold" font-size="14.00">MeshcatVisualizer</text>
<text text-anchor="start" x="963.5" y="-729.8" font-family="Times,serif" font-size="14.00">name=meshcat_visualizer(visualizer)</text>
<text text-anchor="start" x="1015.5" y="-715.8" font-family="Times,serif" font-size="14.00">path=/drake/visualizer</text>
<polygon fill="none" stroke="black" points="960.5,-688 960.5,-709 1142.5,-709 1142.5,-688 960.5,-688"/>
<text text-anchor="start" x="1005.5" y="-694.8" font-family="Times,serif" font-size="14.00">query_object</text>
<polyline fill="none" stroke="grey" points="1142.5,-688 1233.5,-688 1233.5,-709 "/>
</g>
<!-- s3&#45;&gt;s102 -->
<g id="edge19" class="edge">
<title>s3:e&#45;&gt;s102:w</title>
<path fill="none" stroke="black" d="M909.5,-703C927.99,-703 934.83,-699.57 949.32,-698.39"/>
<polygon fill="black" stroke="black" points="949.64,-701.88 959.5,-698 949.37,-694.89 949.64,-701.88"/>
</g>
<!-- s86 -->
<g id="node3" class="node">
<title>s86</title>
<polygon fill="none" stroke="black" points="256.5,-321 256.5,-342 439.5,-342 439.5,-321 256.5,-321"/>
<text text-anchor="start" x="259.5" y="-328.8" font-family="Times,serif" font-weight="bold" font-size="14.00">ConstantVectorSource</text>
<polyline fill="none" stroke="grey" points="256.5,-321 256.5,-300 338.5,-300 "/>
<polygon fill="none" stroke="black" points="338.5,-300 338.5,-321 439.5,-321 439.5,-300 338.5,-300"/>
<text text-anchor="start" x="380" y="-306.8" font-family="Times,serif" font-size="14.00">y0</text>
</g>
<!-- s86&#45;&gt;s91 -->
<g id="edge7" class="edge">
<title>s86:e&#45;&gt;s91:w</title>
<path fill="none" stroke="black" d="M440.5,-310C572.61,-310 608.16,-310 735.37,-310"/>
<polygon fill="black" stroke="black" points="735.5,-313.5 745.5,-310 735.5,-306.5 735.5,-313.5"/>
</g>
<!-- s87 -->
<g id="node4" class="node">
<title>s87</title>
<polygon fill="none" stroke="black" points="256.5,-253 256.5,-274 439.5,-274 439.5,-253 256.5,-253"/>
<text text-anchor="start" x="259.5" y="-260.8" font-family="Times,serif" font-weight="bold" font-size="14.00">ConstantVectorSource</text>
<polyline fill="none" stroke="grey" points="256.5,-253 256.5,-232 338.5,-232 "/>
<polygon fill="none" stroke="black" points="338.5,-232 338.5,-253 439.5,-253 439.5,-232 338.5,-232"/>
<text text-anchor="start" x="380" y="-238.8" font-family="Times,serif" font-size="14.00">y0</text>
</g>
<!-- s87&#45;&gt;s91 -->
<g id="edge8" class="edge">
<title>s87:e&#45;&gt;s91:w</title>
<path fill="none" stroke="black" d="M440.5,-242C574.17,-242 606.72,-286.64 735.26,-288.91"/>
<polygon fill="black" stroke="black" points="735.47,-292.41 745.5,-289 735.53,-285.41 735.47,-292.41"/>
</g>
<!-- s88 -->
<g id="node5" class="node">
<title>s88</title>
<polygon fill="none" stroke="black" points="256.5,-185 256.5,-206 439.5,-206 439.5,-185 256.5,-185"/>
<text text-anchor="start" x="259.5" y="-192.8" font-family="Times,serif" font-weight="bold" font-size="14.00">ConstantVectorSource</text>
<polyline fill="none" stroke="grey" points="256.5,-185 256.5,-164 338.5,-164 "/>
<polygon fill="none" stroke="black" points="338.5,-164 338.5,-185 439.5,-185 439.5,-164 338.5,-164"/>
<text text-anchor="start" x="380" y="-170.8" font-family="Times,serif" font-size="14.00">y0</text>
</g>
<!-- s88&#45;&gt;s93 -->
<g id="edge10" class="edge">
<title>s88:e&#45;&gt;s93:w</title>
<path fill="none" stroke="black" d="M440.5,-174C572.19,-174 606.65,-197.75 733.4,-198.95"/>
<polygon fill="black" stroke="black" points="733.48,-202.45 743.5,-199 733.52,-195.45 733.48,-202.45"/>
</g>
<!-- s89 -->
<g id="node6" class="node">
<title>s89</title>
<polygon fill="none" stroke="black" points="256.5,-49 256.5,-70 439.5,-70 439.5,-49 256.5,-49"/>
<text text-anchor="start" x="259.5" y="-56.8" font-family="Times,serif" font-weight="bold" font-size="14.00">ConstantVectorSource</text>
<polyline fill="none" stroke="grey" points="256.5,-49 256.5,-28 338.5,-28 "/>
<polygon fill="none" stroke="black" points="338.5,-28 338.5,-49 439.5,-49 439.5,-28 338.5,-28"/>
<text text-anchor="start" x="380" y="-34.8" font-family="Times,serif" font-size="14.00">y0</text>
</g>
<!-- s89&#45;&gt;s95 -->
<g id="edge13" class="edge">
<title>s89:e&#45;&gt;s95:w</title>
<path fill="none" stroke="black" d="M440.5,-38C573.02,-38 604.93,-84.54 732.34,-86.91"/>
<polygon fill="black" stroke="black" points="732.47,-90.41 742.5,-87 732.53,-83.41 732.47,-90.41"/>
</g>
<!-- s90 -->
<g id="node7" class="node">
<title>s90</title>
<polygon fill="none" stroke="black" points="256.5,-117 256.5,-138 439.5,-138 439.5,-117 256.5,-117"/>
<text text-anchor="start" x="259.5" y="-124.8" font-family="Times,serif" font-weight="bold" font-size="14.00">ConstantVectorSource</text>
<polyline fill="none" stroke="grey" points="256.5,-117 256.5,-96 338.5,-96 "/>
<polygon fill="none" stroke="black" points="338.5,-96 338.5,-117 439.5,-117 439.5,-96 338.5,-96"/>
<text text-anchor="start" x="380" y="-102.8" font-family="Times,serif" font-size="14.00">y0</text>
</g>
<!-- s90&#45;&gt;s95 -->
<g id="edge12" class="edge">
<title>s90:e&#45;&gt;s95:w</title>
<path fill="none" stroke="black" d="M440.5,-106C571.32,-106 606.51,-107.9 732.47,-108"/>
<polygon fill="black" stroke="black" points="732.5,-111.5 742.5,-108 732.5,-104.5 732.5,-111.5"/>
</g>
<!-- s97 -->
<g id="node11" class="node">
<title>s97</title>
<polygon fill="none" stroke="black" points="963.5,-281 963.5,-302 1229.5,-302 1229.5,-281 963.5,-281"/>
<text text-anchor="start" x="992" y="-288.8" font-family="Times,serif" font-weight="bold" font-size="14.00">phase_switch.PhaseSwitch</text>
<polygon fill="none" stroke="black" points="963.5,-260 963.5,-281 1111.5,-281 1111.5,-260 963.5,-260"/>
<text text-anchor="start" x="966.5" y="-266.8" font-family="Times,serif" font-size="14.00">preflight_Trajectory</text>
<polygon fill="none" stroke="black" points="1111.5,-218 1111.5,-281 1229.5,-281 1229.5,-218 1111.5,-218"/>
<text text-anchor="start" x="1114.5" y="-245.8" font-family="Times,serif" font-size="14.00">OSC_Trajectory</text>
<polygon fill="none" stroke="black" points="963.5,-239 963.5,-260 1111.5,-260 1111.5,-239 963.5,-239"/>
<text text-anchor="start" x="976" y="-245.8" font-family="Times,serif" font-size="14.00">Aerial_Trajectory</text>
<polygon fill="none" stroke="black" points="963.5,-218 963.5,-239 1111.5,-239 1111.5,-218 963.5,-218"/>
<text text-anchor="start" x="968" y="-224.8" font-family="Times,serif" font-size="14.00">Landing_Trajectory</text>
</g>
<!-- s91&#45;&gt;s97 -->
<g id="edge14" class="edge">
<title>s91:e&#45;&gt;s97:w</title>
<path fill="none" stroke="black" d="M878.5,-310C915.96,-310 920.72,-277.69 952.3,-271.89"/>
<polygon fill="black" stroke="black" points="952.84,-275.35 962.5,-271 952.23,-268.38 952.84,-275.35"/>
</g>
<!-- s93&#45;&gt;s97 -->
<g id="edge15" class="edge">
<title>s93:e&#45;&gt;s97:w</title>
<path fill="none" stroke="black" d="M880.5,-210C917.23,-210 921.6,-242.31 952.51,-248.11"/>
<polygon fill="black" stroke="black" points="952.23,-251.6 962.5,-249 952.85,-244.63 952.23,-251.6"/>
</g>
<!-- s95&#45;&gt;s97 -->
<g id="edge16" class="edge">
<title>s95:e&#45;&gt;s97:w</title>
<path fill="none" stroke="black" d="M880.5,-108C941.44,-108 902.89,-214.79 952.56,-226.89"/>
<polygon fill="black" stroke="black" points="952.17,-230.37 962.5,-228 952.95,-223.41 952.17,-230.37"/>
</g>
<!-- s97&#45;&gt;s99 -->
<g id="edge18" class="edge">
<title>s97:e&#45;&gt;s99:w</title>
<path fill="none" stroke="black" d="M1230.5,-249C1388.23,-249 1135,-592.05 1274.27,-607.46"/>
<polygon fill="black" stroke="black" points="1274.33,-610.97 1284.5,-608 1274.7,-603.98 1274.33,-610.97"/>
</g>
<!-- s99&#45;&gt;s2 -->
<g id="edge3" class="edge">
<title>s99:e&#45;&gt;s2:w</title>
<path fill="none" stroke="black" d="M1681.5,-630C1697.06,-630 1691.66,-654.15 1680.5,-665 1648.35,-696.25 1320.96,-673.79 1277,-665 1260,-661.6 1258,-653.4 1241,-650 1008.28,-603.46 898.7,-510.07 707,-650 664.6,-680.95 713.4,-731.55 671,-762.5 556.4,-846.16 133.21,-862.45 32.5,-762.5 14.13,-744.27 4.53,-655.73 22.47,-634.56"/>
<polygon fill="black" stroke="black" points="24.15,-637.63 31.5,-630 21,-631.38 24.15,-637.63"/>
</g>
<!-- s101 -->
<g id="node13" class="node">
<title>s101</title>
<polygon fill="none" stroke="black" points="1732.5,-619 1732.5,-640 1853.5,-640 1853.5,-619 1732.5,-619"/>
<text text-anchor="start" x="1735.5" y="-626.8" font-family="Times,serif" font-weight="bold" font-size="14.00">VectorLogSink</text>
<polygon fill="none" stroke="black" points="1732.5,-598 1732.5,-619 1808.5,-619 1808.5,-598 1732.5,-598"/>
<text text-anchor="start" x="1754.5" y="-604.8" font-family="Times,serif" font-size="14.00">data</text>
<polyline fill="none" stroke="grey" points="1808.5,-598 1853.5,-598 1853.5,-619 "/>
</g>
<!-- s99&#45;&gt;s101 -->
<g id="edge4" class="edge">
<title>s99:e&#45;&gt;s101:w</title>
<path fill="none" stroke="black" d="M1681.5,-608C1699.9,-608 1706.88,-608 1721.35,-608"/>
<polygon fill="black" stroke="black" points="1721.5,-611.5 1731.5,-608 1721.5,-604.5 1721.5,-611.5"/>
</g>
<!-- meshcat_in -->
<g id="node15" class="node">
<title>meshcat_in</title>
<ellipse fill="none" stroke="magenta" cx="1482.5" cy="-723" rx="50.09" ry="18"/>
<text text-anchor="middle" x="1482.5" y="-719.3" font-family="Times,serif" font-size="14.00">Meshcat</text>
</g>
<!-- s102&#45;&gt;meshcat_in -->
<g id="edge1" class="edge">
<title>s102:e&#45;&gt;meshcat_in</title>
<path fill="none" stroke="magenta" stroke-dasharray="5,2" d="M1241,-723C1302.78,-723 1373.5,-723 1422.17,-723"/>
<polygon fill="magenta" stroke="magenta" points="1422.22,-726.5 1432.22,-723 1422.22,-719.5 1422.22,-726.5"/>
</g>
</g>
</svg>
