<?xml version="1.0" encoding="UTF-8" standalone="no"?>
<!DOCTYPE svg PUBLIC "-//W3C//DTD SVG 1.1//EN"
 "http://www.w3.org/Graphics/SVG/1.1/DTD/svg11.dtd">
<!-- Generated by graphviz version 2.43.0 (0)
 -->
<!-- Title: _113 Pages: 1 -->
<svg width="1832pt" height="553pt"
 viewBox="0.00 0.00 1832.09 553.00" xmlns="http://www.w3.org/2000/svg" xmlns:xlink="http://www.w3.org/1999/xlink">
<g id="graph0" class="graph" transform="scale(1 1) rotate(0) translate(4 549)">
<title>_113</title>
<polygon fill="white" stroke="transparent" points="-4,4 -4,-549 1828.09,-549 1828.09,4 -4,4"/>
<g id="clust1" class="cluster">
<title>cluster113diagram</title>
<polygon fill="none" stroke="black" points="8,-8 8,-537 1816.09,-537 1816.09,-8 8,-8"/>
<text text-anchor="start" x="878.05" y="-518.3" font-family="Times,serif" font-weight="bold" font-size="14.00">Diagram</text>
</g>
<g id="clust2" class="cluster">
<title>cluster113subsystems</title>
<polygon fill="none" stroke="white" points="16,-16 16,-498 1808.09,-498 1808.09,-16 16,-16"/>
</g>
<!-- s2 -->
<g id="node1" class="node">
<title>s2</title>
<polygon fill="none" stroke="black" points="455.5,-452 455.5,-486 1086.5,-486 1086.5,-452 455.5,-452"/>
<text text-anchor="start" x="709.5" y="-472.8" font-family="Times,serif" font-weight="bold" font-size="14.00">MultibodyPlant</text>
<text text-anchor="start" x="727" y="-458.8" font-family="Times,serif" font-size="14.00">name=plant</text>
<polygon fill="none" stroke="black" points="455.5,-431 455.5,-452 722.5,-452 722.5,-431 455.5,-431"/>
<text text-anchor="start" x="530.5" y="-437.8" font-family="Times,serif" font-size="14.00">geometry_query</text>
<polygon fill="none" stroke="black" points="722.5,-431 722.5,-452 1086.5,-452 1086.5,-431 722.5,-431"/>
<text text-anchor="start" x="850" y="-437.8" font-family="Times,serif" font-size="14.00">geometry_pose</text>
<polygon fill="none" stroke="black" points="455.5,-410 455.5,-431 722.5,-431 722.5,-410 455.5,-410"/>
<text text-anchor="start" x="478.5" y="-416.8" font-family="Times,serif" font-size="14.00" fill="grey">WorldModelInstance_actuation</text>
<polygon fill="none" stroke="black" points="722.5,-410 722.5,-431 1086.5,-431 1086.5,-410 722.5,-410"/>
<text text-anchor="start" x="886" y="-416.8" font-family="Times,serif" font-size="14.00">state</text>
<polygon fill="none" stroke="black" points="455.5,-389 455.5,-410 722.5,-410 722.5,-389 455.5,-389"/>
<text text-anchor="start" x="473" y="-395.8" font-family="Times,serif" font-size="14.00" fill="grey">DefaultModelInstance_actuation</text>
<polygon fill="none" stroke="black" points="722.5,-389 722.5,-410 1086.5,-410 1086.5,-389 722.5,-389"/>
<text text-anchor="start" x="863.5" y="-395.8" font-family="Times,serif" font-size="14.00">body_poses</text>
<polygon fill="none" stroke="black" points="455.5,-368 455.5,-389 722.5,-389 722.5,-368 455.5,-368"/>
<text text-anchor="start" x="482" y="-374.8" font-family="Times,serif" font-size="14.00">KneedCompassGait_actuation</text>
<polygon fill="none" stroke="black" points="722.5,-368 722.5,-389 1086.5,-389 1086.5,-368 722.5,-368"/>
<text text-anchor="start" x="843" y="-374.8" font-family="Times,serif" font-size="14.00">spatial_velocities</text>
<polygon fill="none" stroke="black" points="455.5,-347 455.5,-368 722.5,-368 722.5,-347 455.5,-347"/>
<text text-anchor="start" x="555.5" y="-353.8" font-family="Times,serif" font-size="14.00">actuation</text>
<polygon fill="none" stroke="black" points="722.5,-347 722.5,-368 1086.5,-368 1086.5,-347 722.5,-347"/>
<text text-anchor="start" x="829.5" y="-353.8" font-family="Times,serif" font-size="14.00">spatial_accelerations</text>
<polygon fill="none" stroke="black" points="455.5,-326 455.5,-347 722.5,-347 722.5,-326 455.5,-326"/>
<text text-anchor="start" x="464" y="-332.8" font-family="Times,serif" font-size="14.00" fill="grey">WorldModelInstance_desired_state</text>
<polygon fill="none" stroke="black" points="722.5,-326 722.5,-347 1086.5,-347 1086.5,-326 722.5,-326"/>
<text text-anchor="start" x="815.5" y="-332.8" font-family="Times,serif" font-size="14.00">generalized_acceleration</text>
<polygon fill="none" stroke="black" points="455.5,-305 455.5,-326 722.5,-326 722.5,-305 455.5,-305"/>
<text text-anchor="start" x="458.5" y="-311.8" font-family="Times,serif" font-size="14.00" fill="grey">DefaultModelInstance_desired_state</text>
<polygon fill="none" stroke="black" points="722.5,-305 722.5,-326 1086.5,-326 1086.5,-305 722.5,-305"/>
<text text-anchor="start" x="809.5" y="-311.8" font-family="Times,serif" font-size="14.00" fill="grey">WorldModelInstance_state</text>
<polygon fill="none" stroke="black" points="455.5,-284 455.5,-305 722.5,-305 722.5,-284 455.5,-284"/>
<text text-anchor="start" x="467.5" y="-290.8" font-family="Times,serif" font-size="14.00" fill="grey">KneedCompassGait_desired_state</text>
<polygon fill="none" stroke="black" points="722.5,-284 722.5,-305 1086.5,-305 1086.5,-284 722.5,-284"/>
<text text-anchor="start" x="739" y="-290.8" font-family="Times,serif" font-size="14.00" fill="grey">WorldModelInstance_generalized_acceleration</text>
<polygon fill="none" stroke="black" points="455.5,-263 455.5,-284 722.5,-284 722.5,-263 455.5,-263"/>
<text text-anchor="start" x="496" y="-269.8" font-family="Times,serif" font-size="14.00">applied_generalized_force</text>
<polygon fill="none" stroke="black" points="722.5,-263 722.5,-284 1086.5,-284 1086.5,-263 722.5,-263"/>
<text text-anchor="start" x="804" y="-269.8" font-family="Times,serif" font-size="14.00" fill="grey">DefaultModelInstance_state</text>
<polygon fill="none" stroke="black" points="455.5,-242 455.5,-263 722.5,-263 722.5,-242 455.5,-242"/>
<text text-anchor="start" x="513.5" y="-248.8" font-family="Times,serif" font-size="14.00">applied_spatial_force</text>
<polygon fill="none" stroke="black" points="722.5,-242 722.5,-263 1086.5,-263 1086.5,-242 722.5,-242"/>
<text text-anchor="start" x="733.5" y="-248.8" font-family="Times,serif" font-size="14.00" fill="grey">DefaultModelInstance_generalized_acceleration</text>
<polyline fill="none" stroke="grey" points="455.5,-242 455.5,-95 722.5,-95 "/>
<polygon fill="none" stroke="black" points="722.5,-221 722.5,-242 1086.5,-242 1086.5,-221 722.5,-221"/>
<text text-anchor="start" x="813" y="-227.8" font-family="Times,serif" font-size="14.00">KneedCompassGait_state</text>
<polygon fill="none" stroke="black" points="722.5,-200 722.5,-221 1086.5,-221 1086.5,-200 722.5,-200"/>
<text text-anchor="start" x="742.5" y="-206.8" font-family="Times,serif" font-size="14.00">KneedCompassGait_generalized_acceleration</text>
<polygon fill="none" stroke="black" points="722.5,-179 722.5,-200 1086.5,-200 1086.5,-179 722.5,-179"/>
<text text-anchor="start" x="731" y="-185.8" font-family="Times,serif" font-size="14.00" fill="grey">WorldModelInstance_generalized_contact_forces</text>
<polygon fill="none" stroke="black" points="722.5,-158 722.5,-179 1086.5,-179 1086.5,-158 722.5,-158"/>
<text text-anchor="start" x="725.5" y="-164.8" font-family="Times,serif" font-size="14.00" fill="grey">DefaultModelInstance_generalized_contact_forces</text>
<polygon fill="none" stroke="black" points="722.5,-137 722.5,-158 1086.5,-158 1086.5,-137 722.5,-137"/>
<text text-anchor="start" x="734.5" y="-143.8" font-family="Times,serif" font-size="14.00">KneedCompassGait_generalized_contact_forces</text>
<polygon fill="none" stroke="black" points="722.5,-116 722.5,-137 1086.5,-137 1086.5,-116 722.5,-116"/>
<text text-anchor="start" x="850" y="-122.8" font-family="Times,serif" font-size="14.00">reaction_forces</text>
<polygon fill="none" stroke="black" points="722.5,-95 722.5,-116 1086.5,-116 1086.5,-95 722.5,-95"/>
<text text-anchor="start" x="850" y="-101.8" font-family="Times,serif" font-size="14.00">contact_results</text>
</g>
<!-- s3 -->
<g id="node2" class="node">
<title>s3</title>
<polygon fill="none" stroke="black" points="1138.5,-452 1138.5,-486 1331.5,-486 1331.5,-452 1138.5,-452"/>
<text text-anchor="start" x="1187" y="-472.8" font-family="Times,serif" font-weight="bold" font-size="14.00">SceneGraph</text>
<text text-anchor="start" x="1164.5" y="-458.8" font-family="Times,serif" font-size="14.00">name=scene_graph</text>
<polygon fill="none" stroke="black" points="1138.5,-431 1138.5,-452 1283.5,-452 1283.5,-431 1138.5,-431"/>
<text text-anchor="start" x="1172.5" y="-437.8" font-family="Times,serif" font-size="14.00">plant_pose</text>
<polygon fill="none" stroke="black" points="1283.5,-410 1283.5,-452 1331.5,-452 1331.5,-410 1283.5,-410"/>
<text text-anchor="start" x="1286.5" y="-427.3" font-family="Times,serif" font-size="14.00">query</text>
<polygon fill="none" stroke="black" points="1138.5,-410 1138.5,-431 1283.5,-431 1283.5,-410 1138.5,-410"/>
<text text-anchor="start" x="1141.5" y="-416.8" font-family="Times,serif" font-size="14.00">plant_configuration</text>
</g>
<!-- s2&#45;&gt;s3 -->
<g id="edge2" class="edge">
<title>s2:e&#45;&gt;s3:w</title>
<path fill="none" stroke="black" d="M1087.5,-442C1105.91,-442 1112.87,-441.31 1127.35,-441.08"/>
<polygon fill="black" stroke="black" points="1127.53,-444.58 1137.5,-441 1127.47,-437.58 1127.53,-444.58"/>
</g>
<!-- s3&#45;&gt;s2 -->
<g id="edge4" class="edge">
<title>s3:e&#45;&gt;s2:w</title>
<path fill="none" stroke="black" d="M1332.5,-431C1352,-431 1317.07,-282.36 1130,-406 1095.94,-428.51 1128.06,-467.99 1094,-490.5 1034.81,-529.62 506.18,-540.15 455.5,-490.5 443.11,-478.36 436.05,-454.35 445,-445.44"/>
<polygon fill="black" stroke="black" points="446.29,-448.69 454.5,-442 443.91,-442.11 446.29,-448.69"/>
</g>
<!-- s93 -->
<g id="node6" class="node">
<title>s93</title>
<polygon fill="none" stroke="black" points="1383.5,-437 1383.5,-485 1656.5,-485 1656.5,-437 1383.5,-437"/>
<text text-anchor="start" x="1446.5" y="-471.8" font-family="Times,serif" font-weight="bold" font-size="14.00">MeshcatVisualizer</text>
<text text-anchor="start" x="1386.5" y="-457.8" font-family="Times,serif" font-size="14.00">name=meshcat_visualizer(visualizer)</text>
<text text-anchor="start" x="1438.5" y="-443.8" font-family="Times,serif" font-size="14.00">path=/drake/visualizer</text>
<polygon fill="none" stroke="black" points="1383.5,-416 1383.5,-437 1565.5,-437 1565.5,-416 1383.5,-416"/>
<text text-anchor="start" x="1428.5" y="-422.8" font-family="Times,serif" font-size="14.00">query_object</text>
<polyline fill="none" stroke="grey" points="1565.5,-416 1656.5,-416 1656.5,-437 "/>
</g>
<!-- s3&#45;&gt;s93 -->
<g id="edge10" class="edge">
<title>s3:e&#45;&gt;s93:w</title>
<path fill="none" stroke="black" d="M1332.5,-431C1350.99,-431 1357.83,-427.57 1372.32,-426.39"/>
<polygon fill="black" stroke="black" points="1372.64,-429.88 1382.5,-426 1372.37,-422.89 1372.64,-429.88"/>
</g>
<!-- s88 -->
<g id="node3" class="node">
<title>s88</title>
<polygon fill="none" stroke="black" points="32.5,-229 32.5,-250 247.5,-250 247.5,-229 32.5,-229"/>
<text text-anchor="start" x="35.5" y="-236.8" font-family="Times,serif" font-weight="bold" font-size="14.00">phase_switch.PhaseSwitch</text>
<polyline fill="none" stroke="grey" points="32.5,-229 32.5,-145 52.5,-145 "/>
<polygon fill="none" stroke="black" points="52.5,-208 52.5,-229 247.5,-229 247.5,-208 52.5,-208"/>
<text text-anchor="start" x="62.5" y="-214.8" font-family="Times,serif" font-size="14.00">OSCPreflight_Trajectory</text>
<polygon fill="none" stroke="black" points="52.5,-187 52.5,-208 247.5,-208 247.5,-187 52.5,-187"/>
<text text-anchor="start" x="70" y="-193.8" font-family="Times,serif" font-size="14.00">OSCLFight_Trajectory</text>
<polygon fill="none" stroke="black" points="52.5,-166 52.5,-187 247.5,-187 247.5,-166 52.5,-166"/>
<text text-anchor="start" x="65" y="-172.8" font-family="Times,serif" font-size="14.00">OSCLanding_Trajectory</text>
<polygon fill="none" stroke="black" points="52.5,-145 52.5,-166 247.5,-166 247.5,-145 52.5,-145"/>
<text text-anchor="start" x="128.5" y="-151.8" font-family="Times,serif" font-size="14.00">Phase</text>
</g>
<!-- s90 -->
<g id="node4" class="node">
<title>s90</title>
<polygon fill="none" stroke="black" points="299,-250 299,-271 403,-271 403,-250 299,-250"/>
<text text-anchor="start" x="319" y="-257.8" font-family="Times,serif" font-weight="bold" font-size="14.00">osc.OSC</text>
<polygon fill="none" stroke="black" points="299,-229 299,-250 367,-250 367,-229 299,-229"/>
<text text-anchor="start" x="328.5" y="-235.8" font-family="Times,serif" font-size="14.00">x</text>
<polygon fill="none" stroke="black" points="367,-229 367,-250 403,-250 403,-229 367,-229"/>
<text text-anchor="start" x="380" y="-235.8" font-family="Times,serif" font-size="14.00">u</text>
<polygon fill="none" stroke="black" points="299,-208 299,-229 367,-229 367,-208 299,-208"/>
<text text-anchor="start" x="302" y="-214.8" font-family="Times,serif" font-size="14.00">preflight</text>
<polygon fill="none" stroke="black" points="367,-208 367,-229 403,-229 403,-208 367,-208"/>
<text text-anchor="start" x="370" y="-214.8" font-family="Times,serif" font-size="14.00">logs</text>
<polygon fill="none" stroke="black" points="299,-187 299,-208 367,-208 367,-187 299,-187"/>
<text text-anchor="start" x="314" y="-193.8" font-family="Times,serif" font-size="14.00">flight</text>
<polyline fill="none" stroke="grey" points="367,-145 403,-145 403,-208 "/>
<polygon fill="none" stroke="black" points="299,-166 299,-187 367,-187 367,-166 299,-166"/>
<text text-anchor="start" x="306" y="-172.8" font-family="Times,serif" font-size="14.00">landing</text>
<polygon fill="none" stroke="black" points="299,-145 299,-166 367,-166 367,-145 299,-145"/>
<text text-anchor="start" x="311.5" y="-151.8" font-family="Times,serif" font-size="14.00">phase</text>
</g>
<!-- s88&#45;&gt;s90 -->
<g id="edge6" class="edge">
<title>s88:e&#45;&gt;s90:w</title>
<path fill="none" stroke="black" d="M248.5,-219C266.72,-219 273.62,-219 287.95,-219"/>
<polygon fill="black" stroke="black" points="288,-222.5 298,-219 288,-215.5 288,-222.5"/>
</g>
<!-- s88&#45;&gt;s90 -->
<g id="edge7" class="edge">
<title>s88:e&#45;&gt;s90:w</title>
<path fill="none" stroke="black" d="M248.5,-197C266.72,-197 273.62,-197 287.95,-197"/>
<polygon fill="black" stroke="black" points="288,-200.5 298,-197 288,-193.5 288,-200.5"/>
</g>
<!-- s88&#45;&gt;s90 -->
<g id="edge8" class="edge">
<title>s88:e&#45;&gt;s90:w</title>
<path fill="none" stroke="black" d="M248.5,-176C266.72,-176 273.62,-176 287.95,-176"/>
<polygon fill="black" stroke="black" points="288,-179.5 298,-176 288,-172.5 288,-179.5"/>
</g>
<!-- s88&#45;&gt;s90 -->
<g id="edge9" class="edge">
<title>s88:e&#45;&gt;s90:w</title>
<path fill="none" stroke="black" d="M248.5,-155C266.72,-155 273.62,-155 287.95,-155"/>
<polygon fill="black" stroke="black" points="288,-158.5 298,-155 288,-151.5 288,-158.5"/>
</g>
<!-- s90&#45;&gt;s2 -->
<g id="edge5" class="edge">
<title>s90:e&#45;&gt;s2:w</title>
<path fill="none" stroke="black" d="M404,-240C457.03,-240 405.8,-341.99 444.17,-356.33"/>
<polygon fill="black" stroke="black" points="444.07,-359.86 454.5,-358 445.19,-352.95 444.07,-359.86"/>
</g>
<!-- s92 -->
<g id="node5" class="node">
<title>s92</title>
<polygon fill="none" stroke="black" points="710.5,-49 710.5,-70 831.5,-70 831.5,-49 710.5,-49"/>
<text text-anchor="start" x="713.5" y="-56.8" font-family="Times,serif" font-weight="bold" font-size="14.00">VectorLogSink</text>
<polygon fill="none" stroke="black" points="710.5,-28 710.5,-49 786.5,-49 786.5,-28 710.5,-28"/>
<text text-anchor="start" x="732.5" y="-34.8" font-family="Times,serif" font-size="14.00">data</text>
<polyline fill="none" stroke="grey" points="786.5,-28 831.5,-28 831.5,-49 "/>
</g>
<!-- s90&#45;&gt;s92 -->
<g id="edge3" class="edge">
<title>s90:e&#45;&gt;s92:w</title>
<path fill="none" stroke="black" d="M404,-219C467.39,-219 399.22,-124.67 447,-83 533.6,-7.48 587.88,-36.17 699.26,-37.92"/>
<polygon fill="black" stroke="black" points="699.47,-41.42 709.5,-38 699.53,-34.42 699.47,-41.42"/>
</g>
<!-- meshcat_in -->
<g id="node7" class="node">
<title>meshcat_in</title>
<ellipse fill="none" stroke="magenta" cx="1750.05" cy="-451" rx="50.09" ry="18"/>
<text text-anchor="middle" x="1750.05" y="-447.3" font-family="Times,serif" font-size="14.00">Meshcat</text>
</g>
<!-- s93&#45;&gt;meshcat_in -->
<g id="edge1" class="edge">
<title>s93:e&#45;&gt;meshcat_in</title>
<path fill="none" stroke="magenta" stroke-dasharray="5,2" d="M1664,-451C1672.19,-451 1680.82,-451 1689.32,-451"/>
<polygon fill="magenta" stroke="magenta" points="1689.58,-454.5 1699.58,-451 1689.58,-447.5 1689.58,-454.5"/>
</g>
</g>
</svg>
