<?xml version="1.0" encoding="UTF-8" standalone="no"?>
<!DOCTYPE svg PUBLIC "-//W3C//DTD SVG 1.1//EN"
 "http://www.w3.org/Graphics/SVG/1.1/DTD/svg11.dtd">
<!-- Generated by graphviz version 2.43.0 (0)
 -->
<!-- Title: _112 Pages: 1 -->
<svg width="1409pt" height="553pt"
 viewBox="0.00 0.00 1409.09 553.00" xmlns="http://www.w3.org/2000/svg" xmlns:xlink="http://www.w3.org/1999/xlink">
<g id="graph0" class="graph" transform="scale(1 1) rotate(0) translate(4 549)">
<title>_112</title>
<polygon fill="white" stroke="transparent" points="-4,4 -4,-549 1405.09,-549 1405.09,4 -4,4"/>
<g id="clust1" class="cluster">
<title>cluster112diagram</title>
<polygon fill="none" stroke="black" points="8,-8 8,-537 1393.09,-537 1393.09,-8 8,-8"/>
<text text-anchor="start" x="666.55" y="-518.3" font-family="Times,serif" font-weight="bold" font-size="14.00">Diagram</text>
</g>
<g id="clust2" class="cluster">
<title>cluster112subsystems</title>
<polygon fill="none" stroke="white" points="16,-16 16,-498 1385.09,-498 1385.09,-16 16,-16"/>
</g>
<!-- s2 -->
<g id="node1" class="node">
<title>s2</title>
<polygon fill="none" stroke="black" points="32.5,-452 32.5,-486 663.5,-486 663.5,-452 32.5,-452"/>
<text text-anchor="start" x="286.5" y="-472.8" font-family="Times,serif" font-weight="bold" font-size="14.00">MultibodyPlant</text>
<text text-anchor="start" x="304" y="-458.8" font-family="Times,serif" font-size="14.00">name=plant</text>
<polygon fill="none" stroke="black" points="32.5,-431 32.5,-452 299.5,-452 299.5,-431 32.5,-431"/>
<text text-anchor="start" x="107.5" y="-437.8" font-family="Times,serif" font-size="14.00">geometry_query</text>
<polygon fill="none" stroke="black" points="299.5,-431 299.5,-452 663.5,-452 663.5,-431 299.5,-431"/>
<text text-anchor="start" x="427" y="-437.8" font-family="Times,serif" font-size="14.00">geometry_pose</text>
<polygon fill="none" stroke="black" points="32.5,-410 32.5,-431 299.5,-431 299.5,-410 32.5,-410"/>
<text text-anchor="start" x="55.5" y="-416.8" font-family="Times,serif" font-size="14.00" fill="grey">WorldModelInstance_actuation</text>
<polygon fill="none" stroke="black" points="299.5,-410 299.5,-431 663.5,-431 663.5,-410 299.5,-410"/>
<text text-anchor="start" x="463" y="-416.8" font-family="Times,serif" font-size="14.00">state</text>
<polygon fill="none" stroke="black" points="32.5,-389 32.5,-410 299.5,-410 299.5,-389 32.5,-389"/>
<text text-anchor="start" x="50" y="-395.8" font-family="Times,serif" font-size="14.00" fill="grey">DefaultModelInstance_actuation</text>
<polygon fill="none" stroke="black" points="299.5,-389 299.5,-410 663.5,-410 663.5,-389 299.5,-389"/>
<text text-anchor="start" x="440.5" y="-395.8" font-family="Times,serif" font-size="14.00">body_poses</text>
<polygon fill="none" stroke="black" points="32.5,-368 32.5,-389 299.5,-389 299.5,-368 32.5,-368"/>
<text text-anchor="start" x="59" y="-374.8" font-family="Times,serif" font-size="14.00">KneedCompassGait_actuation</text>
<polygon fill="none" stroke="black" points="299.5,-368 299.5,-389 663.5,-389 663.5,-368 299.5,-368"/>
<text text-anchor="start" x="420" y="-374.8" font-family="Times,serif" font-size="14.00">spatial_velocities</text>
<polygon fill="none" stroke="black" points="32.5,-347 32.5,-368 299.5,-368 299.5,-347 32.5,-347"/>
<text text-anchor="start" x="132.5" y="-353.8" font-family="Times,serif" font-size="14.00">actuation</text>
<polygon fill="none" stroke="black" points="299.5,-347 299.5,-368 663.5,-368 663.5,-347 299.5,-347"/>
<text text-anchor="start" x="406.5" y="-353.8" font-family="Times,serif" font-size="14.00">spatial_accelerations</text>
<polygon fill="none" stroke="black" points="32.5,-326 32.5,-347 299.5,-347 299.5,-326 32.5,-326"/>
<text text-anchor="start" x="41" y="-332.8" font-family="Times,serif" font-size="14.00" fill="grey">WorldModelInstance_desired_state</text>
<polygon fill="none" stroke="black" points="299.5,-326 299.5,-347 663.5,-347 663.5,-326 299.5,-326"/>
<text text-anchor="start" x="392.5" y="-332.8" font-family="Times,serif" font-size="14.00">generalized_acceleration</text>
<polygon fill="none" stroke="black" points="32.5,-305 32.5,-326 299.5,-326 299.5,-305 32.5,-305"/>
<text text-anchor="start" x="35.5" y="-311.8" font-family="Times,serif" font-size="14.00" fill="grey">DefaultModelInstance_desired_state</text>
<polygon fill="none" stroke="black" points="299.5,-305 299.5,-326 663.5,-326 663.5,-305 299.5,-305"/>
<text text-anchor="start" x="386.5" y="-311.8" font-family="Times,serif" font-size="14.00" fill="grey">WorldModelInstance_state</text>
<polygon fill="none" stroke="black" points="32.5,-284 32.5,-305 299.5,-305 299.5,-284 32.5,-284"/>
<text text-anchor="start" x="44.5" y="-290.8" font-family="Times,serif" font-size="14.00" fill="grey">KneedCompassGait_desired_state</text>
<polygon fill="none" stroke="black" points="299.5,-284 299.5,-305 663.5,-305 663.5,-284 299.5,-284"/>
<text text-anchor="start" x="316" y="-290.8" font-family="Times,serif" font-size="14.00" fill="grey">WorldModelInstance_generalized_acceleration</text>
<polygon fill="none" stroke="black" points="32.5,-263 32.5,-284 299.5,-284 299.5,-263 32.5,-263"/>
<text text-anchor="start" x="73" y="-269.8" font-family="Times,serif" font-size="14.00">applied_generalized_force</text>
<polygon fill="none" stroke="black" points="299.5,-263 299.5,-284 663.5,-284 663.5,-263 299.5,-263"/>
<text text-anchor="start" x="381" y="-269.8" font-family="Times,serif" font-size="14.00" fill="grey">DefaultModelInstance_state</text>
<polygon fill="none" stroke="black" points="32.5,-242 32.5,-263 299.5,-263 299.5,-242 32.5,-242"/>
<text text-anchor="start" x="90.5" y="-248.8" font-family="Times,serif" font-size="14.00">applied_spatial_force</text>
<polygon fill="none" stroke="black" points="299.5,-242 299.5,-263 663.5,-263 663.5,-242 299.5,-242"/>
<text text-anchor="start" x="310.5" y="-248.8" font-family="Times,serif" font-size="14.00" fill="grey">DefaultModelInstance_generalized_acceleration</text>
<polyline fill="none" stroke="grey" points="32.5,-242 32.5,-95 299.5,-95 "/>
<polygon fill="none" stroke="black" points="299.5,-221 299.5,-242 663.5,-242 663.5,-221 299.5,-221"/>
<text text-anchor="start" x="390" y="-227.8" font-family="Times,serif" font-size="14.00">KneedCompassGait_state</text>
<polygon fill="none" stroke="black" points="299.5,-200 299.5,-221 663.5,-221 663.5,-200 299.5,-200"/>
<text text-anchor="start" x="319.5" y="-206.8" font-family="Times,serif" font-size="14.00">KneedCompassGait_generalized_acceleration</text>
<polygon fill="none" stroke="black" points="299.5,-179 299.5,-200 663.5,-200 663.5,-179 299.5,-179"/>
<text text-anchor="start" x="308" y="-185.8" font-family="Times,serif" font-size="14.00" fill="grey">WorldModelInstance_generalized_contact_forces</text>
<polygon fill="none" stroke="black" points="299.5,-158 299.5,-179 663.5,-179 663.5,-158 299.5,-158"/>
<text text-anchor="start" x="302.5" y="-164.8" font-family="Times,serif" font-size="14.00" fill="grey">DefaultModelInstance_generalized_contact_forces</text>
<polygon fill="none" stroke="black" points="299.5,-137 299.5,-158 663.5,-158 663.5,-137 299.5,-137"/>
<text text-anchor="start" x="311.5" y="-143.8" font-family="Times,serif" font-size="14.00">KneedCompassGait_generalized_contact_forces</text>
<polygon fill="none" stroke="black" points="299.5,-116 299.5,-137 663.5,-137 663.5,-116 299.5,-116"/>
<text text-anchor="start" x="427" y="-122.8" font-family="Times,serif" font-size="14.00">reaction_forces</text>
<polygon fill="none" stroke="black" points="299.5,-95 299.5,-116 663.5,-116 663.5,-95 299.5,-95"/>
<text text-anchor="start" x="427" y="-101.8" font-family="Times,serif" font-size="14.00">contact_results</text>
</g>
<!-- s3 -->
<g id="node2" class="node">
<title>s3</title>
<polygon fill="none" stroke="black" points="715.5,-452 715.5,-486 908.5,-486 908.5,-452 715.5,-452"/>
<text text-anchor="start" x="764" y="-472.8" font-family="Times,serif" font-weight="bold" font-size="14.00">SceneGraph</text>
<text text-anchor="start" x="741.5" y="-458.8" font-family="Times,serif" font-size="14.00">name=scene_graph</text>
<polygon fill="none" stroke="black" points="715.5,-431 715.5,-452 860.5,-452 860.5,-431 715.5,-431"/>
<text text-anchor="start" x="749.5" y="-437.8" font-family="Times,serif" font-size="14.00">plant_pose</text>
<polygon fill="none" stroke="black" points="860.5,-410 860.5,-452 908.5,-452 908.5,-410 860.5,-410"/>
<text text-anchor="start" x="863.5" y="-427.3" font-family="Times,serif" font-size="14.00">query</text>
<polygon fill="none" stroke="black" points="715.5,-410 715.5,-431 860.5,-431 860.5,-410 715.5,-410"/>
<text text-anchor="start" x="718.5" y="-416.8" font-family="Times,serif" font-size="14.00">plant_configuration</text>
</g>
<!-- s2&#45;&gt;s3 -->
<g id="edge4" class="edge">
<title>s2:e&#45;&gt;s3:w</title>
<path fill="none" stroke="black" d="M664.5,-442C682.91,-442 689.87,-441.31 704.35,-441.08"/>
<polygon fill="black" stroke="black" points="704.53,-444.58 714.5,-441 704.47,-437.58 704.53,-444.58"/>
</g>
<!-- s87 -->
<g id="node4" class="node">
<title>s87</title>
<polygon fill="none" stroke="black" points="725.5,-316 725.5,-337 897.5,-337 897.5,-316 725.5,-316"/>
<text text-anchor="start" x="728.5" y="-323.8" font-family="Times,serif" font-weight="bold" font-size="14.00">planner.COMPlanner</text>
<polygon fill="none" stroke="black" points="725.5,-295 725.5,-316 796.5,-316 796.5,-295 725.5,-295"/>
<text text-anchor="start" x="756.5" y="-301.8" font-family="Times,serif" font-size="14.00">x</text>
<polygon fill="none" stroke="black" points="796.5,-274 796.5,-316 897.5,-316 897.5,-274 796.5,-274"/>
<text text-anchor="start" x="816" y="-291.3" font-family="Times,serif" font-size="14.00">com_traj</text>
<polygon fill="none" stroke="black" points="725.5,-274 725.5,-295 796.5,-295 796.5,-274 725.5,-274"/>
<text text-anchor="start" x="744.5" y="-280.8" font-family="Times,serif" font-size="14.00">zdes</text>
</g>
<!-- s2&#45;&gt;s87 -->
<g id="edge5" class="edge">
<title>s2:e&#45;&gt;s87:w</title>
<path fill="none" stroke="black" d="M664.5,-421C718.69,-421 673.4,-319.89 714.38,-306.47"/>
<polygon fill="black" stroke="black" points="715.11,-309.9 724.5,-305 714.1,-302.97 715.11,-309.9"/>
</g>
<!-- s90 -->
<g id="node6" class="node">
<title>s90</title>
<polygon fill="none" stroke="black" points="1033.5,-348 1033.5,-369 1160.5,-369 1160.5,-348 1033.5,-348"/>
<text text-anchor="start" x="1065" y="-355.8" font-family="Times,serif" font-weight="bold" font-size="14.00">osc.OSC</text>
<polygon fill="none" stroke="black" points="1033.5,-327 1033.5,-348 1144.5,-348 1144.5,-327 1033.5,-327"/>
<text text-anchor="start" x="1084.5" y="-333.8" font-family="Times,serif" font-size="14.00">x</text>
<polygon fill="none" stroke="black" points="1144.5,-285 1144.5,-348 1160.5,-348 1160.5,-285 1144.5,-285"/>
<text text-anchor="start" x="1147.5" y="-312.8" font-family="Times,serif" font-size="14.00">u</text>
<polygon fill="none" stroke="black" points="1033.5,-306 1033.5,-327 1144.5,-327 1144.5,-306 1033.5,-306"/>
<text text-anchor="start" x="1058" y="-312.8" font-family="Times,serif" font-size="14.00">com_traj</text>
<polygon fill="none" stroke="black" points="1033.5,-285 1033.5,-306 1144.5,-306 1144.5,-285 1033.5,-285"/>
<text text-anchor="start" x="1036.5" y="-291.8" font-family="Times,serif" font-size="14.00">base_joint_traj</text>
</g>
<!-- s2&#45;&gt;s90 -->
<g id="edge7" class="edge">
<title>s2:e&#45;&gt;s90:w</title>
<path fill="none" stroke="black" d="M664.5,-421C686.19,-421 686.42,-403.85 707,-397 795.87,-367.42 824.17,-388.45 916,-370 965.15,-360.13 977.27,-340.8 1022.35,-338.27"/>
<polygon fill="black" stroke="black" points="1022.6,-341.77 1032.5,-338 1022.41,-334.77 1022.6,-341.77"/>
</g>
<!-- s3&#45;&gt;s2 -->
<g id="edge2" class="edge">
<title>s3:e&#45;&gt;s2:w</title>
<path fill="none" stroke="black" d="M909.5,-431C920.62,-431 916.52,-413.7 908.5,-406 892.36,-390.49 725.68,-393.66 707,-406 672.94,-428.51 705.06,-467.99 671,-490.5 611.81,-529.62 83.18,-540.15 32.5,-490.5 20.11,-478.36 13.05,-454.35 22,-445.44"/>
<polygon fill="black" stroke="black" points="23.29,-448.69 31.5,-442 20.91,-442.11 23.29,-448.69"/>
</g>
<!-- s92 -->
<g id="node7" class="node">
<title>s92</title>
<polygon fill="none" stroke="black" points="960.5,-437 960.5,-485 1233.5,-485 1233.5,-437 960.5,-437"/>
<text text-anchor="start" x="1023.5" y="-471.8" font-family="Times,serif" font-weight="bold" font-size="14.00">MeshcatVisualizer</text>
<text text-anchor="start" x="963.5" y="-457.8" font-family="Times,serif" font-size="14.00">name=meshcat_visualizer(visualizer)</text>
<text text-anchor="start" x="1015.5" y="-443.8" font-family="Times,serif" font-size="14.00">path=/drake/visualizer</text>
<polygon fill="none" stroke="black" points="960.5,-416 960.5,-437 1142.5,-437 1142.5,-416 960.5,-416"/>
<text text-anchor="start" x="1005.5" y="-422.8" font-family="Times,serif" font-size="14.00">query_object</text>
<polyline fill="none" stroke="grey" points="1142.5,-416 1233.5,-416 1233.5,-437 "/>
</g>
<!-- s3&#45;&gt;s92 -->
<g id="edge10" class="edge">
<title>s3:e&#45;&gt;s92:w</title>
<path fill="none" stroke="black" d="M909.5,-431C927.99,-431 934.83,-427.57 949.32,-426.39"/>
<polygon fill="black" stroke="black" points="949.64,-429.88 959.5,-426 949.37,-422.89 949.64,-429.88"/>
</g>
<!-- s86 -->
<g id="node3" class="node">
<title>s86</title>
<polygon fill="none" stroke="black" points="256.5,-49 256.5,-70 439.5,-70 439.5,-49 256.5,-49"/>
<text text-anchor="start" x="259.5" y="-56.8" font-family="Times,serif" font-weight="bold" font-size="14.00">ConstantVectorSource</text>
<polyline fill="none" stroke="grey" points="256.5,-49 256.5,-28 338.5,-28 "/>
<polygon fill="none" stroke="black" points="338.5,-28 338.5,-49 439.5,-49 439.5,-28 338.5,-28"/>
<text text-anchor="start" x="380" y="-34.8" font-family="Times,serif" font-size="14.00">y0</text>
</g>
<!-- s86&#45;&gt;s87 -->
<g id="edge6" class="edge">
<title>s86:e&#45;&gt;s87:w</title>
<path fill="none" stroke="black" d="M440.5,-38C544.88,-38 596.94,-9.44 671,-83 733.9,-145.47 640.35,-272.97 714.09,-283.33"/>
<polygon fill="black" stroke="black" points="714.3,-286.85 724.5,-284 714.75,-279.86 714.3,-286.85"/>
</g>
<!-- s87&#45;&gt;s90 -->
<g id="edge8" class="edge">
<title>s87:e&#45;&gt;s90:w</title>
<path fill="none" stroke="black" d="M898.5,-295C955.25,-295 970.48,-313.61 1022.37,-315.79"/>
<polygon fill="black" stroke="black" points="1022.43,-319.29 1032.5,-316 1022.57,-312.3 1022.43,-319.29"/>
</g>
<!-- s89 -->
<g id="node5" class="node">
<title>s89</title>
<polygon fill="none" stroke="black" points="723.5,-227 723.5,-248 899.5,-248 899.5,-227 723.5,-227"/>
<text text-anchor="start" x="726.5" y="-234.8" font-family="Times,serif" font-weight="bold" font-size="14.00">ConstantValueSource</text>
<polyline fill="none" stroke="grey" points="723.5,-227 723.5,-206 802.5,-206 "/>
<polygon fill="none" stroke="black" points="802.5,-206 802.5,-227 899.5,-227 899.5,-206 802.5,-206"/>
<text text-anchor="start" x="842" y="-212.8" font-family="Times,serif" font-size="14.00">y0</text>
</g>
<!-- s89&#45;&gt;s90 -->
<g id="edge9" class="edge">
<title>s89:e&#45;&gt;s90:w</title>
<path fill="none" stroke="black" d="M900.5,-216C965.27,-216 964.43,-286.89 1022.27,-294.36"/>
<polygon fill="black" stroke="black" points="1022.3,-297.87 1032.5,-295 1022.74,-290.89 1022.3,-297.87"/>
</g>
<!-- s90&#45;&gt;s2 -->
<g id="edge3" class="edge">
<title>s90:e&#45;&gt;s2:w</title>
<path fill="none" stroke="black" d="M1161.5,-316C1201.06,-316 1201.16,-229.31 1025,-281 969.76,-297.21 970,-331.02 916,-351 828.05,-383.54 778.92,-319.81 707,-380 667.39,-413.15 712.8,-460.16 671,-490.5 613.59,-532.18 82.85,-540.48 32.5,-490.5 14.13,-472.27 4.53,-383.73 22.47,-362.56"/>
<polygon fill="black" stroke="black" points="24.15,-365.63 31.5,-358 21,-359.38 24.15,-365.63"/>
</g>
<!-- meshcat_in -->
<g id="node8" class="node">
<title>meshcat_in</title>
<ellipse fill="none" stroke="magenta" cx="1327.05" cy="-451" rx="50.09" ry="18"/>
<text text-anchor="middle" x="1327.05" y="-447.3" font-family="Times,serif" font-size="14.00">Meshcat</text>
</g>
<!-- s92&#45;&gt;meshcat_in -->
<g id="edge1" class="edge">
<title>s92:e&#45;&gt;meshcat_in</title>
<path fill="none" stroke="magenta" stroke-dasharray="5,2" d="M1241,-451C1249.19,-451 1257.82,-451 1266.32,-451"/>
<polygon fill="magenta" stroke="magenta" points="1266.58,-454.5 1276.58,-451 1266.58,-447.5 1266.58,-454.5"/>
</g>
</g>
</svg>
