<?xml version="1.0" encoding="UTF-8" standalone="no"?>
<!DOCTYPE svg PUBLIC "-//W3C//DTD SVG 1.1//EN"
 "http://www.w3.org/Graphics/SVG/1.1/DTD/svg11.dtd">
<!-- Generated by graphviz version 2.43.0 (0)
 -->
<!-- Title: _114 Pages: 1 -->
<svg width="1799pt" height="485pt"
 viewBox="0.00 0.00 1799.00 485.00" xmlns="http://www.w3.org/2000/svg" xmlns:xlink="http://www.w3.org/1999/xlink">
<g id="graph0" class="graph" transform="scale(1 1) rotate(0) translate(4 481)">
<title>_114</title>
<polygon fill="white" stroke="transparent" points="-4,4 -4,-481 1795,-481 1795,4 -4,4"/>
<g id="clust1" class="cluster">
<title>cluster114diagram</title>
<polygon fill="none" stroke="black" points="8,-8 8,-469 1783,-469 1783,-8 8,-8"/>
<text text-anchor="start" x="861.5" y="-450.3" font-family="Times,serif" font-weight="bold" font-size="14.00">Diagram</text>
</g>
<g id="clust2" class="cluster">
<title>cluster114subsystems</title>
<polygon fill="none" stroke="white" points="16,-16 16,-430 1775,-430 1775,-16 16,-16"/>
</g>
<!-- s2 -->
<g id="node1" class="node">
<title>s2</title>
<polygon fill="none" stroke="black" points="32.5,-384 32.5,-418 663.5,-418 663.5,-384 32.5,-384"/>
<text text-anchor="start" x="286.5" y="-404.8" font-family="Times,serif" font-weight="bold" font-size="14.00">MultibodyPlant</text>
<text text-anchor="start" x="304" y="-390.8" font-family="Times,serif" font-size="14.00">name=plant</text>
<polygon fill="none" stroke="black" points="32.5,-363 32.5,-384 299.5,-384 299.5,-363 32.5,-363"/>
<text text-anchor="start" x="107.5" y="-369.8" font-family="Times,serif" font-size="14.00">geometry_query</text>
<polygon fill="none" stroke="black" points="299.5,-363 299.5,-384 663.5,-384 663.5,-363 299.5,-363"/>
<text text-anchor="start" x="427" y="-369.8" font-family="Times,serif" font-size="14.00">geometry_pose</text>
<polygon fill="none" stroke="black" points="32.5,-342 32.5,-363 299.5,-363 299.5,-342 32.5,-342"/>
<text text-anchor="start" x="55.5" y="-348.8" font-family="Times,serif" font-size="14.00" fill="grey">WorldModelInstance_actuation</text>
<polygon fill="none" stroke="black" points="299.5,-342 299.5,-363 663.5,-363 663.5,-342 299.5,-342"/>
<text text-anchor="start" x="463" y="-348.8" font-family="Times,serif" font-size="14.00">state</text>
<polygon fill="none" stroke="black" points="32.5,-321 32.5,-342 299.5,-342 299.5,-321 32.5,-321"/>
<text text-anchor="start" x="50" y="-327.8" font-family="Times,serif" font-size="14.00" fill="grey">DefaultModelInstance_actuation</text>
<polygon fill="none" stroke="black" points="299.5,-321 299.5,-342 663.5,-342 663.5,-321 299.5,-321"/>
<text text-anchor="start" x="440.5" y="-327.8" font-family="Times,serif" font-size="14.00">body_poses</text>
<polygon fill="none" stroke="black" points="32.5,-300 32.5,-321 299.5,-321 299.5,-300 32.5,-300"/>
<text text-anchor="start" x="59" y="-306.8" font-family="Times,serif" font-size="14.00">KneedCompassGait_actuation</text>
<polygon fill="none" stroke="black" points="299.5,-300 299.5,-321 663.5,-321 663.5,-300 299.5,-300"/>
<text text-anchor="start" x="420" y="-306.8" font-family="Times,serif" font-size="14.00">spatial_velocities</text>
<polygon fill="none" stroke="black" points="32.5,-279 32.5,-300 299.5,-300 299.5,-279 32.5,-279"/>
<text text-anchor="start" x="132.5" y="-285.8" font-family="Times,serif" font-size="14.00">actuation</text>
<polygon fill="none" stroke="black" points="299.5,-279 299.5,-300 663.5,-300 663.5,-279 299.5,-279"/>
<text text-anchor="start" x="406.5" y="-285.8" font-family="Times,serif" font-size="14.00">spatial_accelerations</text>
<polygon fill="none" stroke="black" points="32.5,-258 32.5,-279 299.5,-279 299.5,-258 32.5,-258"/>
<text text-anchor="start" x="41" y="-264.8" font-family="Times,serif" font-size="14.00" fill="grey">WorldModelInstance_desired_state</text>
<polygon fill="none" stroke="black" points="299.5,-258 299.5,-279 663.5,-279 663.5,-258 299.5,-258"/>
<text text-anchor="start" x="392.5" y="-264.8" font-family="Times,serif" font-size="14.00">generalized_acceleration</text>
<polygon fill="none" stroke="black" points="32.5,-237 32.5,-258 299.5,-258 299.5,-237 32.5,-237"/>
<text text-anchor="start" x="35.5" y="-243.8" font-family="Times,serif" font-size="14.00" fill="grey">DefaultModelInstance_desired_state</text>
<polygon fill="none" stroke="black" points="299.5,-237 299.5,-258 663.5,-258 663.5,-237 299.5,-237"/>
<text text-anchor="start" x="386.5" y="-243.8" font-family="Times,serif" font-size="14.00" fill="grey">WorldModelInstance_state</text>
<polygon fill="none" stroke="black" points="32.5,-216 32.5,-237 299.5,-237 299.5,-216 32.5,-216"/>
<text text-anchor="start" x="44.5" y="-222.8" font-family="Times,serif" font-size="14.00" fill="grey">KneedCompassGait_desired_state</text>
<polygon fill="none" stroke="black" points="299.5,-216 299.5,-237 663.5,-237 663.5,-216 299.5,-216"/>
<text text-anchor="start" x="316" y="-222.8" font-family="Times,serif" font-size="14.00" fill="grey">WorldModelInstance_generalized_acceleration</text>
<polygon fill="none" stroke="black" points="32.5,-195 32.5,-216 299.5,-216 299.5,-195 32.5,-195"/>
<text text-anchor="start" x="73" y="-201.8" font-family="Times,serif" font-size="14.00">applied_generalized_force</text>
<polygon fill="none" stroke="black" points="299.5,-195 299.5,-216 663.5,-216 663.5,-195 299.5,-195"/>
<text text-anchor="start" x="381" y="-201.8" font-family="Times,serif" font-size="14.00" fill="grey">DefaultModelInstance_state</text>
<polygon fill="none" stroke="black" points="32.5,-174 32.5,-195 299.5,-195 299.5,-174 32.5,-174"/>
<text text-anchor="start" x="90.5" y="-180.8" font-family="Times,serif" font-size="14.00">applied_spatial_force</text>
<polygon fill="none" stroke="black" points="299.5,-174 299.5,-195 663.5,-195 663.5,-174 299.5,-174"/>
<text text-anchor="start" x="310.5" y="-180.8" font-family="Times,serif" font-size="14.00" fill="grey">DefaultModelInstance_generalized_acceleration</text>
<polyline fill="none" stroke="grey" points="32.5,-174 32.5,-27 299.5,-27 "/>
<polygon fill="none" stroke="black" points="299.5,-153 299.5,-174 663.5,-174 663.5,-153 299.5,-153"/>
<text text-anchor="start" x="390" y="-159.8" font-family="Times,serif" font-size="14.00">KneedCompassGait_state</text>
<polygon fill="none" stroke="black" points="299.5,-132 299.5,-153 663.5,-153 663.5,-132 299.5,-132"/>
<text text-anchor="start" x="319.5" y="-138.8" font-family="Times,serif" font-size="14.00">KneedCompassGait_generalized_acceleration</text>
<polygon fill="none" stroke="black" points="299.5,-111 299.5,-132 663.5,-132 663.5,-111 299.5,-111"/>
<text text-anchor="start" x="308" y="-117.8" font-family="Times,serif" font-size="14.00" fill="grey">WorldModelInstance_generalized_contact_forces</text>
<polygon fill="none" stroke="black" points="299.5,-90 299.5,-111 663.5,-111 663.5,-90 299.5,-90"/>
<text text-anchor="start" x="302.5" y="-96.8" font-family="Times,serif" font-size="14.00" fill="grey">DefaultModelInstance_generalized_contact_forces</text>
<polygon fill="none" stroke="black" points="299.5,-69 299.5,-90 663.5,-90 663.5,-69 299.5,-69"/>
<text text-anchor="start" x="311.5" y="-75.8" font-family="Times,serif" font-size="14.00">KneedCompassGait_generalized_contact_forces</text>
<polygon fill="none" stroke="black" points="299.5,-48 299.5,-69 663.5,-69 663.5,-48 299.5,-48"/>
<text text-anchor="start" x="427" y="-54.8" font-family="Times,serif" font-size="14.00">reaction_forces</text>
<polygon fill="none" stroke="black" points="299.5,-27 299.5,-48 663.5,-48 663.5,-27 299.5,-27"/>
<text text-anchor="start" x="427" y="-33.8" font-family="Times,serif" font-size="14.00">contact_results</text>
</g>
<!-- s3 -->
<g id="node2" class="node">
<title>s3</title>
<polygon fill="none" stroke="black" points="726.5,-384 726.5,-418 919.5,-418 919.5,-384 726.5,-384"/>
<text text-anchor="start" x="775" y="-404.8" font-family="Times,serif" font-weight="bold" font-size="14.00">SceneGraph</text>
<text text-anchor="start" x="752.5" y="-390.8" font-family="Times,serif" font-size="14.00">name=scene_graph</text>
<polygon fill="none" stroke="black" points="726.5,-363 726.5,-384 871.5,-384 871.5,-363 726.5,-363"/>
<text text-anchor="start" x="760.5" y="-369.8" font-family="Times,serif" font-size="14.00">plant_pose</text>
<polygon fill="none" stroke="black" points="871.5,-342 871.5,-384 919.5,-384 919.5,-342 871.5,-342"/>
<text text-anchor="start" x="874.5" y="-359.3" font-family="Times,serif" font-size="14.00">query</text>
<polygon fill="none" stroke="black" points="726.5,-342 726.5,-363 871.5,-363 871.5,-342 726.5,-342"/>
<text text-anchor="start" x="729.5" y="-348.8" font-family="Times,serif" font-size="14.00">plant_configuration</text>
</g>
<!-- s2&#45;&gt;s3 -->
<g id="edge8" class="edge">
<title>s2:e&#45;&gt;s3:w</title>
<path fill="none" stroke="black" d="M664.5,-374C687.91,-374 696.15,-373.25 715.42,-373.05"/>
<polygon fill="black" stroke="black" points="715.52,-376.55 725.5,-373 715.48,-369.55 715.52,-376.55"/>
</g>
<!-- s90 -->
<g id="node3" class="node">
<title>s90</title>
<polygon fill="none" stroke="black" points="715.5,-199 715.5,-220 930.5,-220 930.5,-199 715.5,-199"/>
<text text-anchor="start" x="718.5" y="-206.8" font-family="Times,serif" font-weight="bold" font-size="14.00">phase_switch.PhaseSwitch</text>
<polygon fill="none" stroke="black" points="715.5,-115 715.5,-199 739.5,-199 739.5,-115 715.5,-115"/>
<text text-anchor="start" x="723" y="-153.3" font-family="Times,serif" font-size="14.00">x</text>
<polygon fill="none" stroke="black" points="739.5,-178 739.5,-199 930.5,-199 930.5,-178 739.5,-178"/>
<text text-anchor="start" x="747.5" y="-184.8" font-family="Times,serif" font-size="14.00">OSCPreflight_Trajectory</text>
<polygon fill="none" stroke="black" points="739.5,-157 739.5,-178 930.5,-178 930.5,-157 739.5,-157"/>
<text text-anchor="start" x="755" y="-163.8" font-family="Times,serif" font-size="14.00">OSCLFight_Trajectory</text>
<polygon fill="none" stroke="black" points="739.5,-136 739.5,-157 930.5,-157 930.5,-136 739.5,-136"/>
<text text-anchor="start" x="750" y="-142.8" font-family="Times,serif" font-size="14.00">OSCLanding_Trajectory</text>
<polygon fill="none" stroke="black" points="739.5,-115 739.5,-136 930.5,-136 930.5,-115 739.5,-115"/>
<text text-anchor="start" x="813.5" y="-121.8" font-family="Times,serif" font-size="14.00">Phase</text>
</g>
<!-- s2&#45;&gt;s90 -->
<g id="edge11" class="edge">
<title>s2:e&#45;&gt;s90:w</title>
<path fill="none" stroke="black" d="M664.5,-353C750.71,-353 634.88,-172.75 704.52,-157.96"/>
<polygon fill="black" stroke="black" points="704.88,-161.44 714.5,-157 704.21,-154.48 704.88,-161.44"/>
</g>
<!-- s88 -->
<g id="node4" class="node">
<title>s88</title>
<polygon fill="none" stroke="black" points="1232,-220 1232,-241 1336,-241 1336,-220 1232,-220"/>
<text text-anchor="start" x="1252" y="-227.8" font-family="Times,serif" font-weight="bold" font-size="14.00">osc.OSC</text>
<polygon fill="none" stroke="black" points="1232,-199 1232,-220 1300,-220 1300,-199 1232,-199"/>
<text text-anchor="start" x="1261.5" y="-205.8" font-family="Times,serif" font-size="14.00">x</text>
<polygon fill="none" stroke="black" points="1300,-199 1300,-220 1336,-220 1336,-199 1300,-199"/>
<text text-anchor="start" x="1313" y="-205.8" font-family="Times,serif" font-size="14.00">u</text>
<polygon fill="none" stroke="black" points="1232,-178 1232,-199 1300,-199 1300,-178 1232,-178"/>
<text text-anchor="start" x="1235" y="-184.8" font-family="Times,serif" font-size="14.00">preflight</text>
<polygon fill="none" stroke="black" points="1300,-178 1300,-199 1336,-199 1336,-178 1300,-178"/>
<text text-anchor="start" x="1303" y="-184.8" font-family="Times,serif" font-size="14.00">logs</text>
<polygon fill="none" stroke="black" points="1232,-157 1232,-178 1300,-178 1300,-157 1232,-157"/>
<text text-anchor="start" x="1247" y="-163.8" font-family="Times,serif" font-size="14.00">flight</text>
<polyline fill="none" stroke="grey" points="1300,-115 1336,-115 1336,-178 "/>
<polygon fill="none" stroke="black" points="1232,-136 1232,-157 1300,-157 1300,-136 1232,-136"/>
<text text-anchor="start" x="1239" y="-142.8" font-family="Times,serif" font-size="14.00">landing</text>
<polygon fill="none" stroke="black" points="1232,-115 1232,-136 1300,-136 1300,-115 1232,-115"/>
<text text-anchor="start" x="1244.5" y="-121.8" font-family="Times,serif" font-size="14.00">phase</text>
</g>
<!-- s2&#45;&gt;s88 -->
<g id="edge3" class="edge">
<title>s2:e&#45;&gt;s88:w</title>
<path fill="none" stroke="black" d="M664.5,-353C686.19,-353 686.84,-337.01 707,-329 805.28,-289.97 838.36,-307.42 938,-272 954.67,-266.07 957.13,-260.35 974,-255 1081.18,-220.99 1113.12,-210.62 1220.7,-210.03"/>
<polygon fill="black" stroke="black" points="1221.01,-213.53 1231,-210 1220.99,-206.53 1221.01,-213.53"/>
</g>
<!-- s3&#45;&gt;s2 -->
<g id="edge9" class="edge">
<title>s3:e&#45;&gt;s2:w</title>
<path fill="none" stroke="black" d="M920.5,-363C931.62,-363 927.52,-345.7 919.5,-338 903.36,-322.49 737.3,-326.65 718,-338 680.96,-359.78 708.04,-400.72 671,-422.5 609.85,-458.46 83.18,-472.15 32.5,-422.5 20.11,-410.36 13.05,-386.35 22,-377.44"/>
<polygon fill="black" stroke="black" points="23.29,-380.69 31.5,-374 20.91,-374.11 23.29,-380.69"/>
</g>
<!-- s93 -->
<g id="node6" class="node">
<title>s93</title>
<polygon fill="none" stroke="black" points="982,-383 982,-417 1586,-417 1586,-383 982,-383"/>
<text text-anchor="start" x="985" y="-403.8" font-family="Times,serif" font-weight="bold" font-size="14.00">pydrake.systems.planar_scenegraph_visualizer.PlanarSceneGraphVisualizer</text>
<text text-anchor="start" x="1153" y="-389.8" font-family="Times,serif" font-size="14.00">name=planar_scenegraph_visualizer</text>
<polygon fill="none" stroke="black" points="982,-362 982,-383 1342,-383 1342,-362 982,-362"/>
<text text-anchor="start" x="1103.5" y="-368.8" font-family="Times,serif" font-size="14.00">geometry_query</text>
<polyline fill="none" stroke="grey" points="1342,-362 1586,-362 1586,-383 "/>
</g>
<!-- s3&#45;&gt;s93 -->
<g id="edge12" class="edge">
<title>s3:e&#45;&gt;s93:w</title>
<path fill="none" stroke="black" d="M920.5,-363C943.97,-363 951.75,-369.71 970.92,-371.54"/>
<polygon fill="black" stroke="black" points="970.85,-375.04 981,-372 971.17,-368.05 970.85,-375.04"/>
</g>
<!-- s94 -->
<g id="node7" class="node">
<title>s94</title>
<polygon fill="none" stroke="black" points="1148,-288 1148,-336 1421,-336 1421,-288 1148,-288"/>
<text text-anchor="start" x="1211" y="-322.8" font-family="Times,serif" font-weight="bold" font-size="14.00">MeshcatVisualizer</text>
<text text-anchor="start" x="1151" y="-308.8" font-family="Times,serif" font-size="14.00">name=meshcat_visualizer(visualizer)</text>
<text text-anchor="start" x="1203" y="-294.8" font-family="Times,serif" font-size="14.00">path=/drake/visualizer</text>
<polygon fill="none" stroke="black" points="1148,-267 1148,-288 1330,-288 1330,-267 1148,-267"/>
<text text-anchor="start" x="1193" y="-273.8" font-family="Times,serif" font-size="14.00">query_object</text>
<polyline fill="none" stroke="grey" points="1330,-267 1421,-267 1421,-288 "/>
</g>
<!-- s3&#45;&gt;s94 -->
<g id="edge13" class="edge">
<title>s3:e&#45;&gt;s94:w</title>
<path fill="none" stroke="black" d="M920.5,-363C971.18,-363 1079.46,-286.78 1136.89,-277.85"/>
<polygon fill="black" stroke="black" points="1137.33,-281.33 1147,-277 1136.74,-274.35 1137.33,-281.33"/>
</g>
<!-- s90&#45;&gt;s88 -->
<g id="edge4" class="edge">
<title>s90:e&#45;&gt;s88:w</title>
<path fill="none" stroke="black" d="M931.5,-189C1061.1,-189 1096.06,-189 1220.68,-189"/>
<polygon fill="black" stroke="black" points="1221,-192.5 1231,-189 1221,-185.5 1221,-192.5"/>
</g>
<!-- s90&#45;&gt;s88 -->
<g id="edge5" class="edge">
<title>s90:e&#45;&gt;s88:w</title>
<path fill="none" stroke="black" d="M931.5,-167C1061.1,-167 1096.06,-167 1220.68,-167"/>
<polygon fill="black" stroke="black" points="1221,-170.5 1231,-167 1221,-163.5 1221,-170.5"/>
</g>
<!-- s90&#45;&gt;s88 -->
<g id="edge6" class="edge">
<title>s90:e&#45;&gt;s88:w</title>
<path fill="none" stroke="black" d="M931.5,-146C1061.1,-146 1096.06,-146 1220.68,-146"/>
<polygon fill="black" stroke="black" points="1221,-149.5 1231,-146 1221,-142.5 1221,-149.5"/>
</g>
<!-- s90&#45;&gt;s88 -->
<g id="edge7" class="edge">
<title>s90:e&#45;&gt;s88:w</title>
<path fill="none" stroke="black" d="M931.5,-125C1061.1,-125 1096.06,-125 1220.68,-125"/>
<polygon fill="black" stroke="black" points="1221,-128.5 1231,-125 1221,-121.5 1221,-128.5"/>
</g>
<!-- s88&#45;&gt;s2 -->
<g id="edge10" class="edge">
<title>s88:e&#45;&gt;s2:w</title>
<path fill="none" stroke="black" d="M1337,-210C1352.56,-210 1347.01,-234 1336,-245 1328.88,-252.11 984.05,-254.54 974,-255 855.22,-260.42 797.96,-195.42 707,-272 654.39,-316.3 724.99,-379.9 671,-422.5 615.3,-466.44 82.85,-472.48 32.5,-422.5 14.13,-404.27 4.53,-315.73 22.47,-294.56"/>
<polygon fill="black" stroke="black" points="24.15,-297.63 31.5,-290 21,-291.38 24.15,-297.63"/>
</g>
<!-- s92 -->
<g id="node5" class="node">
<title>s92</title>
<polygon fill="none" stroke="black" points="1638.5,-200 1638.5,-221 1759.5,-221 1759.5,-200 1638.5,-200"/>
<text text-anchor="start" x="1641.5" y="-207.8" font-family="Times,serif" font-weight="bold" font-size="14.00">VectorLogSink</text>
<polygon fill="none" stroke="black" points="1638.5,-179 1638.5,-200 1714.5,-200 1714.5,-179 1638.5,-179"/>
<text text-anchor="start" x="1660.5" y="-185.8" font-family="Times,serif" font-size="14.00">data</text>
<polyline fill="none" stroke="grey" points="1714.5,-179 1759.5,-179 1759.5,-200 "/>
</g>
<!-- s88&#45;&gt;s92 -->
<g id="edge2" class="edge">
<title>s88:e&#45;&gt;s92:w</title>
<path fill="none" stroke="black" d="M1337,-189C1467.03,-189 1502.11,-189 1627.14,-189"/>
<polygon fill="black" stroke="black" points="1627.5,-192.5 1637.5,-189 1627.5,-185.5 1627.5,-192.5"/>
</g>
<!-- meshcat_in -->
<g id="node8" class="node">
<title>meshcat_in</title>
<ellipse fill="none" stroke="magenta" cx="1698.5" cy="-302" rx="50.09" ry="18"/>
<text text-anchor="middle" x="1698.5" y="-298.3" font-family="Times,serif" font-size="14.00">Meshcat</text>
</g>
<!-- s94&#45;&gt;meshcat_in -->
<g id="edge1" class="edge">
<title>s94:e&#45;&gt;meshcat_in</title>
<path fill="none" stroke="magenta" stroke-dasharray="5,2" d="M1430,-302C1501.55,-302 1583.87,-302 1638.08,-302"/>
<polygon fill="magenta" stroke="magenta" points="1638.2,-305.5 1648.2,-302 1638.2,-298.5 1638.2,-305.5"/>
</g>
</g>
</svg>
