<?xml version="1.0" encoding="UTF-8" standalone="no"?>
<!DOCTYPE svg PUBLIC "-//W3C//DTD SVG 1.1//EN"
 "http://www.w3.org/Graphics/SVG/1.1/DTD/svg11.dtd">
<!-- Generated by graphviz version 2.43.0 (0)
 -->
<!-- Title: _113 Pages: 1 -->
<svg width="1468pt" height="485pt"
 viewBox="0.00 0.00 1468.00 485.00" xmlns="http://www.w3.org/2000/svg" xmlns:xlink="http://www.w3.org/1999/xlink">
<g id="graph0" class="graph" transform="scale(1 1) rotate(0) translate(4 481)">
<title>_113</title>
<polygon fill="white" stroke="transparent" points="-4,4 -4,-481 1464,-481 1464,4 -4,4"/>
<g id="clust1" class="cluster">
<title>cluster113diagram</title>
<polygon fill="none" stroke="black" points="8,-8 8,-469 1452,-469 1452,-8 8,-8"/>
<text text-anchor="start" x="696" y="-450.3" font-family="Times,serif" font-weight="bold" font-size="14.00">Diagram</text>
</g>
<g id="clust2" class="cluster">
<title>cluster113subsystems</title>
<polygon fill="none" stroke="white" points="16,-16 16,-430 1444,-430 1444,-16 16,-16"/>
</g>
<!-- s2 -->
<g id="node1" class="node">
<title>s2</title>
<polygon fill="none" stroke="black" points="32.5,-384 32.5,-418 663.5,-418 663.5,-384 32.5,-384"/>
<text text-anchor="start" x="286.5" y="-404.8" font-family="Times,serif" font-weight="bold" font-size="14.00">MultibodyPlant</text>
<text text-anchor="start" x="304" y="-390.8" font-family="Times,serif" font-size="14.00">name=plant</text>
<polygon fill="none" stroke="black" points="32.5,-363 32.5,-384 299.5,-384 299.5,-363 32.5,-363"/>
<text text-anchor="start" x="107.5" y="-369.8" font-family="Times,serif" font-size="14.00">geometry_query</text>
<polygon fill="none" stroke="black" points="299.5,-363 299.5,-384 663.5,-384 663.5,-363 299.5,-363"/>
<text text-anchor="start" x="427" y="-369.8" font-family="Times,serif" font-size="14.00">geometry_pose</text>
<polygon fill="none" stroke="black" points="32.5,-342 32.5,-363 299.5,-363 299.5,-342 32.5,-342"/>
<text text-anchor="start" x="55.5" y="-348.8" font-family="Times,serif" font-size="14.00" fill="grey">WorldModelInstance_actuation</text>
<polygon fill="none" stroke="black" points="299.5,-342 299.5,-363 663.5,-363 663.5,-342 299.5,-342"/>
<text text-anchor="start" x="463" y="-348.8" font-family="Times,serif" font-size="14.00">state</text>
<polygon fill="none" stroke="black" points="32.5,-321 32.5,-342 299.5,-342 299.5,-321 32.5,-321"/>
<text text-anchor="start" x="50" y="-327.8" font-family="Times,serif" font-size="14.00" fill="grey">DefaultModelInstance_actuation</text>
<polygon fill="none" stroke="black" points="299.5,-321 299.5,-342 663.5,-342 663.5,-321 299.5,-321"/>
<text text-anchor="start" x="440.5" y="-327.8" font-family="Times,serif" font-size="14.00">body_poses</text>
<polygon fill="none" stroke="black" points="32.5,-300 32.5,-321 299.5,-321 299.5,-300 32.5,-300"/>
<text text-anchor="start" x="59" y="-306.8" font-family="Times,serif" font-size="14.00">KneedCompassGait_actuation</text>
<polygon fill="none" stroke="black" points="299.5,-300 299.5,-321 663.5,-321 663.5,-300 299.5,-300"/>
<text text-anchor="start" x="420" y="-306.8" font-family="Times,serif" font-size="14.00">spatial_velocities</text>
<polygon fill="none" stroke="black" points="32.5,-279 32.5,-300 299.5,-300 299.5,-279 32.5,-279"/>
<text text-anchor="start" x="132.5" y="-285.8" font-family="Times,serif" font-size="14.00">actuation</text>
<polygon fill="none" stroke="black" points="299.5,-279 299.5,-300 663.5,-300 663.5,-279 299.5,-279"/>
<text text-anchor="start" x="406.5" y="-285.8" font-family="Times,serif" font-size="14.00">spatial_accelerations</text>
<polygon fill="none" stroke="black" points="32.5,-258 32.5,-279 299.5,-279 299.5,-258 32.5,-258"/>
<text text-anchor="start" x="41" y="-264.8" font-family="Times,serif" font-size="14.00" fill="grey">WorldModelInstance_desired_state</text>
<polygon fill="none" stroke="black" points="299.5,-258 299.5,-279 663.5,-279 663.5,-258 299.5,-258"/>
<text text-anchor="start" x="392.5" y="-264.8" font-family="Times,serif" font-size="14.00">generalized_acceleration</text>
<polygon fill="none" stroke="black" points="32.5,-237 32.5,-258 299.5,-258 299.5,-237 32.5,-237"/>
<text text-anchor="start" x="35.5" y="-243.8" font-family="Times,serif" font-size="14.00" fill="grey">DefaultModelInstance_desired_state</text>
<polygon fill="none" stroke="black" points="299.5,-237 299.5,-258 663.5,-258 663.5,-237 299.5,-237"/>
<text text-anchor="start" x="386.5" y="-243.8" font-family="Times,serif" font-size="14.00" fill="grey">WorldModelInstance_state</text>
<polygon fill="none" stroke="black" points="32.5,-216 32.5,-237 299.5,-237 299.5,-216 32.5,-216"/>
<text text-anchor="start" x="44.5" y="-222.8" font-family="Times,serif" font-size="14.00" fill="grey">KneedCompassGait_desired_state</text>
<polygon fill="none" stroke="black" points="299.5,-216 299.5,-237 663.5,-237 663.5,-216 299.5,-216"/>
<text text-anchor="start" x="316" y="-222.8" font-family="Times,serif" font-size="14.00" fill="grey">WorldModelInstance_generalized_acceleration</text>
<polygon fill="none" stroke="black" points="32.5,-195 32.5,-216 299.5,-216 299.5,-195 32.5,-195"/>
<text text-anchor="start" x="73" y="-201.8" font-family="Times,serif" font-size="14.00">applied_generalized_force</text>
<polygon fill="none" stroke="black" points="299.5,-195 299.5,-216 663.5,-216 663.5,-195 299.5,-195"/>
<text text-anchor="start" x="381" y="-201.8" font-family="Times,serif" font-size="14.00" fill="grey">DefaultModelInstance_state</text>
<polygon fill="none" stroke="black" points="32.5,-174 32.5,-195 299.5,-195 299.5,-174 32.5,-174"/>
<text text-anchor="start" x="90.5" y="-180.8" font-family="Times,serif" font-size="14.00">applied_spatial_force</text>
<polygon fill="none" stroke="black" points="299.5,-174 299.5,-195 663.5,-195 663.5,-174 299.5,-174"/>
<text text-anchor="start" x="310.5" y="-180.8" font-family="Times,serif" font-size="14.00" fill="grey">DefaultModelInstance_generalized_acceleration</text>
<polyline fill="none" stroke="grey" points="32.5,-174 32.5,-27 299.5,-27 "/>
<polygon fill="none" stroke="black" points="299.5,-153 299.5,-174 663.5,-174 663.5,-153 299.5,-153"/>
<text text-anchor="start" x="390" y="-159.8" font-family="Times,serif" font-size="14.00">KneedCompassGait_state</text>
<polygon fill="none" stroke="black" points="299.5,-132 299.5,-153 663.5,-153 663.5,-132 299.5,-132"/>
<text text-anchor="start" x="319.5" y="-138.8" font-family="Times,serif" font-size="14.00">KneedCompassGait_generalized_acceleration</text>
<polygon fill="none" stroke="black" points="299.5,-111 299.5,-132 663.5,-132 663.5,-111 299.5,-111"/>
<text text-anchor="start" x="308" y="-117.8" font-family="Times,serif" font-size="14.00" fill="grey">WorldModelInstance_generalized_contact_forces</text>
<polygon fill="none" stroke="black" points="299.5,-90 299.5,-111 663.5,-111 663.5,-90 299.5,-90"/>
<text text-anchor="start" x="302.5" y="-96.8" font-family="Times,serif" font-size="14.00" fill="grey">DefaultModelInstance_generalized_contact_forces</text>
<polygon fill="none" stroke="black" points="299.5,-69 299.5,-90 663.5,-90 663.5,-69 299.5,-69"/>
<text text-anchor="start" x="311.5" y="-75.8" font-family="Times,serif" font-size="14.00">KneedCompassGait_generalized_contact_forces</text>
<polygon fill="none" stroke="black" points="299.5,-48 299.5,-69 663.5,-69 663.5,-48 299.5,-48"/>
<text text-anchor="start" x="427" y="-54.8" font-family="Times,serif" font-size="14.00">reaction_forces</text>
<polygon fill="none" stroke="black" points="299.5,-27 299.5,-48 663.5,-48 663.5,-27 299.5,-27"/>
<text text-anchor="start" x="427" y="-33.8" font-family="Times,serif" font-size="14.00">contact_results</text>
</g>
<!-- s3 -->
<g id="node2" class="node">
<title>s3</title>
<polygon fill="none" stroke="black" points="726.5,-384 726.5,-418 919.5,-418 919.5,-384 726.5,-384"/>
<text text-anchor="start" x="775" y="-404.8" font-family="Times,serif" font-weight="bold" font-size="14.00">SceneGraph</text>
<text text-anchor="start" x="752.5" y="-390.8" font-family="Times,serif" font-size="14.00">name=scene_graph</text>
<polygon fill="none" stroke="black" points="726.5,-363 726.5,-384 871.5,-384 871.5,-363 726.5,-363"/>
<text text-anchor="start" x="760.5" y="-369.8" font-family="Times,serif" font-size="14.00">plant_pose</text>
<polygon fill="none" stroke="black" points="871.5,-342 871.5,-384 919.5,-384 919.5,-342 871.5,-342"/>
<text text-anchor="start" x="874.5" y="-359.3" font-family="Times,serif" font-size="14.00">query</text>
<polygon fill="none" stroke="black" points="726.5,-342 726.5,-363 871.5,-363 871.5,-342 726.5,-342"/>
<text text-anchor="start" x="729.5" y="-348.8" font-family="Times,serif" font-size="14.00">plant_configuration</text>
</g>
<!-- s2&#45;&gt;s3 -->
<g id="edge2" class="edge">
<title>s2:e&#45;&gt;s3:w</title>
<path fill="none" stroke="black" d="M664.5,-374C687.91,-374 696.15,-373.25 715.42,-373.05"/>
<polygon fill="black" stroke="black" points="715.52,-376.55 725.5,-373 715.48,-369.55 715.52,-376.55"/>
</g>
<!-- s90 -->
<g id="node3" class="node">
<title>s90</title>
<polygon fill="none" stroke="black" points="715.5,-254 715.5,-275 930.5,-275 930.5,-254 715.5,-254"/>
<text text-anchor="start" x="718.5" y="-261.8" font-family="Times,serif" font-weight="bold" font-size="14.00">phase_switch.PhaseSwitch</text>
<polygon fill="none" stroke="black" points="715.5,-170 715.5,-254 739.5,-254 739.5,-170 715.5,-170"/>
<text text-anchor="start" x="723" y="-208.3" font-family="Times,serif" font-size="14.00">x</text>
<polygon fill="none" stroke="black" points="739.5,-233 739.5,-254 930.5,-254 930.5,-233 739.5,-233"/>
<text text-anchor="start" x="747.5" y="-239.8" font-family="Times,serif" font-size="14.00">OSCPreflight_Trajectory</text>
<polygon fill="none" stroke="black" points="739.5,-212 739.5,-233 930.5,-233 930.5,-212 739.5,-212"/>
<text text-anchor="start" x="755" y="-218.8" font-family="Times,serif" font-size="14.00">OSCLFight_Trajectory</text>
<polygon fill="none" stroke="black" points="739.5,-191 739.5,-212 930.5,-212 930.5,-191 739.5,-191"/>
<text text-anchor="start" x="750" y="-197.8" font-family="Times,serif" font-size="14.00">OSCLanding_Trajectory</text>
<polygon fill="none" stroke="black" points="739.5,-170 739.5,-191 930.5,-191 930.5,-170 739.5,-170"/>
<text text-anchor="start" x="813.5" y="-176.8" font-family="Times,serif" font-size="14.00">Phase</text>
</g>
<!-- s2&#45;&gt;s90 -->
<g id="edge11" class="edge">
<title>s2:e&#45;&gt;s90:w</title>
<path fill="none" stroke="black" d="M664.5,-353C727.09,-353 657.22,-228.04 704.29,-213.4"/>
<polygon fill="black" stroke="black" points="705.07,-216.82 714.5,-212 704.12,-209.89 705.07,-216.82"/>
</g>
<!-- s88 -->
<g id="node4" class="node">
<title>s88</title>
<polygon fill="none" stroke="black" points="1066.5,-275 1066.5,-296 1170.5,-296 1170.5,-275 1066.5,-275"/>
<text text-anchor="start" x="1086.5" y="-282.8" font-family="Times,serif" font-weight="bold" font-size="14.00">osc.OSC</text>
<polygon fill="none" stroke="black" points="1066.5,-254 1066.5,-275 1134.5,-275 1134.5,-254 1066.5,-254"/>
<text text-anchor="start" x="1096" y="-260.8" font-family="Times,serif" font-size="14.00">x</text>
<polygon fill="none" stroke="black" points="1134.5,-254 1134.5,-275 1170.5,-275 1170.5,-254 1134.5,-254"/>
<text text-anchor="start" x="1147.5" y="-260.8" font-family="Times,serif" font-size="14.00">u</text>
<polygon fill="none" stroke="black" points="1066.5,-233 1066.5,-254 1134.5,-254 1134.5,-233 1066.5,-233"/>
<text text-anchor="start" x="1069.5" y="-239.8" font-family="Times,serif" font-size="14.00">preflight</text>
<polygon fill="none" stroke="black" points="1134.5,-233 1134.5,-254 1170.5,-254 1170.5,-233 1134.5,-233"/>
<text text-anchor="start" x="1137.5" y="-239.8" font-family="Times,serif" font-size="14.00">logs</text>
<polygon fill="none" stroke="black" points="1066.5,-212 1066.5,-233 1134.5,-233 1134.5,-212 1066.5,-212"/>
<text text-anchor="start" x="1081.5" y="-218.8" font-family="Times,serif" font-size="14.00">flight</text>
<polyline fill="none" stroke="grey" points="1134.5,-170 1170.5,-170 1170.5,-233 "/>
<polygon fill="none" stroke="black" points="1066.5,-191 1066.5,-212 1134.5,-212 1134.5,-191 1066.5,-191"/>
<text text-anchor="start" x="1073.5" y="-197.8" font-family="Times,serif" font-size="14.00">landing</text>
<polygon fill="none" stroke="black" points="1066.5,-170 1066.5,-191 1134.5,-191 1134.5,-170 1066.5,-170"/>
<text text-anchor="start" x="1079" y="-176.8" font-family="Times,serif" font-size="14.00">phase</text>
</g>
<!-- s2&#45;&gt;s88 -->
<g id="edge3" class="edge">
<title>s2:e&#45;&gt;s88:w</title>
<path fill="none" stroke="black" d="M664.5,-353C686.19,-353 686.35,-335.64 707,-329 805.31,-297.41 836.84,-324.75 938,-304 992.53,-292.81 1004.83,-268.23 1055.25,-265.29"/>
<polygon fill="black" stroke="black" points="1055.6,-268.78 1065.5,-265 1055.41,-261.78 1055.6,-268.78"/>
</g>
<!-- s3&#45;&gt;s2 -->
<g id="edge9" class="edge">
<title>s3:e&#45;&gt;s2:w</title>
<path fill="none" stroke="black" d="M920.5,-363C931.62,-363 927.52,-345.7 919.5,-338 903.36,-322.49 737.3,-326.65 718,-338 680.96,-359.78 708.04,-400.72 671,-422.5 609.85,-458.46 83.18,-472.15 32.5,-422.5 20.11,-410.36 13.05,-386.35 22,-377.44"/>
<polygon fill="black" stroke="black" points="23.29,-380.69 31.5,-374 20.91,-374.11 23.29,-380.69"/>
</g>
<!-- s93 -->
<g id="node6" class="node">
<title>s93</title>
<polygon fill="none" stroke="black" points="982.5,-369 982.5,-417 1255.5,-417 1255.5,-369 982.5,-369"/>
<text text-anchor="start" x="1045.5" y="-403.8" font-family="Times,serif" font-weight="bold" font-size="14.00">MeshcatVisualizer</text>
<text text-anchor="start" x="985.5" y="-389.8" font-family="Times,serif" font-size="14.00">name=meshcat_visualizer(visualizer)</text>
<text text-anchor="start" x="1037.5" y="-375.8" font-family="Times,serif" font-size="14.00">path=/drake/visualizer</text>
<polygon fill="none" stroke="black" points="982.5,-348 982.5,-369 1164.5,-369 1164.5,-348 982.5,-348"/>
<text text-anchor="start" x="1027.5" y="-354.8" font-family="Times,serif" font-size="14.00">query_object</text>
<polyline fill="none" stroke="grey" points="1164.5,-348 1255.5,-348 1255.5,-369 "/>
</g>
<!-- s3&#45;&gt;s93 -->
<g id="edge12" class="edge">
<title>s3:e&#45;&gt;s93:w</title>
<path fill="none" stroke="black" d="M920.5,-363C943.98,-363 952.11,-359.27 971.39,-358.25"/>
<polygon fill="black" stroke="black" points="971.59,-361.75 981.5,-358 971.41,-354.75 971.59,-361.75"/>
</g>
<!-- s90&#45;&gt;s88 -->
<g id="edge4" class="edge">
<title>s90:e&#45;&gt;s88:w</title>
<path fill="none" stroke="black" d="M931.5,-244C987.57,-244 1004.05,-244 1055.47,-244"/>
<polygon fill="black" stroke="black" points="1055.5,-247.5 1065.5,-244 1055.5,-240.5 1055.5,-247.5"/>
</g>
<!-- s90&#45;&gt;s88 -->
<g id="edge5" class="edge">
<title>s90:e&#45;&gt;s88:w</title>
<path fill="none" stroke="black" d="M931.5,-222C987.57,-222 1004.05,-222 1055.47,-222"/>
<polygon fill="black" stroke="black" points="1055.5,-225.5 1065.5,-222 1055.5,-218.5 1055.5,-225.5"/>
</g>
<!-- s90&#45;&gt;s88 -->
<g id="edge6" class="edge">
<title>s90:e&#45;&gt;s88:w</title>
<path fill="none" stroke="black" d="M931.5,-201C987.57,-201 1004.05,-201 1055.47,-201"/>
<polygon fill="black" stroke="black" points="1055.5,-204.5 1065.5,-201 1055.5,-197.5 1055.5,-204.5"/>
</g>
<!-- s90&#45;&gt;s88 -->
<g id="edge7" class="edge">
<title>s90:e&#45;&gt;s88:w</title>
<path fill="none" stroke="black" d="M931.5,-180C987.57,-180 1004.05,-180 1055.47,-180"/>
<polygon fill="black" stroke="black" points="1055.5,-183.5 1065.5,-180 1055.5,-176.5 1055.5,-183.5"/>
</g>
<!-- s88&#45;&gt;s2 -->
<g id="edge10" class="edge">
<title>s88:e&#45;&gt;s2:w</title>
<path fill="none" stroke="black" d="M1171.5,-265C1187.06,-265 1181.61,-289.11 1170.5,-300 1133.72,-336.05 748.24,-273.15 707,-304 662.92,-336.97 715.22,-389.72 671,-422.5 614.01,-464.75 82.85,-472.48 32.5,-422.5 14.13,-404.27 4.53,-315.73 22.47,-294.56"/>
<polygon fill="black" stroke="black" points="24.15,-297.63 31.5,-290 21,-291.38 24.15,-297.63"/>
</g>
<!-- s92 -->
<g id="node5" class="node">
<title>s92</title>
<polygon fill="none" stroke="black" points="1307.5,-255 1307.5,-276 1428.5,-276 1428.5,-255 1307.5,-255"/>
<text text-anchor="start" x="1310.5" y="-262.8" font-family="Times,serif" font-weight="bold" font-size="14.00">VectorLogSink</text>
<polygon fill="none" stroke="black" points="1307.5,-234 1307.5,-255 1383.5,-255 1383.5,-234 1307.5,-234"/>
<text text-anchor="start" x="1329.5" y="-240.8" font-family="Times,serif" font-size="14.00">data</text>
<polyline fill="none" stroke="grey" points="1383.5,-234 1428.5,-234 1428.5,-255 "/>
</g>
<!-- s88&#45;&gt;s92 -->
<g id="edge8" class="edge">
<title>s88:e&#45;&gt;s92:w</title>
<path fill="none" stroke="black" d="M1171.5,-244C1227.98,-244 1244.59,-244 1296.4,-244"/>
<polygon fill="black" stroke="black" points="1296.5,-247.5 1306.5,-244 1296.5,-240.5 1296.5,-247.5"/>
</g>
<!-- meshcat_in -->
<g id="node7" class="node">
<title>meshcat_in</title>
<ellipse fill="none" stroke="magenta" cx="1367.5" cy="-383" rx="50.09" ry="18"/>
<text text-anchor="middle" x="1367.5" y="-379.3" font-family="Times,serif" font-size="14.00">Meshcat</text>
</g>
<!-- s93&#45;&gt;meshcat_in -->
<g id="edge1" class="edge">
<title>s93:e&#45;&gt;meshcat_in</title>
<path fill="none" stroke="magenta" stroke-dasharray="5,2" d="M1263,-383C1277.24,-383 1292.59,-383 1306.99,-383"/>
<polygon fill="magenta" stroke="magenta" points="1307.27,-386.5 1317.27,-383 1307.27,-379.5 1307.27,-386.5"/>
</g>
</g>
</svg>
