<?xml version="1.0" encoding="UTF-8" standalone="no"?>
<!DOCTYPE svg PUBLIC "-//W3C//DTD SVG 1.1//EN"
 "http://www.w3.org/Graphics/SVG/1.1/DTD/svg11.dtd">
<!-- Generated by graphviz version 2.43.0 (0)
 -->
<!-- Title: _113 Pages: 1 -->
<svg width="1568pt" height="621pt"
 viewBox="0.00 0.00 1568.00 621.00" xmlns="http://www.w3.org/2000/svg" xmlns:xlink="http://www.w3.org/1999/xlink">
<g id="graph0" class="graph" transform="scale(1 1) rotate(0) translate(4 617)">
<title>_113</title>
<polygon fill="white" stroke="transparent" points="-4,4 -4,-617 1564,-617 1564,4 -4,4"/>
<g id="clust1" class="cluster">
<title>cluster113diagram</title>
<polygon fill="none" stroke="black" points="8,-8 8,-605 1552,-605 1552,-8 8,-8"/>
<text text-anchor="start" x="746" y="-586.3" font-family="Times,serif" font-weight="bold" font-size="14.00">Diagram</text>
</g>
<g id="clust2" class="cluster">
<title>cluster113subsystems</title>
<polygon fill="none" stroke="white" points="16,-16 16,-566 1544,-566 1544,-16 16,-16"/>
</g>
<!-- s2 -->
<g id="node1" class="node">
<title>s2</title>
<polygon fill="none" stroke="black" points="32.5,-520 32.5,-554 663.5,-554 663.5,-520 32.5,-520"/>
<text text-anchor="start" x="286.5" y="-540.8" font-family="Times,serif" font-weight="bold" font-size="14.00">MultibodyPlant</text>
<text text-anchor="start" x="304" y="-526.8" font-family="Times,serif" font-size="14.00">name=plant</text>
<polygon fill="none" stroke="black" points="32.5,-499 32.5,-520 299.5,-520 299.5,-499 32.5,-499"/>
<text text-anchor="start" x="107.5" y="-505.8" font-family="Times,serif" font-size="14.00">geometry_query</text>
<polygon fill="none" stroke="black" points="299.5,-499 299.5,-520 663.5,-520 663.5,-499 299.5,-499"/>
<text text-anchor="start" x="427" y="-505.8" font-family="Times,serif" font-size="14.00">geometry_pose</text>
<polygon fill="none" stroke="black" points="32.5,-478 32.5,-499 299.5,-499 299.5,-478 32.5,-478"/>
<text text-anchor="start" x="55.5" y="-484.8" font-family="Times,serif" font-size="14.00" fill="grey">WorldModelInstance_actuation</text>
<polygon fill="none" stroke="black" points="299.5,-478 299.5,-499 663.5,-499 663.5,-478 299.5,-478"/>
<text text-anchor="start" x="463" y="-484.8" font-family="Times,serif" font-size="14.00">state</text>
<polygon fill="none" stroke="black" points="32.5,-457 32.5,-478 299.5,-478 299.5,-457 32.5,-457"/>
<text text-anchor="start" x="50" y="-463.8" font-family="Times,serif" font-size="14.00" fill="grey">DefaultModelInstance_actuation</text>
<polygon fill="none" stroke="black" points="299.5,-457 299.5,-478 663.5,-478 663.5,-457 299.5,-457"/>
<text text-anchor="start" x="440.5" y="-463.8" font-family="Times,serif" font-size="14.00">body_poses</text>
<polygon fill="none" stroke="black" points="32.5,-436 32.5,-457 299.5,-457 299.5,-436 32.5,-436"/>
<text text-anchor="start" x="59" y="-442.8" font-family="Times,serif" font-size="14.00">KneedCompassGait_actuation</text>
<polygon fill="none" stroke="black" points="299.5,-436 299.5,-457 663.5,-457 663.5,-436 299.5,-436"/>
<text text-anchor="start" x="420" y="-442.8" font-family="Times,serif" font-size="14.00">spatial_velocities</text>
<polygon fill="none" stroke="black" points="32.5,-415 32.5,-436 299.5,-436 299.5,-415 32.5,-415"/>
<text text-anchor="start" x="132.5" y="-421.8" font-family="Times,serif" font-size="14.00">actuation</text>
<polygon fill="none" stroke="black" points="299.5,-415 299.5,-436 663.5,-436 663.5,-415 299.5,-415"/>
<text text-anchor="start" x="406.5" y="-421.8" font-family="Times,serif" font-size="14.00">spatial_accelerations</text>
<polygon fill="none" stroke="black" points="32.5,-394 32.5,-415 299.5,-415 299.5,-394 32.5,-394"/>
<text text-anchor="start" x="41" y="-400.8" font-family="Times,serif" font-size="14.00" fill="grey">WorldModelInstance_desired_state</text>
<polygon fill="none" stroke="black" points="299.5,-394 299.5,-415 663.5,-415 663.5,-394 299.5,-394"/>
<text text-anchor="start" x="392.5" y="-400.8" font-family="Times,serif" font-size="14.00">generalized_acceleration</text>
<polygon fill="none" stroke="black" points="32.5,-373 32.5,-394 299.5,-394 299.5,-373 32.5,-373"/>
<text text-anchor="start" x="35.5" y="-379.8" font-family="Times,serif" font-size="14.00" fill="grey">DefaultModelInstance_desired_state</text>
<polygon fill="none" stroke="black" points="299.5,-373 299.5,-394 663.5,-394 663.5,-373 299.5,-373"/>
<text text-anchor="start" x="386.5" y="-379.8" font-family="Times,serif" font-size="14.00" fill="grey">WorldModelInstance_state</text>
<polygon fill="none" stroke="black" points="32.5,-352 32.5,-373 299.5,-373 299.5,-352 32.5,-352"/>
<text text-anchor="start" x="44.5" y="-358.8" font-family="Times,serif" font-size="14.00" fill="grey">KneedCompassGait_desired_state</text>
<polygon fill="none" stroke="black" points="299.5,-352 299.5,-373 663.5,-373 663.5,-352 299.5,-352"/>
<text text-anchor="start" x="316" y="-358.8" font-family="Times,serif" font-size="14.00" fill="grey">WorldModelInstance_generalized_acceleration</text>
<polygon fill="none" stroke="black" points="32.5,-331 32.5,-352 299.5,-352 299.5,-331 32.5,-331"/>
<text text-anchor="start" x="73" y="-337.8" font-family="Times,serif" font-size="14.00">applied_generalized_force</text>
<polygon fill="none" stroke="black" points="299.5,-331 299.5,-352 663.5,-352 663.5,-331 299.5,-331"/>
<text text-anchor="start" x="381" y="-337.8" font-family="Times,serif" font-size="14.00" fill="grey">DefaultModelInstance_state</text>
<polygon fill="none" stroke="black" points="32.5,-310 32.5,-331 299.5,-331 299.5,-310 32.5,-310"/>
<text text-anchor="start" x="90.5" y="-316.8" font-family="Times,serif" font-size="14.00">applied_spatial_force</text>
<polygon fill="none" stroke="black" points="299.5,-310 299.5,-331 663.5,-331 663.5,-310 299.5,-310"/>
<text text-anchor="start" x="310.5" y="-316.8" font-family="Times,serif" font-size="14.00" fill="grey">DefaultModelInstance_generalized_acceleration</text>
<polyline fill="none" stroke="grey" points="32.5,-310 32.5,-163 299.5,-163 "/>
<polygon fill="none" stroke="black" points="299.5,-289 299.5,-310 663.5,-310 663.5,-289 299.5,-289"/>
<text text-anchor="start" x="390" y="-295.8" font-family="Times,serif" font-size="14.00">KneedCompassGait_state</text>
<polygon fill="none" stroke="black" points="299.5,-268 299.5,-289 663.5,-289 663.5,-268 299.5,-268"/>
<text text-anchor="start" x="319.5" y="-274.8" font-family="Times,serif" font-size="14.00">KneedCompassGait_generalized_acceleration</text>
<polygon fill="none" stroke="black" points="299.5,-247 299.5,-268 663.5,-268 663.5,-247 299.5,-247"/>
<text text-anchor="start" x="308" y="-253.8" font-family="Times,serif" font-size="14.00" fill="grey">WorldModelInstance_generalized_contact_forces</text>
<polygon fill="none" stroke="black" points="299.5,-226 299.5,-247 663.5,-247 663.5,-226 299.5,-226"/>
<text text-anchor="start" x="302.5" y="-232.8" font-family="Times,serif" font-size="14.00" fill="grey">DefaultModelInstance_generalized_contact_forces</text>
<polygon fill="none" stroke="black" points="299.5,-205 299.5,-226 663.5,-226 663.5,-205 299.5,-205"/>
<text text-anchor="start" x="311.5" y="-211.8" font-family="Times,serif" font-size="14.00">KneedCompassGait_generalized_contact_forces</text>
<polygon fill="none" stroke="black" points="299.5,-184 299.5,-205 663.5,-205 663.5,-184 299.5,-184"/>
<text text-anchor="start" x="427" y="-190.8" font-family="Times,serif" font-size="14.00">reaction_forces</text>
<polygon fill="none" stroke="black" points="299.5,-163 299.5,-184 663.5,-184 663.5,-163 299.5,-163"/>
<text text-anchor="start" x="427" y="-169.8" font-family="Times,serif" font-size="14.00">contact_results</text>
</g>
<!-- s3 -->
<g id="node2" class="node">
<title>s3</title>
<polygon fill="none" stroke="black" points="715.5,-520 715.5,-554 908.5,-554 908.5,-520 715.5,-520"/>
<text text-anchor="start" x="764" y="-540.8" font-family="Times,serif" font-weight="bold" font-size="14.00">SceneGraph</text>
<text text-anchor="start" x="741.5" y="-526.8" font-family="Times,serif" font-size="14.00">name=scene_graph</text>
<polygon fill="none" stroke="black" points="715.5,-499 715.5,-520 860.5,-520 860.5,-499 715.5,-499"/>
<text text-anchor="start" x="749.5" y="-505.8" font-family="Times,serif" font-size="14.00">plant_pose</text>
<polygon fill="none" stroke="black" points="860.5,-478 860.5,-520 908.5,-520 908.5,-478 860.5,-478"/>
<text text-anchor="start" x="863.5" y="-495.3" font-family="Times,serif" font-size="14.00">query</text>
<polygon fill="none" stroke="black" points="715.5,-478 715.5,-499 860.5,-499 860.5,-478 715.5,-478"/>
<text text-anchor="start" x="718.5" y="-484.8" font-family="Times,serif" font-size="14.00">plant_configuration</text>
</g>
<!-- s2&#45;&gt;s3 -->
<g id="edge3" class="edge">
<title>s2:e&#45;&gt;s3:w</title>
<path fill="none" stroke="black" d="M664.5,-510C682.91,-510 689.87,-509.31 704.35,-509.08"/>
<polygon fill="black" stroke="black" points="704.53,-512.58 714.5,-509 704.47,-505.58 704.53,-512.58"/>
</g>
<!-- s88 -->
<g id="node5" class="node">
<title>s88</title>
<polygon fill="none" stroke="black" points="743.5,-226 743.5,-247 879.5,-247 879.5,-226 743.5,-226"/>
<text text-anchor="start" x="749" y="-233.8" font-family="Times,serif" font-weight="bold" font-size="14.00">landing.landing</text>
<polygon fill="none" stroke="black" points="743.5,-205 743.5,-226 818.5,-226 818.5,-205 743.5,-205"/>
<text text-anchor="start" x="776.5" y="-211.8" font-family="Times,serif" font-size="14.00">x</text>
<polygon fill="none" stroke="black" points="818.5,-163 818.5,-226 879.5,-226 879.5,-163 818.5,-163"/>
<text text-anchor="start" x="821.5" y="-190.8" font-family="Times,serif" font-size="14.00">comtraj</text>
<polygon fill="none" stroke="black" points="743.5,-184 743.5,-205 818.5,-205 818.5,-184 743.5,-184"/>
<text text-anchor="start" x="750.5" y="-190.8" font-family="Times,serif" font-size="14.00">com_des</text>
<polygon fill="none" stroke="black" points="743.5,-163 743.5,-184 818.5,-184 818.5,-163 743.5,-163"/>
<text text-anchor="start" x="746.5" y="-169.8" font-family="Times,serif" font-size="14.00">torso_des</text>
</g>
<!-- s2&#45;&gt;s88 -->
<g id="edge6" class="edge">
<title>s2:e&#45;&gt;s88:w</title>
<path fill="none" stroke="black" d="M664.5,-489C724.02,-489 684.51,-246.05 732.81,-218.53"/>
<polygon fill="black" stroke="black" points="733.71,-221.91 742.5,-216 731.94,-215.14 733.71,-221.91"/>
</g>
<!-- s90 -->
<g id="node6" class="node">
<title>s90</title>
<polygon fill="none" stroke="black" points="960.5,-314 960.5,-335 1355.5,-335 1355.5,-314 960.5,-314"/>
<text text-anchor="start" x="963.5" y="-321.8" font-family="Times,serif" font-weight="bold" font-size="14.00">osc_modified.OperationalSpaceWalkingController</text>
<polygon fill="none" stroke="black" points="960.5,-293 960.5,-314 1182.5,-314 1182.5,-293 960.5,-293"/>
<text text-anchor="start" x="1067" y="-299.8" font-family="Times,serif" font-size="14.00">x</text>
<polygon fill="none" stroke="black" points="1182.5,-293 1182.5,-314 1355.5,-314 1355.5,-293 1182.5,-293"/>
<text text-anchor="start" x="1264" y="-299.8" font-family="Times,serif" font-size="14.00">u</text>
<polygon fill="none" stroke="black" points="960.5,-272 960.5,-293 1182.5,-293 1182.5,-272 960.5,-272"/>
<text text-anchor="start" x="1040.5" y="-278.8" font-family="Times,serif" font-size="14.00">com_traj</text>
<polygon fill="none" stroke="black" points="1182.5,-272 1182.5,-293 1355.5,-293 1355.5,-272 1182.5,-272"/>
<text text-anchor="start" x="1241.5" y="-278.8" font-family="Times,serif" font-size="14.00">metrics</text>
<polygon fill="none" stroke="black" points="960.5,-251 960.5,-272 1182.5,-272 1182.5,-251 960.5,-251"/>
<text text-anchor="start" x="1019" y="-257.8" font-family="Times,serif" font-size="14.00">base_joint_traj</text>
<polyline fill="none" stroke="grey" points="1182.5,-251 1355.5,-251 1355.5,-272 "/>
</g>
<!-- s2&#45;&gt;s90 -->
<g id="edge9" class="edge">
<title>s2:e&#45;&gt;s90:w</title>
<path fill="none" stroke="black" d="M664.5,-489C686.19,-489 686.77,-472.84 707,-465 795.86,-430.54 844.01,-479.45 916,-417 953.63,-384.35 912.75,-315.31 949.17,-305.24"/>
<polygon fill="black" stroke="black" points="949.99,-308.66 959.5,-304 949.16,-301.71 949.99,-308.66"/>
</g>
<!-- s3&#45;&gt;s2 -->
<g id="edge4" class="edge">
<title>s3:e&#45;&gt;s2:w</title>
<path fill="none" stroke="black" d="M909.5,-499C920.62,-499 916.52,-481.7 908.5,-474 892.36,-458.49 725.68,-461.66 707,-474 672.94,-496.51 705.06,-535.99 671,-558.5 611.81,-597.62 83.18,-608.15 32.5,-558.5 20.11,-546.36 13.05,-522.35 22,-513.44"/>
<polygon fill="black" stroke="black" points="23.29,-516.69 31.5,-510 20.91,-510.11 23.29,-516.69"/>
</g>
<!-- s93 -->
<g id="node8" class="node">
<title>s93</title>
<polygon fill="none" stroke="black" points="1021.5,-505 1021.5,-553 1294.5,-553 1294.5,-505 1021.5,-505"/>
<text text-anchor="start" x="1084.5" y="-539.8" font-family="Times,serif" font-weight="bold" font-size="14.00">MeshcatVisualizer</text>
<text text-anchor="start" x="1024.5" y="-525.8" font-family="Times,serif" font-size="14.00">name=meshcat_visualizer(visualizer)</text>
<text text-anchor="start" x="1076.5" y="-511.8" font-family="Times,serif" font-size="14.00">path=/drake/visualizer</text>
<polygon fill="none" stroke="black" points="1021.5,-484 1021.5,-505 1203.5,-505 1203.5,-484 1021.5,-484"/>
<text text-anchor="start" x="1066.5" y="-490.8" font-family="Times,serif" font-size="14.00">query_object</text>
<polyline fill="none" stroke="grey" points="1203.5,-484 1294.5,-484 1294.5,-505 "/>
</g>
<!-- s3&#45;&gt;s93 -->
<g id="edge12" class="edge">
<title>s3:e&#45;&gt;s93:w</title>
<path fill="none" stroke="black" d="M909.5,-499C955.31,-499 969.15,-494.7 1010.35,-494.07"/>
<polygon fill="black" stroke="black" points="1010.53,-497.57 1020.5,-494 1010.47,-490.57 1010.53,-497.57"/>
</g>
<!-- s86 -->
<g id="node3" class="node">
<title>s86</title>
<polygon fill="none" stroke="black" points="256.5,-49 256.5,-70 439.5,-70 439.5,-49 256.5,-49"/>
<text text-anchor="start" x="259.5" y="-56.8" font-family="Times,serif" font-weight="bold" font-size="14.00">ConstantVectorSource</text>
<polyline fill="none" stroke="grey" points="256.5,-49 256.5,-28 338.5,-28 "/>
<polygon fill="none" stroke="black" points="338.5,-28 338.5,-49 439.5,-49 439.5,-28 338.5,-28"/>
<text text-anchor="start" x="380" y="-34.8" font-family="Times,serif" font-size="14.00">y0</text>
</g>
<!-- s86&#45;&gt;s88 -->
<g id="edge8" class="edge">
<title>s86:e&#45;&gt;s88:w</title>
<path fill="none" stroke="black" d="M440.5,-38C544.88,-38 581.8,-28.79 671,-83 711.42,-107.56 694.5,-163.78 732.3,-171.99"/>
<polygon fill="black" stroke="black" points="732.2,-175.5 742.5,-173 732.89,-168.53 732.2,-175.5"/>
</g>
<!-- s86&#45;&gt;s90 -->
<g id="edge11" class="edge">
<title>s86:e&#45;&gt;s90:w</title>
<path fill="none" stroke="black" d="M440.5,-38C657.62,-38 754.52,-4.87 916,-150 952.48,-182.79 913.29,-250 949.31,-259.8"/>
<polygon fill="black" stroke="black" points="949.16,-263.3 959.5,-261 949.98,-256.35 949.16,-263.3"/>
</g>
<!-- s87 -->
<g id="node4" class="node">
<title>s87</title>
<polygon fill="none" stroke="black" points="256.5,-117 256.5,-138 439.5,-138 439.5,-117 256.5,-117"/>
<text text-anchor="start" x="259.5" y="-124.8" font-family="Times,serif" font-weight="bold" font-size="14.00">ConstantVectorSource</text>
<polyline fill="none" stroke="grey" points="256.5,-117 256.5,-96 338.5,-96 "/>
<polygon fill="none" stroke="black" points="338.5,-96 338.5,-117 439.5,-117 439.5,-96 338.5,-96"/>
<text text-anchor="start" x="380" y="-102.8" font-family="Times,serif" font-size="14.00">y0</text>
</g>
<!-- s87&#45;&gt;s88 -->
<g id="edge7" class="edge">
<title>s87:e&#45;&gt;s88:w</title>
<path fill="none" stroke="black" d="M440.5,-106C544.88,-106 573.58,-113.54 671,-151 702.1,-162.96 705.1,-188.14 732.28,-193.13"/>
<polygon fill="black" stroke="black" points="732.24,-196.64 742.5,-194 732.83,-189.66 732.24,-196.64"/>
</g>
<!-- s88&#45;&gt;s90 -->
<g id="edge10" class="edge">
<title>s88:e&#45;&gt;s90:w</title>
<path fill="none" stroke="black" d="M880.5,-194C929.36,-194 910.22,-270.06 949.53,-280.76"/>
<polygon fill="black" stroke="black" points="949.14,-284.24 959.5,-282 950.01,-277.29 949.14,-284.24"/>
</g>
<!-- s90&#45;&gt;s2 -->
<g id="edge5" class="edge">
<title>s90:e&#45;&gt;s2:w</title>
<path fill="none" stroke="black" d="M1356.5,-304C1372.06,-304 1365.74,-327.28 1355.5,-339 1163.34,-559.02 928.09,-255.08 707,-446 667.27,-480.31 713.4,-527.55 671,-558.5 613.7,-600.33 82.85,-608.48 32.5,-558.5 14.13,-540.27 4.53,-451.73 22.47,-430.56"/>
<polygon fill="black" stroke="black" points="24.15,-433.63 31.5,-426 21,-427.38 24.15,-433.63"/>
</g>
<!-- s92 -->
<g id="node7" class="node">
<title>s92</title>
<polygon fill="none" stroke="black" points="1407.5,-293 1407.5,-314 1528.5,-314 1528.5,-293 1407.5,-293"/>
<text text-anchor="start" x="1410.5" y="-300.8" font-family="Times,serif" font-weight="bold" font-size="14.00">VectorLogSink</text>
<polygon fill="none" stroke="black" points="1407.5,-272 1407.5,-293 1483.5,-293 1483.5,-272 1407.5,-272"/>
<text text-anchor="start" x="1429.5" y="-278.8" font-family="Times,serif" font-size="14.00">data</text>
<polyline fill="none" stroke="grey" points="1483.5,-272 1528.5,-272 1528.5,-293 "/>
</g>
<!-- s90&#45;&gt;s92 -->
<g id="edge2" class="edge">
<title>s90:e&#45;&gt;s92:w</title>
<path fill="none" stroke="black" d="M1356.5,-282C1374.9,-282 1381.88,-282 1396.35,-282"/>
<polygon fill="black" stroke="black" points="1396.5,-285.5 1406.5,-282 1396.5,-278.5 1396.5,-285.5"/>
</g>
<!-- meshcat_in -->
<g id="node9" class="node">
<title>meshcat_in</title>
<ellipse fill="none" stroke="magenta" cx="1467.5" cy="-519" rx="50.09" ry="18"/>
<text text-anchor="middle" x="1467.5" y="-515.3" font-family="Times,serif" font-size="14.00">Meshcat</text>
</g>
<!-- s93&#45;&gt;meshcat_in -->
<g id="edge1" class="edge">
<title>s93:e&#45;&gt;meshcat_in</title>
<path fill="none" stroke="magenta" stroke-dasharray="5,2" d="M1303.5,-519C1337.82,-519 1376.21,-519 1407.11,-519"/>
<polygon fill="magenta" stroke="magenta" points="1407.28,-522.5 1417.28,-519 1407.28,-515.5 1407.28,-522.5"/>
</g>
</g>
</svg>
