<?xml version="1.0" encoding="UTF-8" standalone="no"?>
<!DOCTYPE svg PUBLIC "-//W3C//DTD SVG 1.1//EN"
 "http://www.w3.org/Graphics/SVG/1.1/DTD/svg11.dtd">
<!-- Generated by graphviz version 2.43.0 (0)
 -->
<!-- Title: _228 Pages: 1 -->
<svg width="1611pt" height="689pt"
 viewBox="0.00 0.00 1611.09 689.00" xmlns="http://www.w3.org/2000/svg" xmlns:xlink="http://www.w3.org/1999/xlink">
<g id="graph0" class="graph" transform="scale(1 1) rotate(0) translate(4 685)">
<title>_228</title>
<polygon fill="white" stroke="transparent" points="-4,4 -4,-685 1607.09,-685 1607.09,4 -4,4"/>
<g id="clust1" class="cluster">
<title>cluster228diagram</title>
<polygon fill="none" stroke="black" points="8,-8 8,-673 1595.09,-673 1595.09,-8 8,-8"/>
<text text-anchor="start" x="767.55" y="-654.3" font-family="Times,serif" font-weight="bold" font-size="14.00">Diagram</text>
</g>
<g id="clust2" class="cluster">
<title>cluster228subsystems</title>
<polygon fill="none" stroke="white" points="16,-16 16,-634 1587.09,-634 1587.09,-16 16,-16"/>
</g>
<!-- s120 -->
<g id="node1" class="node">
<title>s120</title>
<polygon fill="none" stroke="black" points="32.5,-588 32.5,-622 663.5,-622 663.5,-588 32.5,-588"/>
<text text-anchor="start" x="286.5" y="-608.8" font-family="Times,serif" font-weight="bold" font-size="14.00">MultibodyPlant</text>
<text text-anchor="start" x="304" y="-594.8" font-family="Times,serif" font-size="14.00">name=plant</text>
<polygon fill="none" stroke="black" points="32.5,-567 32.5,-588 299.5,-588 299.5,-567 32.5,-567"/>
<text text-anchor="start" x="107.5" y="-573.8" font-family="Times,serif" font-size="14.00">geometry_query</text>
<polygon fill="none" stroke="black" points="299.5,-567 299.5,-588 663.5,-588 663.5,-567 299.5,-567"/>
<text text-anchor="start" x="427" y="-573.8" font-family="Times,serif" font-size="14.00">geometry_pose</text>
<polygon fill="none" stroke="black" points="32.5,-546 32.5,-567 299.5,-567 299.5,-546 32.5,-546"/>
<text text-anchor="start" x="55.5" y="-552.8" font-family="Times,serif" font-size="14.00" fill="grey">WorldModelInstance_actuation</text>
<polygon fill="none" stroke="black" points="299.5,-546 299.5,-567 663.5,-567 663.5,-546 299.5,-546"/>
<text text-anchor="start" x="463" y="-552.8" font-family="Times,serif" font-size="14.00">state</text>
<polygon fill="none" stroke="black" points="32.5,-525 32.5,-546 299.5,-546 299.5,-525 32.5,-525"/>
<text text-anchor="start" x="50" y="-531.8" font-family="Times,serif" font-size="14.00" fill="grey">DefaultModelInstance_actuation</text>
<polygon fill="none" stroke="black" points="299.5,-525 299.5,-546 663.5,-546 663.5,-525 299.5,-525"/>
<text text-anchor="start" x="440.5" y="-531.8" font-family="Times,serif" font-size="14.00">body_poses</text>
<polygon fill="none" stroke="black" points="32.5,-504 32.5,-525 299.5,-525 299.5,-504 32.5,-504"/>
<text text-anchor="start" x="59" y="-510.8" font-family="Times,serif" font-size="14.00">KneedCompassGait_actuation</text>
<polygon fill="none" stroke="black" points="299.5,-504 299.5,-525 663.5,-525 663.5,-504 299.5,-504"/>
<text text-anchor="start" x="420" y="-510.8" font-family="Times,serif" font-size="14.00">spatial_velocities</text>
<polygon fill="none" stroke="black" points="32.5,-483 32.5,-504 299.5,-504 299.5,-483 32.5,-483"/>
<text text-anchor="start" x="132.5" y="-489.8" font-family="Times,serif" font-size="14.00">actuation</text>
<polygon fill="none" stroke="black" points="299.5,-483 299.5,-504 663.5,-504 663.5,-483 299.5,-483"/>
<text text-anchor="start" x="406.5" y="-489.8" font-family="Times,serif" font-size="14.00">spatial_accelerations</text>
<polygon fill="none" stroke="black" points="32.5,-462 32.5,-483 299.5,-483 299.5,-462 32.5,-462"/>
<text text-anchor="start" x="41" y="-468.8" font-family="Times,serif" font-size="14.00" fill="grey">WorldModelInstance_desired_state</text>
<polygon fill="none" stroke="black" points="299.5,-462 299.5,-483 663.5,-483 663.5,-462 299.5,-462"/>
<text text-anchor="start" x="392.5" y="-468.8" font-family="Times,serif" font-size="14.00">generalized_acceleration</text>
<polygon fill="none" stroke="black" points="32.5,-441 32.5,-462 299.5,-462 299.5,-441 32.5,-441"/>
<text text-anchor="start" x="35.5" y="-447.8" font-family="Times,serif" font-size="14.00" fill="grey">DefaultModelInstance_desired_state</text>
<polygon fill="none" stroke="black" points="299.5,-441 299.5,-462 663.5,-462 663.5,-441 299.5,-441"/>
<text text-anchor="start" x="386.5" y="-447.8" font-family="Times,serif" font-size="14.00" fill="grey">WorldModelInstance_state</text>
<polygon fill="none" stroke="black" points="32.5,-420 32.5,-441 299.5,-441 299.5,-420 32.5,-420"/>
<text text-anchor="start" x="44.5" y="-426.8" font-family="Times,serif" font-size="14.00" fill="grey">KneedCompassGait_desired_state</text>
<polygon fill="none" stroke="black" points="299.5,-420 299.5,-441 663.5,-441 663.5,-420 299.5,-420"/>
<text text-anchor="start" x="316" y="-426.8" font-family="Times,serif" font-size="14.00" fill="grey">WorldModelInstance_generalized_acceleration</text>
<polygon fill="none" stroke="black" points="32.5,-399 32.5,-420 299.5,-420 299.5,-399 32.5,-399"/>
<text text-anchor="start" x="73" y="-405.8" font-family="Times,serif" font-size="14.00">applied_generalized_force</text>
<polygon fill="none" stroke="black" points="299.5,-399 299.5,-420 663.5,-420 663.5,-399 299.5,-399"/>
<text text-anchor="start" x="381" y="-405.8" font-family="Times,serif" font-size="14.00" fill="grey">DefaultModelInstance_state</text>
<polygon fill="none" stroke="black" points="32.5,-378 32.5,-399 299.5,-399 299.5,-378 32.5,-378"/>
<text text-anchor="start" x="90.5" y="-384.8" font-family="Times,serif" font-size="14.00">applied_spatial_force</text>
<polygon fill="none" stroke="black" points="299.5,-378 299.5,-399 663.5,-399 663.5,-378 299.5,-378"/>
<text text-anchor="start" x="310.5" y="-384.8" font-family="Times,serif" font-size="14.00" fill="grey">DefaultModelInstance_generalized_acceleration</text>
<polyline fill="none" stroke="grey" points="32.5,-378 32.5,-231 299.5,-231 "/>
<polygon fill="none" stroke="black" points="299.5,-357 299.5,-378 663.5,-378 663.5,-357 299.5,-357"/>
<text text-anchor="start" x="390" y="-363.8" font-family="Times,serif" font-size="14.00">KneedCompassGait_state</text>
<polygon fill="none" stroke="black" points="299.5,-336 299.5,-357 663.5,-357 663.5,-336 299.5,-336"/>
<text text-anchor="start" x="319.5" y="-342.8" font-family="Times,serif" font-size="14.00">KneedCompassGait_generalized_acceleration</text>
<polygon fill="none" stroke="black" points="299.5,-315 299.5,-336 663.5,-336 663.5,-315 299.5,-315"/>
<text text-anchor="start" x="308" y="-321.8" font-family="Times,serif" font-size="14.00" fill="grey">WorldModelInstance_generalized_contact_forces</text>
<polygon fill="none" stroke="black" points="299.5,-294 299.5,-315 663.5,-315 663.5,-294 299.5,-294"/>
<text text-anchor="start" x="302.5" y="-300.8" font-family="Times,serif" font-size="14.00" fill="grey">DefaultModelInstance_generalized_contact_forces</text>
<polygon fill="none" stroke="black" points="299.5,-273 299.5,-294 663.5,-294 663.5,-273 299.5,-273"/>
<text text-anchor="start" x="311.5" y="-279.8" font-family="Times,serif" font-size="14.00">KneedCompassGait_generalized_contact_forces</text>
<polygon fill="none" stroke="black" points="299.5,-252 299.5,-273 663.5,-273 663.5,-252 299.5,-252"/>
<text text-anchor="start" x="427" y="-258.8" font-family="Times,serif" font-size="14.00">reaction_forces</text>
<polygon fill="none" stroke="black" points="299.5,-231 299.5,-252 663.5,-252 663.5,-231 299.5,-231"/>
<text text-anchor="start" x="427" y="-237.8" font-family="Times,serif" font-size="14.00">contact_results</text>
</g>
<!-- s121 -->
<g id="node2" class="node">
<title>s121</title>
<polygon fill="none" stroke="black" points="816.5,-588 816.5,-622 1009.5,-622 1009.5,-588 816.5,-588"/>
<text text-anchor="start" x="865" y="-608.8" font-family="Times,serif" font-weight="bold" font-size="14.00">SceneGraph</text>
<text text-anchor="start" x="842.5" y="-594.8" font-family="Times,serif" font-size="14.00">name=scene_graph</text>
<polygon fill="none" stroke="black" points="816.5,-567 816.5,-588 961.5,-588 961.5,-567 816.5,-567"/>
<text text-anchor="start" x="850.5" y="-573.8" font-family="Times,serif" font-size="14.00">plant_pose</text>
<polygon fill="none" stroke="black" points="961.5,-546 961.5,-588 1009.5,-588 1009.5,-546 961.5,-546"/>
<text text-anchor="start" x="964.5" y="-563.3" font-family="Times,serif" font-size="14.00">query</text>
<polygon fill="none" stroke="black" points="816.5,-546 816.5,-567 961.5,-567 961.5,-546 816.5,-546"/>
<text text-anchor="start" x="819.5" y="-552.8" font-family="Times,serif" font-size="14.00">plant_configuration</text>
</g>
<!-- s120&#45;&gt;s121 -->
<g id="edge2" class="edge">
<title>s120:e&#45;&gt;s121:w</title>
<path fill="none" stroke="black" d="M664.5,-578C728.07,-578 746.48,-577.1 805.29,-577.01"/>
<polygon fill="black" stroke="black" points="805.5,-580.51 815.5,-577 805.5,-573.51 805.5,-580.51"/>
</g>
<!-- s206 -->
<g id="node6" class="node">
<title>s206</title>
<polygon fill="none" stroke="black" points="715.5,-318 715.5,-339 1110.5,-339 1110.5,-318 715.5,-318"/>
<text text-anchor="start" x="718.5" y="-325.8" font-family="Times,serif" font-weight="bold" font-size="14.00">osc_modified.OperationalSpaceWalkingController</text>
<polygon fill="none" stroke="black" points="715.5,-297 715.5,-318 937.5,-318 937.5,-297 715.5,-297"/>
<text text-anchor="start" x="822" y="-303.8" font-family="Times,serif" font-size="14.00">x</text>
<polygon fill="none" stroke="black" points="937.5,-297 937.5,-318 1110.5,-318 1110.5,-297 937.5,-297"/>
<text text-anchor="start" x="1019" y="-303.8" font-family="Times,serif" font-size="14.00">u</text>
<polygon fill="none" stroke="black" points="715.5,-276 715.5,-297 937.5,-297 937.5,-276 715.5,-276"/>
<text text-anchor="start" x="795.5" y="-282.8" font-family="Times,serif" font-size="14.00">com_traj</text>
<polygon fill="none" stroke="black" points="937.5,-276 937.5,-297 1110.5,-297 1110.5,-276 937.5,-276"/>
<text text-anchor="start" x="996.5" y="-282.8" font-family="Times,serif" font-size="14.00">metrics</text>
<polygon fill="none" stroke="black" points="715.5,-255 715.5,-276 937.5,-276 937.5,-255 715.5,-255"/>
<text text-anchor="start" x="774" y="-261.8" font-family="Times,serif" font-size="14.00">base_joint_traj</text>
<polyline fill="none" stroke="grey" points="937.5,-255 1110.5,-255 1110.5,-276 "/>
</g>
<!-- s120&#45;&gt;s206 -->
<g id="edge3" class="edge">
<title>s120:e&#45;&gt;s206:w</title>
<path fill="none" stroke="black" d="M664.5,-557C773.74,-557 612.65,-323.79 704.47,-308.76"/>
<polygon fill="black" stroke="black" points="704.79,-312.24 714.5,-308 704.26,-305.26 704.79,-312.24"/>
</g>
<!-- s121&#45;&gt;s120 -->
<g id="edge7" class="edge">
<title>s121:e&#45;&gt;s120:w</title>
<path fill="none" stroke="black" d="M1010.5,-567C1035.7,-567 1025.99,-480.18 808,-542 739.17,-561.52 739.83,-606.98 671,-626.5 534.49,-665.21 133.86,-725.79 32.5,-626.5 20.11,-614.36 13.05,-590.35 22,-581.44"/>
<polygon fill="black" stroke="black" points="23.29,-584.69 31.5,-578 20.91,-578.11 23.29,-584.69"/>
</g>
<!-- s208 -->
<g id="node7" class="node">
<title>s208</title>
<polygon fill="none" stroke="black" points="1162.5,-573 1162.5,-621 1435.5,-621 1435.5,-573 1162.5,-573"/>
<text text-anchor="start" x="1225.5" y="-607.8" font-family="Times,serif" font-weight="bold" font-size="14.00">MeshcatVisualizer</text>
<text text-anchor="start" x="1165.5" y="-593.8" font-family="Times,serif" font-size="14.00">name=meshcat_visualizer(visualizer)</text>
<text text-anchor="start" x="1217.5" y="-579.8" font-family="Times,serif" font-size="14.00">path=/drake/visualizer</text>
<polygon fill="none" stroke="black" points="1162.5,-552 1162.5,-573 1344.5,-573 1344.5,-552 1162.5,-552"/>
<text text-anchor="start" x="1207.5" y="-558.8" font-family="Times,serif" font-size="14.00">query_object</text>
<polyline fill="none" stroke="grey" points="1344.5,-552 1435.5,-552 1435.5,-573 "/>
</g>
<!-- s121&#45;&gt;s208 -->
<g id="edge6" class="edge">
<title>s121:e&#45;&gt;s208:w</title>
<path fill="none" stroke="black" d="M1010.5,-567C1074.11,-567 1092.45,-562.51 1151.28,-562.04"/>
<polygon fill="black" stroke="black" points="1151.51,-565.54 1161.5,-562 1151.49,-558.54 1151.51,-565.54"/>
</g>
<!-- s203 -->
<g id="node3" class="node">
<title>s203</title>
<polygon fill="none" stroke="black" points="256.5,-185 256.5,-206 439.5,-206 439.5,-185 256.5,-185"/>
<text text-anchor="start" x="259.5" y="-192.8" font-family="Times,serif" font-weight="bold" font-size="14.00">ConstantVectorSource</text>
<polyline fill="none" stroke="grey" points="256.5,-185 256.5,-164 338.5,-164 "/>
<polygon fill="none" stroke="black" points="338.5,-164 338.5,-185 439.5,-185 439.5,-164 338.5,-164"/>
<text text-anchor="start" x="380" y="-170.8" font-family="Times,serif" font-size="14.00">y0</text>
</g>
<!-- s204 -->
<g id="node4" class="node">
<title>s204</title>
<polygon fill="none" stroke="black" points="259.5,-49 259.5,-70 435.5,-70 435.5,-49 259.5,-49"/>
<text text-anchor="start" x="262.5" y="-56.8" font-family="Times,serif" font-weight="bold" font-size="14.00">ConstantValueSource</text>
<polyline fill="none" stroke="grey" points="259.5,-49 259.5,-28 338.5,-28 "/>
<polygon fill="none" stroke="black" points="338.5,-28 338.5,-49 435.5,-49 435.5,-28 338.5,-28"/>
<text text-anchor="start" x="378" y="-34.8" font-family="Times,serif" font-size="14.00">y0</text>
</g>
<!-- s204&#45;&gt;s206 -->
<g id="edge5" class="edge">
<title>s204:e&#45;&gt;s206:w</title>
<path fill="none" stroke="black" d="M436.5,-38C542.62,-38 594.29,-9.67 671,-83 728.42,-137.89 639.98,-253.95 704.37,-264.26"/>
<polygon fill="black" stroke="black" points="704.27,-267.77 714.5,-265 704.78,-260.78 704.27,-267.77"/>
</g>
<!-- s205 -->
<g id="node5" class="node">
<title>s205</title>
<polygon fill="none" stroke="black" points="293.5,-117 293.5,-138 402.5,-138 402.5,-117 293.5,-117"/>
<text text-anchor="start" x="296.5" y="-124.8" font-family="Times,serif" font-weight="bold" font-size="14.00">__main__.tmp</text>
<polyline fill="none" stroke="grey" points="293.5,-117 293.5,-96 316.5,-96 "/>
<polygon fill="none" stroke="black" points="316.5,-96 316.5,-117 402.5,-117 402.5,-96 316.5,-96"/>
<text text-anchor="start" x="328.5" y="-102.8" font-family="Times,serif" font-size="14.00">com_traj</text>
</g>
<!-- s205&#45;&gt;s206 -->
<g id="edge4" class="edge">
<title>s205:e&#45;&gt;s206:w</title>
<path fill="none" stroke="black" d="M403.5,-106C524.06,-106 579.8,-72.15 671,-151 715.8,-189.73 659.18,-274.84 704.43,-285"/>
<polygon fill="black" stroke="black" points="704.2,-288.5 714.5,-286 704.89,-281.53 704.2,-288.5"/>
</g>
<!-- s206&#45;&gt;s120 -->
<g id="edge8" class="edge">
<title>s206:e&#45;&gt;s120:w</title>
<path fill="none" stroke="black" d="M1111.5,-308C1127.06,-308 1119.01,-329.97 1110.5,-343 1001.99,-509.11 842.23,-388.81 707,-534 676.93,-566.28 707.41,-601.6 671,-626.5 612.44,-666.55 82.85,-676.48 32.5,-626.5 14.13,-608.27 4.53,-519.73 22.47,-498.56"/>
<polygon fill="black" stroke="black" points="24.15,-501.63 31.5,-494 21,-495.38 24.15,-501.63"/>
</g>
<!-- meshcat_in -->
<g id="node8" class="node">
<title>meshcat_in</title>
<ellipse fill="none" stroke="magenta" cx="1529.05" cy="-587" rx="50.09" ry="18"/>
<text text-anchor="middle" x="1529.05" y="-583.3" font-family="Times,serif" font-size="14.00">Meshcat</text>
</g>
<!-- s208&#45;&gt;meshcat_in -->
<g id="edge1" class="edge">
<title>s208:e&#45;&gt;meshcat_in</title>
<path fill="none" stroke="magenta" stroke-dasharray="5,2" d="M1443,-587C1451.19,-587 1459.82,-587 1468.32,-587"/>
<polygon fill="magenta" stroke="magenta" points="1468.58,-590.5 1478.58,-587 1468.58,-583.5 1468.58,-590.5"/>
</g>
</g>
</svg>
